UoqMunThenKhung-Regular.glyphspackage
{
glyphname = exclam;
layers = (
{
layerId = m001;
shapes = (
{
closed = 1;
nodes = (
(278,19,o),
(231,-25,o),
(200,-25,q),
(169,-25,o),
(122,19,o),
(122,50,q),
(122,82,o),
(169,124,o),
(200,124,q),
(231,124,o),
(278,82,o),
(278,50,q)
);
},
{
closed = 1;
nodes = (
(281,670,o),
(274,630,o),
(272,610,q),
(258,504,o),
(231,292,o),
(217,185,q),
(182,185,l),
(174,292,o),
(147,505,o),
(130,610,q),
(127,630,o),
(120,670,o),
(120,690,q),
(120,720,o),
(173,755,o),
(200,755,q),
(217,755,o),
(255,738,o),
(281,709,o),
(281,690,q)
);
}
);
userData = {
public.verticalOrigin = 880;
};
vertWidth = 1000;
width = 400;
}
);
unicode = 33;
}
{
glyphname = quotedbl;
layers = (
{
layerId = m001;
shapes = (
{
closed = 1;
nodes = (
(169,702,o),
(160,631,o),
(155,596,q),
(152,577,o),
(146,526,o),
(141,508,q),
(140,503,o),
(128,483,o),
(121,483,q),
(111,483,o),
(103,500,o),
(101,508,q),
(96,533,o),
(89,583,o),
(86,608,q),
(82,640,o),
(73,705,o),
(73,736,q),
(73,758,o),
(100,781,o),
(121,781,q),
(140,781,o),
(169,755,o),
(169,736,q)
);
},
{
closed = 1;
nodes = (
(317,704,o),
(309,637,o),
(304,605,q),
(301,581,o),
(295,531,o),
(289,508,q),
(288,501,o),
(279,483,o),
(269,483,q),
(259,483,o),
(251,500,o),
(249,508,q),
(244,533,o),
(237,583,o),
(234,608,q),
(230,640,o),
(221,705,o),
(221,736,q),
(221,758,o),
(248,781,o),
(269,781,q),
(288,781,o),
(317,755,o),
(317,736,q)
);
}
);
userData = {
public.verticalOrigin = 880;
};
vertWidth = 1000;
width = 390;
}
);
unicode = 34;
}
{
glyphname = numbersign;
layers = (
{
layerId = m001;
shapes = (
{
closed = 1;
nodes = (
(326,488,l),
(296,323,l),
(461,323,l),
(491,488,l)
);
},
{
closed = 1;
nodes = (
(692,488,l),
(550,488,l),
(520,323,l),
(666,323,l),
(650,241,l),
(506,241,l),
(461,-15,l),
(401,-15,l),
(447,241,l),
(282,241,l),
(235,-15,l),
(176,-15,l),
(225,241,l),
(72,241,l),
(88,323,l),
(239,323,l),
(268,488,l),
(114,488,l),
(130,569,l),
(282,569,l),
(317,769,l),
(376,769,l),
(341,569,l),
(504,569,l),
(540,769,l),
(598,769,l),
(564,569,l),
(708,569,l)
);
}
);
userData = {
public.verticalOrigin = 880;
};
vertWidth = 1000;
width = 780;
}
);
unicode = 35;
}
{
glyphname = dollar;
layers = (
{
layerId = m001;
shapes = (
{
closed = 1;
nodes = (
(472,218,o),
(417,279,o),
(378,301,q),
(378,36,l),
(425,55,o),
(472,117,o),
(472,169,q)
);
},
{
closed = 1;
nodes = (
(267,673,o),
(224,616,o),
(224,569,q),
(224,525,o),
(278,469,o),
(312,447,q),
(312,687,l)
);
},
{
closed = 1;
nodes = (
(601,118,o),
(536,39,o),
(434,-1,o),
(378,-7,q),
(378,-82,l),
(312,-82,l),
(312,-10,l),
(284,-8,o),
(230,-1,o),
(204,9,q),
(183,17,o),
(143,36,o),
(121,41,q),
(116,79,o),
(99,153,o),
(99,191,q),
(99,202,o),
(113,210,o),
(122,210,q),
(140,210,o),
(164,200,o),
(170,182,q),
(174,171,o),
(178,146,o),
(182,135,q),
(198,85,o),
(261,37,o),
(312,29,q),
(312,337,l),
(282,352,o),
(211,388,o),
(147,434,o),
(106,495,o),
(106,534,q),
(106,594,o),
(165,672,o),
(259,714,o),
(312,719,q),
(312,786,l),
(378,786,l),
(378,718,l),
(404,716,o),
(451,700,o),
(475,690,q),
(492,684,o),
(527,679,o),
(546,677,q),
(549,648,o),
(553,588,o),
(560,558,q),
(561,554,o),
(563,547,o),
(563,543,q),
(563,527,o),
(531,516,o),
(519,516,q),
(509,516,o),
(493,520,o),
(488,530,q),
(485,543,o),
(481,570,o),
(477,583,q),
(467,620,o),
(412,670,o),
(378,684,q),
(378,412,l),
(417,394,o),
(496,355,o),
(562,304,o),
(601,233,o),
(601,182,q)
);
}
);
userData = {
public.verticalOrigin = 880;
};
vertWidth = 1000;
width = 700;
}
);
unicode = 36;
}
{
glyphname = percent;
layers = (
{
layerId = m001;
shapes = (
{
closed = 1;
nodes = (
(307,557,o),
(305,614,o),
(292,671,o),
(261,709,o),
(233,709,q),
(205,709,o),
(174,671,o),
(160,614,o),
(157,557,o),
(157,537,q),
(157,520,o),
(163,466,o),
(179,412,o),
(209,376,o),
(233,376,q),
(262,376,o),
(292,411,o),
(305,463,o),
(307,517,o),
(307,537,q)
);
},
{
closed = 1;
nodes = (
(727,206,o),
(724,263,o),
(711,318,o),
(679,355,o),
(650,355,q),
(622,355,o),
(591,317,o),
(578,260,o),
(576,203,o),
(576,183,q),
(576,166,o),
(582,113,o),
(598,59,o),
(627,23,o),
(650,23,q),
(679,23,o),
(711,58,o),
(724,110,o),
(727,165,o),
(727,186,q)
);
},
{
closed = 1;
nodes = (
(417,489,o),
(366,400,o),
(283,343,o),
(233,343,q),
(181,343,o),
(98,398,o),
(50,487,o),
(50,537,q),
(50,573,o),
(78,645,o),
(128,704,o),
(195,740,o),
(233,740,q),
(289,740,o),
(371,683,o),
(417,590,o),
(417,537,q)
);
},
{
closed = 1;
nodes = (
(148,-19,l),
(113,7,l),
(740,743,l),
(775,716,l)
);
},
{
closed = 1;
nodes = (
(836,135,o),
(784,47,o),
(700,-9,o),
(650,-9,q),
(598,-9,o),
(516,45,o),
(469,133,o),
(469,183,q),
(469,219,o),
(497,290,o),
(547,350,o),
(613,386,o),
(650,386,q),
(707,386,o),
(790,329,o),
(836,237,o),
(836,183,q)
);
}
);
userData = {
public.verticalOrigin = 880;
};
vertWidth = 1000;
width = 886;
}
);
unicode = 37;
}
{
glyphname = ampersand;
layers = (
{
layerId = m001;
shapes = (
{
closed = 1;
nodes = (
(400,108,o),
(310,205,o),
(239,316,o),
(220,365,q),
(195,334,o),
(163,249,o),
(163,209,q),
(163,165,o),
(197,89,o),
(262,43,o),
(309,43,q),
(347,43,o),
(414,56,o),
(445,79,q)
);
},
{
closed = 1;
nodes = (
(391,655,o),
(366,696,o),
(346,696,q),
(318,696,o),
(280,664,o),
(262,615,o),
(262,590,q),
(262,531,o),
(289,477,q),
(311,496,o),
(358,547,o),
(391,607,o),
(391,637,q)
);
},
{
closed = 1;
nodes = (
(766,30,o),
(729,0,o),
(680,-13,o),
(661,-13,q),
(615,-13,o),
(520,21,o),
(486,52,q),
(437,18,o),
(327,-8,o),
(268,-8,q),
(212,-8,o),
(110,34,o),
(46,118,o),
(46,179,q),
(46,228,o),
(87,315,o),
(154,387,o),
(192,414,q),
(179,447,o),
(161,517,o),
(161,554,q),
(161,584,o),
(183,641,o),
(202,665,q),
(232,701,o),
(319,733,o),
(365,733,q),
(397,733,o),
(459,709,o),
(499,660,o),
(499,624,q),
(499,585,o),
(452,525,o),
(385,480,o),
(355,463,q),
(342,456,o),
(318,440,o),
(307,431,q),
(327,383,o),
(389,276,o),
(464,179,o),
(503,143,q),
(522,174,o),
(533,249,o),
(533,283,q),
(533,296,o),
(524,340,o),
(505,377,o),
(489,377,q),
(485,377,o),
(476,376,o),
(472,376,q),
(463,376,o),
(463,383,q),
(463,393,o),
(470,417,o),
(483,417,q),
(515,417,o),
(579,422,o),
(610,429,q),
(634,435,o),
(655,450,q),
(661,455,o),
(686,483,o),
(711,507,o),
(716,507,q),
(736,507,o),
(736,488,q),
(736,484,o),
(723,450,o),
(708,417,o),
(705,412,q),
(700,404,o),
(694,397,o),
(684,394,q),
(679,393,o),
(658,393,o),
(653,393,q),
(625,393,o),
(570,389,o),
(542,387,q),
(561,382,o),
(600,351,o),
(627,310,o),
(627,289,q),
(627,232,o),
(592,142,o),
(551,102,q),
(581,77,o),
(667,37,o),
(707,37,q),
(723,37,o),
(752,47,o),
(766,53,q)
);
}
);
userData = {
public.verticalOrigin = 880;
};
vertWidth = 1000;
width = 758;
}
);
unicode = 38;
}
{
glyphname = quotesingle;
layers = (
{
layerId = m001;
shapes = (
{
closed = 1;
nodes = (
(190,712,o),
(180,648,o),
(177,625,q),
(173,595,o),
(165,533,o),
(159,503,q),
(157,496,o),
(149,479,o),
(139,479,q),
(129,479,o),
(121,496,o),
(119,503,q),
(112,534,o),
(103,600,o),
(100,631,q),
(99,647,o),
(95,677,o),
(93,693,q),
(92,703,o),
(88,724,o),
(88,734,q),
(88,757,o),
(118,780,o),
(140,780,q),
(160,780,o),
(190,755,o),
(190,734,q)
);
}
);
userData = {
public.verticalOrigin = 880;
};
vertWidth = 1000;
width = 280;
}
);
unicode = 39;
}
{
glyphname = parenleft;
layers = (
{
layerId = m001;
shapes = (
{
closed = 1;
nodes = (
(269,-35,o),
(128,209,o),
(128,369,q),
(128,536,o),
(269,788,o),
(409,876,q),
(423,848,l),
(403,832,o),
(369,794,o),
(355,774,q),
(316,717,o),
(271,581,o),
(252,438,o),
(252,369,q),
(252,312,o),
(268,184,o),
(307,57,o),
(373,-50,o),
(423,-86,q),
(409,-114,l)
);
}
);
userData = {
public.verticalOrigin = 880;
};
vertWidth = 1000;
width = 450;
}
);
unicode = 40;
}
{
glyphname = parenright;
layers = (
{
layerId = m001;
shapes = (
{
closed = 1;
nodes = (
(327,209,o),
(186,-35,o),
(46,-114,q),
(32,-86,l),
(82,-51,o),
(147,57,o),
(186,183,o),
(202,312,o),
(202,369,q),
(202,439,o),
(183,584,o),
(137,721,o),
(96,779,q),
(83,798,o),
(51,834,o),
(32,848,q),
(46,876,l),
(186,788,o),
(327,536,o),
(327,369,q)
);
}
);
userData = {
public.verticalOrigin = 880;
};
vertWidth = 1000;
width = 450;
}
);
unicode = 41;
}
{
glyphname = asterisk;
layers = (
{
layerId = m001;
shapes = (
{
closed = 1;
nodes = (
(396,518,o),
(372,491,o),
(355,491,q),
(345,491,o),
(333,496,q),
(330,498,o),
(302,526,o),
(265,564,o),
(234,597,o),
(228,602,q),
(231,593,o),
(243,550,o),
(257,501,o),
(267,463,o),
(267,457,q),
(267,439,o),
(243,417,o),
(225,417,q),
(208,417,o),
(184,439,o),
(184,457,q),
(184,461,o),
(194,500,o),
(207,550,o),
(219,593,o),
(221,601,q),
(214,594,o),
(185,562,o),
(151,527,o),
(123,499,o),
(117,496,q),
(108,490,o),
(95,490,q),
(79,490,o),
(55,518,o),
(55,534,q),
(55,545,o),
(67,562,o),
(76,567,q),
(79,569,o),
(118,580,o),
(167,593,o),
(210,604,o),
(218,606,q),
(211,608,o),
(166,621,o),
(113,635,o),
(74,647,o),
(71,648,q),
(54,658,o),
(54,677,q),
(54,694,o),
(82,723,o),
(100,723,q),
(108,723,o),
(115,717,q),
(124,710,o),
(141,692,o),
(149,684,q),
(185,647,o),
(222,611,q),
(219,623,o),
(207,666,o),
(194,715,o),
(184,754,o),
(184,761,q),
(184,779,o),
(210,795,o),
(225,795,q),
(239,795,o),
(267,777,o),
(267,761,q),
(267,755,o),
(257,716,o),
(243,666,o),
(231,622,o),
(228,612,q),
(235,618,o),
(268,651,o),
(305,689,o),
(335,717,o),
(339,719,q),
(347,724,o),
(356,724,q),
(374,724,o),
(394,694,o),
(394,677,q),
(394,667,o),
(387,651,o),
(376,647,q),
(366,643,o),
(342,637,o),
(331,634,q),
(306,627,o),
(257,614,o),
(232,606,q),
(241,603,o),
(284,593,o),
(332,581,o),
(370,570,o),
(375,567,q),
(396,557,o),
(396,534,q)
);
}
);
userData = {
public.verticalOrigin = 880;
};
vertWidth = 1000;
width = 450;
}
);
unicode = 42;
}
{
glyphname = plus;
layers = (
{
layerId = m001;
shapes = (
{
closed = 1;
nodes = (
(405,333,l),
(405,64,l),
(345,64,l),
(345,333,l),
(72,333,l),
(72,392,l),
(345,392,l),
(345,654,l),
(405,654,l),
(405,392,l),
(679,392,l),
(679,333,l)
);
}
);
userData = {
public.verticalOrigin = 880;
};
vertWidth = 1000;
width = 750;
}
);
unicode = 43;
}
{
glyphname = comma;
layers = (
{
layerId = m001;
shapes = (
{
closed = 1;
nodes = (
(252,23,o),
(226,-50,o),
(186,-117,o),
(165,-138,q),
(140,-130,l),
(157,-101,o),
(185,-21,o),
(186,13,q),
(175,6,o),
(161,6,q),
(137,6,o),
(100,45,o),
(100,69,q),
(100,103,o),
(140,144,o),
(174,144,q),
(216,144,o),
(252,90,o),
(252,52,q)
);
}
);
userData = {
public.verticalOrigin = 880;
};
vertWidth = 1000;
width = 350;
}
);
unicode = 44;
}
{
glyphname = hyphenminus;
layers = (
{
layerId = m001;
shapes = (
{
closed = 1;
nodes = (
(69,283,l),
(69,360,l),
(332,360,l),
(332,283,l)
);
}
);
userData = {
public.verticalOrigin = 880;
};
vertWidth = 1000;
width = 400;
}
);
unicode = 45;
}
{
glyphname = period;
layers = (
{
layerId = m001;
shapes = (
{
closed = 1;
nodes = (
(251,51,o),
(207,5,o),
(175,5,q),
(144,5,o),
(99,51,o),
(99,82,q),
(99,114,o),
(144,159,o),
(175,159,q),
(207,159,o),
(251,114,o),
(251,82,q)
);
}
);
userData = {
public.verticalOrigin = 880;
};
vertWidth = 1000;
width = 350;
}
);
unicode = 46;
}
{
glyphname = slash;
layers = (
{
layerId = m001;
shapes = (
{
closed = 1;
nodes = (
(82,-90,l),
(36,-67,l),
(418,837,l),
(464,814,l)
);
}
);
userData = {
public.verticalOrigin = 880;
};
vertWidth = 1000;
width = 500;
}
);
unicode = 47;
}
{
glyphname = zero;
layers = (
{
layerId = m001;
shapes = (
{
closed = 1;
nodes = (
(403,410,o),
(399,518,o),
(390,571,q),
(386,597,o),
(365,656,o),
(327,698,o),
(294,698,q),
(260,698,o),
(219,642,o),
(196,554,o),
(187,457,o),
(185,373,o),
(185,350,q),
(185,328,o),
(186,250,o),
(194,161,o),
(215,80,o),
(255,28,o),
(288,28,q),
(323,28,o),
(362,65,o),
(383,121,o),
(388,149,q),
(399,201,o),
(403,305,o),
(403,357,q)
);
},
{
closed = 1;
nodes = (
(539,304,o),
(514,175,o),
(456,65,o),
(356,-3,o),
(282,-3,q),
(214,-3,o),
(124,63,o),
(72,169,o),
(51,290,o),
(51,345,q),
(51,393,o),
(65,499,o),
(98,599,o),
(156,680,o),
(242,728,o),
(303,728,q),
(362,728,o),
(444,683,o),
(497,607,o),
(527,513,o),
(539,412,o),
(539,365,q)
);
}
);
userData = {
public.verticalOrigin = 880;
};
vertWidth = 1000;
width = 590;
}
);
unicode = 48;
}
{
glyphname = one;
layers = (
{
layerId = m001;
shapes = (
{
closed = 1;
nodes = (
(490,7,o),
(482,-5,o),
(475,-5,q),
(462,-5,o),
(434,-3,o),
(420,-2,q),
(397,0,o),
(349,0,o),
(325,0,q),
(268,0,o),
(211,-3,q),
(201,-4,o),
(181,-5,o),
(171,-5,q),
(152,-5,o),
(152,15,q),
(152,23,o),
(166,33,o),
(173,33,q),
(183,33,o),
(202,31,o),
(212,31,q),
(226,31,o),
(252,37,o),
(252,56,q),
(252,206,o),
(254,506,o),
(254,656,q),
(247,653,o),
(208,640,o),
(164,625,o),
(128,614,o),
(124,614,q),
(114,614,o),
(100,625,o),
(100,635,q),
(100,645,o),
(105,657,o),
(115,661,q),
(125,665,o),
(145,669,o),
(155,672,q),
(178,678,o),
(222,691,o),
(244,698,q),
(250,700,o),
(290,714,o),
(336,730,o),
(371,742,o),
(373,742,q),
(383,742,o),
(396,735,o),
(396,724,q),
(396,558,o),
(393,224,o),
(393,57,q),
(393,47,o),
(410,31,o),
(419,31,q),
(433,31,o),
(461,33,o),
(475,33,q),
(482,33,o),
(490,20,o),
(490,14,q)
);
}
);
userData = {
public.verticalOrigin = 880;
};
vertWidth = 1000;
width = 590;
}
);
unicode = 49;
}
{
glyphname = two;
layers = (
{
layerId = m001;
shapes = (
{
closed = 1;
nodes = (
(545,167,o),
(535,124,o),
(522,69,o),
(510,24,o),
(508,18,q),
(504,5,o),
(491,0,o),
(479,0,q),
(449,0,o),
(390,4,o),
(361,4,q),
(335,4,o),
(281,3,o),
(255,3,q),
(203,3,o),
(98,2,o),
(45,0,q),
(47,53,o),
(86,128,o),
(118,168,q),
(158,219,o),
(250,310,o),
(294,357,q),
(332,396,o),
(379,491,o),
(379,546,q),
(379,566,o),
(372,615,o),
(353,662,o),
(320,692,o),
(294,692,q),
(265,692,o),
(218,661,o),
(204,636,q),
(191,614,o),
(182,551,o),
(182,525,q),
(182,511,o),
(155,494,o),
(121,487,o),
(110,487,q),
(91,487,o),
(54,523,o),
(54,542,q),
(54,590,o),
(104,659,o),
(182,703,o),
(272,724,o),
(312,724,q),
(364,724,o),
(459,685,o),
(521,608,o),
(521,551,q),
(521,479,o),
(451,367,o),
(397,323,q),
(360,293,o),
(281,241,o),
(206,186,o),
(142,119,o),
(119,73,q),
(177,73,o),
(292,76,o),
(350,77,q),
(379,78,o),
(433,90,o),
(458,106,q),
(477,119,o),
(502,152,o),
(514,171,q),
(518,177,o),
(526,186,o),
(533,186,q),
(545,186,o),
(545,170,q)
);
}
);
userData = {
public.verticalOrigin = 880;
};
vertWidth = 1000;
width = 590;
}
);
unicode = 50;
}
{
glyphname = three;
layers = (
{
layerId = m001;
shapes = (
{
closed = 1;
nodes = (
(536,208,o),
(508,127,o),
(458,60,o),
(424,38,q),
(385,13,o),
(294,-9,o),
(248,-9,q),
(214,-9,o),
(142,6,o),
(81,42,o),
(62,73,q),
(56,83,o),
(48,106,o),
(48,118,q),
(48,132,o),
(71,154,o),
(103,166,o),
(115,166,q),
(129,166,o),
(168,154,o),
(168,136,q),
(168,112,o),
(180,60,o),
(211,24,o),
(241,24,q),
(284,24,o),
(343,61,o),
(378,122,o),
(393,195,o),
(393,232,q),
(393,267,o),
(369,334,o),
(319,377,o),
(279,377,q),
(263,377,o),
(230,373,o),
(214,371,q),
(210,370,o),
(201,368,o),
(196,368,q),
(189,368,o),
(180,382,o),
(180,389,q),
(180,403,o),
(203,406,o),
(213,406,q),
(228,406,o),
(260,407,o),
(274,411,q),
(324,425,o),
(370,512,o),
(370,559,q),
(370,587,o),
(356,653,o),
(319,700,o),
(283,700,q),
(243,700,o),
(197,655,o),
(178,589,o),
(178,555,q),
(178,544,o),
(156,529,o),
(128,522,o),
(119,522,q),
(93,522,o),
(65,559,o),
(65,583,q),
(65,595,o),
(81,630,o),
(88,640,q),
(113,676,o),
(185,716,o),
(268,732,o),
(308,732,q),
(355,732,o),
(447,698,o),
(507,628,o),
(507,574,q),
(507,530,o),
(464,460,o),
(396,412,o),
(356,401,q),
(405,396,o),
(486,367,o),
(536,304,o),
(536,247,q)
);
}
);
userData = {
public.verticalOrigin = 880;
};
vertWidth = 1000;
width = 590;
}
);
unicode = 51;
}
{
glyphname = four;
layers = (
{
layerId = m001;
shapes = (
{
closed = 1;
nodes = (
(298,580,o),
(263,525,o),
(216,448,o),
(166,366,o),
(123,295,o),
(96,249,o),
(96,248,q),
(96,245,o),
(100,245,q),
(303,245,l),
(303,305,o),
(303,425,o),
(303,485,q),
(303,589,l)
);
},
{
closed = 1;
nodes = (
(568,305,o),
(562,261,o),
(556,215,o),
(555,205,q),
(554,198,o),
(545,196,o),
(540,196,q),
(436,196,l),
(437,165,o),
(436,104,o),
(436,74,q),
(436,61,o),
(444,33,o),
(461,33,q),
(475,33,o),
(501,36,o),
(514,36,q),
(522,36,o),
(530,24,o),
(530,17,q),
(530,10,o),
(522,-2,o),
(514,-2,q),
(500,-2,o),
(471,-1,o),
(457,0,q),
(435,1,o),
(391,1,o),
(368,1,q),
(345,1,o),
(299,0,o),
(276,-1,q),
(264,-2,o),
(240,-3,o),
(227,-3,q),
(220,-3,o),
(208,6,o),
(208,14,q),
(208,28,o),
(224,34,o),
(235,34,q),
(243,34,o),
(260,33,o),
(268,33,q),
(289,33,o),
(303,51,o),
(303,70,q),
(303,102,o),
(302,165,o),
(302,196,q),
(41,196,l),
(23,196,o),
(23,211,q),
(23,220,o),
(29,227,q),
(52,268,o),
(102,347,o),
(127,387,q),
(178,470,o),
(277,638,o),
(328,720,q),
(339,738,o),
(360,738,q),
(372,738,o),
(397,739,o),
(410,739,q),
(419,739,o),
(437,734,o),
(437,722,q),
(437,245,l),
(480,245,l),
(506,245,o),
(537,290,o),
(547,309,q),
(549,314,o),
(553,321,o),
(559,321,q),
(568,321,o),
(568,311,q)
);
}
);
userData = {
public.verticalOrigin = 880;
};
vertWidth = 1000;
width = 590;
}
);
unicode = 52;
}
{
glyphname = five;
layers = (
{
layerId = m001;
shapes = (
{
closed = 1;
nodes = (
(539,174,o),
(466,60,o),
(342,-2,o),
(267,-2,q),
(226,-2,o),
(128,15,o),
(95,42,q),
(75,59,o),
(51,96,o),
(51,124,q),
(51,138,o),
(74,158,o),
(106,168,o),
(117,168,q),
(140,168,o),
(179,146,o),
(179,120,q),
(179,86,o),
(209,35,o),
(248,35,q),
(292,35,o),
(349,77,o),
(382,145,o),
(396,223,o),
(396,258,q),
(396,284,o),
(388,341,o),
(366,391,o),
(324,423,o),
(291,423,q),
(274,423,o),
(234,405,o),
(221,393,q),
(205,377,o),
(193,332,o),
(191,309,q),
(191,307,o),
(191,298,o),
(189,296,q),
(184,287,o),
(173,287,q),
(168,287,o),
(138,294,o),
(104,304,o),
(80,316,o),
(80,322,q),
(80,331,o),
(86,352,o),
(87,361,q),
(97,424,o),
(99,552,o),
(99,616,q),
(99,670,o),
(93,722,q),
(128,718,o),
(197,712,o),
(231,712,q),
(357,712,l),
(392,712,o),
(455,721,o),
(484,740,q),
(489,743,o),
(493,743,q),
(496,743,o),
(503,740,o),
(503,735,q),
(503,733,o),
(494,706,o),
(484,677,o),
(482,673,q),
(475,656,o),
(458,651,o),
(440,651,q),
(390,651,o),
(289,655,o),
(239,654,q),
(185,654,l),
(184,595,o),
(178,476,o),
(175,417,q),
(214,443,o),
(291,460,o),
(337,460,q),
(392,460,o),
(483,401,o),
(539,306,o),
(539,252,q)
);
}
);
userData = {
public.verticalOrigin = 880;
};
vertWidth = 1000;
width = 590;
}
);
unicode = 53;
}
{
glyphname = six;
layers = (
{
layerId = m001;
shapes = (
{
closed = 1;
nodes = (
(409,240,o),
(404,308,o),
(386,373,o),
(346,416,o),
(310,416,q),
(276,416,o),
(218,380,o),
(198,354,q),
(192,332,o),
(191,284,o),
(191,261,q),
(191,239,o),
(193,178,o),
(202,114,o),
(224,58,o),
(264,23,o),
(296,23,q),
(333,23,o),
(378,61,o),
(401,120,o),
(409,186,o),
(409,214,q)
);
},
{
closed = 1;
nodes = (
(547,159,o),
(477,50,o),
(358,-6,o),
(282,-6,q),
(224,-6,o),
(131,46,o),
(70,134,o),
(58,189,q),
(53,215,o),
(49,269,o),
(49,296,q),
(49,329,o),
(66,406,o),
(76,437,q),
(124,572,o),
(309,741,o),
(447,779,q),
(458,782,o),
(479,786,o),
(490,786,q),
(498,786,o),
(498,778,q),
(498,774,o),
(483,768,o),
(480,766,q),
(437,746,o),
(358,697,o),
(326,662,q),
(279,612,o),
(219,487,o),
(202,421,q),
(237,438,o),
(290,452,o),
(328,452,q),
(391,452,o),
(490,398,o),
(547,301,o),
(547,238,q)
);
}
);
userData = {
public.verticalOrigin = 880;
};
vertWidth = 1000;
width = 590;
}
);
unicode = 54;
}
{
glyphname = seven;
layers = (
{
layerId = m001;
shapes = (
{
closed = 1;
nodes = (
(497,640,o),
(427,539,o),
(404,481,q),
(366,383,o),
(340,173,o),
(337,68,q),
(337,46,o),
(329,7,o),
(304,-18,o),
(276,-18,q),
(195,-18,o),
(195,66,q),
(195,77,o),
(198,101,o),
(200,112,q),
(225,266,o),
(348,559,o),
(457,674,q),
(414,673,o),
(327,671,o),
(283,669,q),
(258,668,o),
(208,666,o),
(183,661,q),
(168,657,o),
(138,646,o),
(126,635,q),
(110,619,o),
(93,578,o),
(85,559,q),
(79,546,o),
(67,546,q),
(52,546,o),
(52,562,q),
(52,567,o),
(56,611,o),
(57,627,q),
(59,646,o),
(61,685,o),
(62,702,q),
(63,710,o),
(69,722,o),
(79,722,q),
(127,722,o),
(223,719,o),
(272,719,q),
(338,719,o),
(472,721,o),
(538,725,q),
(538,685,l)
);
}
);
userData = {
public.verticalOrigin = 880;
};
vertWidth = 1000;
width = 590;
}
);
unicode = 55;
}
{
glyphname = eight;
layers = (
{
layerId = m001;
shapes = (
{
closed = 1;
nodes = (
(417,274,o),
(327,359,o),
(254,381,q),
(205,350,o),
(156,251,o),
(156,194,q),
(156,152,o),
(181,74,o),
(239,25,o),
(288,25,q),
(315,25,o),
(340,39,q),
(383,62,o),
(417,146,o),
(417,191,q)
);
},
{
closed = 1;
nodes = (
(398,632,o),
(348,711,o),
(287,711,q),
(253,711,o),
(213,671,o),
(197,612,o),
(197,583,q),
(197,522,o),
(258,453,o),
(312,431,q),
(353,451,o),
(398,534,o),
(398,577,q)
);
},
{
closed = 1;
nodes = (
(553,153,o),
(484,49,o),
(367,-6,o),
(296,-6,q),
(250,-6,o),
(158,15,o),
(82,61,o),
(37,136,o),
(37,190,q),
(37,228,o),
(71,303,o),
(99,328,q),
(122,349,o),
(178,382,o),
(205,397,q),
(174,410,o),
(112,453,o),
(72,512,o),
(72,550,q),
(72,598,o),
(113,669,o),
(181,716,o),
(265,739,o),
(308,739,q),
(343,739,o),
(415,722,o),
(475,686,o),
(512,628,o),
(512,587,q),
(512,523,o),
(434,434,o),
(376,413,q),
(418,399,o),
(499,350,o),
(553,278,o),
(553,228,q)
);
}
);
userData = {
public.verticalOrigin = 880;
};
vertWidth = 1000;
width = 590;
}
);
unicode = 56;
}
{
glyphname = nine;
layers = (
{
layerId = m001;
shapes = (
{
closed = 1;
nodes = (
(399,469,o),
(398,532,o),
(389,601,o),
(368,660,o),
(327,697,o),
(294,697,q),
(257,697,o),
(212,659,o),
(189,600,o),
(181,534,o),
(181,506,q),
(181,481,o),
(186,412,o),
(204,347,o),
(244,304,o),
(280,304,q),
(315,304,o),
(372,341,o),
(392,366,q),
(397,386,o),
(399,426,o),
(399,446,q)
);
},
{
closed = 1;
nodes = (
(541,390,o),
(525,315,o),
(514,283,q),
(466,148,o),
(281,-21,o),
(143,-59,q),
(133,-62,o),
(111,-66,o),
(100,-66,q),
(92,-66,o),
(92,-58,q),
(92,-54,o),
(107,-47,o),
(110,-46,q),
(154,-26,o),
(232,23,o),
(264,58,q),
(311,108,o),
(372,233,o),
(388,299,q),
(354,283,o),
(300,268,o),
(262,268,q),
(200,268,o),
(100,323,o),
(43,419,o),
(43,482,q),
(43,561,o),
(113,670,o),
(233,726,o),
(308,726,q),
(366,726,o),
(459,674,o),
(521,586,o),
(532,531,q),
(537,505,o),
(541,451,o),
(541,424,q)
);
}
);
userData = {
public.verticalOrigin = 880;
};
vertWidth = 1000;
width = 590;
}
);
unicode = 57;
}
{
glyphname = colon;
layers = (
{
layerId = m001;
shapes = (
{
closed = 1;
nodes = (
(273,50,o),
(229,10,o),
(195,10,q),
(161,10,o),
(117,50,o),
(117,84,q),
(117,119,o),
(161,158,o),
(195,158,q),
(229,158,o),
(273,119,o),
(273,84,q)
);
},
{
closed = 1;
nodes = (
(273,408,o),
(229,368,o),
(195,368,q),
(161,368,o),
(117,408,o),
(117,442,q),
(117,477,o),
(161,517,o),
(195,517,q),
(229,517,o),
(273,477,o),
(273,442,q)
);
}
);
userData = {
public.verticalOrigin = 880;
};
vertWidth = 1000;
width = 390;
}
);
unicode = 58;
}
{
glyphname = semicolon;
layers = (
{
layerId = m001;
shapes = (
{
closed = 1;
nodes = (
(273,20,o),
(248,-52,o),
(209,-117,o),
(188,-137,q),
(159,-128,l),
(170,-111,o),
(192,-60,o),
(206,-7,o),
(205,13,q),
(197,8,o),
(178,5,o),
(168,5,q),
(149,5,o),
(118,42,o),
(118,61,q),
(118,96,o),
(160,141,o),
(196,141,q),
(239,141,o),
(273,87,o),
(273,49,q)
);
},
{
closed = 1;
nodes = (
(272,407,o),
(228,367,o),
(194,367,q),
(161,367,o),
(117,407,o),
(117,441,q),
(117,476,o),
(161,516,o),
(194,516,q),
(228,516,o),
(272,476,o),
(272,441,q)
);
}
);
userData = {
public.verticalOrigin = 880;
};
vertWidth = 1000;
width = 390;
}
);
unicode = 59;
}
{
glyphname = less;
layers = (
{
layerId = m001;
shapes = (
{
closed = 1;
nodes = (
(66,359,l),
(685,674,l),
(685,594,l),
(190,359,l),
(685,121,l),
(685,42,l)
);
}
);
userData = {
public.verticalOrigin = 880;
};
vertWidth = 1000;
width = 780;
}
);
unicode = 60;
}
{
glyphname = equal;
layers = (
{
layerId = m001;
shapes = (
{
closed = 1;
nodes = (
(73,257,l),
(73,312,l),
(678,312,l),
(678,257,l)
);
},
{
closed = 1;
nodes = (
(73,414,l),
(73,469,l),
(678,469,l),
(678,414,l)
);
}
);
userData = {
public.verticalOrigin = 880;
};
vertWidth = 1000;
width = 750;
}
);
unicode = 61;
}
{
glyphname = greater;
layers = (
{
layerId = m001;
shapes = (
{
closed = 1;
nodes = (
(66,42,l),
(66,121,l),
(561,359,l),
(66,594,l),
(66,674,l),
(685,359,l)
);
}
);
userData = {
public.verticalOrigin = 880;
};
vertWidth = 1000;
width = 780;
}
);
unicode = 62;
}
{
glyphname = question;
layers = (
{
layerId = m001;
shapes = (
{
closed = 1;
nodes = (
(356,23,o),
(312,-20,o),
(282,-20,q),
(252,-20,o),
(208,23,o),
(208,54,q),
(208,84,o),
(252,128,o),
(282,128,q),
(312,128,o),
(356,84,o),
(356,54,q)
);
},
{
closed = 1;
nodes = (
(508,537,o),
(469,466,o),
(440,443,q),
(412,421,o),
(363,396,o),
(324,361,o),
(309,322,q),
(299,296,o),
(295,218,o),
(294,189,q),
(260,189,l),
(257,209,o),
(253,251,o),
(253,271,q),
(253,292,o),
(256,334,o),
(260,354,q),
(268,386,o),
(296,429,o),
(329,464,o),
(359,503,o),
(378,558,o),
(378,599,q),
(378,645,o),
(336,715,o),
(284,715,q),
(238,715,o),
(172,659,o),
(172,611,q),
(172,598,o),
(182,573,o),
(182,559,q),
(182,527,o),
(135,502,o),
(107,502,q),
(82,502,o),
(52,540,o),
(52,564,q),
(52,582,o),
(63,617,o),
(72,633,q),
(105,692,o),
(224,742,o),
(289,742,q),
(343,742,o),
(443,710,o),
(508,637,o),
(508,574,q)
);
}
);
userData = {
public.verticalOrigin = 880;
};
vertWidth = 1000;
width = 560;
}
);
unicode = 63;
}
{
glyphname = at;
layers = (
{
layerId = m001;
shapes = (
{
closed = 1;
nodes = (
(540,449,o),
(532,478,o),
(514,500,o),
(500,500,q),
(475,500,o),
(439,462,o),
(414,402,o),
(399,336,o),
(392,276,o),
(392,258,q),
(392,242,o),
(402,197,o),
(426,162,o),
(446,162,q),
(461,162,o),
(481,185,o),
(487,197,q),
(490,204,o),
(503,252,o),
(518,316,o),
(531,380,o),
(540,429,o),
(540,437,q)
);
},
{
closed = 1;
nodes = (
(836,360,o),
(806,258,o),
(748,168,o),
(666,111,o),
(614,111,q),
(586,111,o),
(526,135,o),
(515,163,q),
(490,143,o),
(437,118,o),
(405,118,q),
(364,118,o),
(307,164,o),
(278,236,o),
(278,273,q),
(278,316,o),
(309,406,o),
(365,483,o),
(444,530,o),
(492,530,q),
(515,530,o),
(561,510,o),
(578,495,q),
(590,506,o),
(631,524,o),
(647,524,q),
(658,524,o),
(681,511,o),
(681,498,q),
(681,498,o),
(680,496,o),
(680,495,q),
(671,467,o),
(646,388,o),
(622,301,o),
(607,222,o),
(607,194,q),
(607,184,o),
(614,150,o),
(630,150,q),
(660,150,o),
(703,192,o),
(733,258,o),
(751,333,o),
(759,402,o),
(759,424,q),
(759,503,o),
(689,621,o),
(568,687,o),
(490,687,q),
(424,687,o),
(312,624,o),
(231,522,o),
(210,462,q),
(195,422,o),
(184,337,o),
(184,294,q),
(184,235,o),
(224,122,o),
(300,29,o),
(353,0,q),
(378,-13,o),
(433,-28,o),
(462,-28,q),
(516,-28,o),
(602,-9,o),
(684,28,o),
(729,56,q),
(733,59,o),
(741,59,q),
(746,59,o),
(756,50,o),
(756,44,q),
(756,35,o),
(746,24,o),
(740,19,q),
(706,-8,o),
(608,-45,o),
(505,-63,o),
(462,-63,q),
(382,-63,o),
(239,-21,o),
(128,73,o),
(95,150,q),
(82,182,o),
(65,253,o),
(65,287,q),
(65,378,o),
(130,534,o),
(246,651,o),
(401,716,o),
(492,716,q),
(587,716,o),
(743,645,o),
(836,506,o),
(836,405,q)
);
}
);
userData = {
public.verticalOrigin = 880;
};
vertWidth = 1000;
width = 900;
}
);
unicode = 64;
}
{
glyphname = B;
layers = (
{
layerId = m001;
shapes = (
{
closed = 1;
nodes = (
(503,241,o),
(486,320,o),
(437,374,o),
(387,374,q),
(353,374,o),
(286,371,o),
(252,371,q),
(252,58,l),
(252,30,o),
(281,20,o),
(303,20,q),
(315,20,o),
(340,20,o),
(352,21,q),
(402,24,o),
(469,74,o),
(503,154,o),
(503,201,q)
);
},
{
closed = 1;
nodes = (
(453,617,o),
(418,678,o),
(346,699,o),
(292,699,q),
(282,699,o),
(262,698,o),
(252,697,q),
(252,401,l),
(281,401,l),
(301,401,o),
(349,404,o),
(394,418,o),
(409,433,q),
(432,456,o),
(453,526,o),
(453,558,q)
);
},
{
closed = 1;
nodes = (
(646,150,o),
(583,45,o),
(519,18,q),
(483,2,o),
(394,-7,o),
(355,-7,q),
(346,-7,o),
(328,-7,o),
(319,-6,q),
(246,-3,o),
(172,-3,q),
(144,-3,o),
(88,-8,o),
(59,-8,q),
(55,-8,o),
(49,-1,o),
(49,3,q),
(49,15,o),
(68,20,o),
(94,24,o),
(116,44,o),
(118,72,q),
(119,84,o),
(119,108,o),
(119,120,q),
(119,247,o),
(118,500,o),
(118,627,q),
(118,671,o),
(88,691,o),
(47,691,q),
(40,691,o),
(29,701,o),
(29,708,q),
(29,727,o),
(50,727,q),
(70,727,o),
(112,723,o),
(132,723,q),
(183,723,o),
(285,730,o),
(336,734,q),
(346,735,o),
(365,736,o),
(374,736,q),
(431,736,o),
(532,709,o),
(595,637,o),
(595,569,q),
(595,530,o),
(554,460,o),
(523,437,q),
(513,428,o),
(489,415,o),
(476,409,q),
(474,408,o),
(463,403,o),
(463,399,q),
(463,396,o),
(474,393,o),
(476,392,q),
(492,388,o),
(522,379,o),
(537,371,q),
(583,349,o),
(646,271,o),
(646,218,q)
);
}
);
userData = {
public.verticalOrigin = 880;
};
vertWidth = 1000;
width = 694;
}
);
unicode = 66;
}
{
glyphname = C;
layers = (
{
layerId = m001;
shapes = (
{
closed = 1;
nodes = (
(708,163,o),
(698,145,o),
(696,140,q),
(683,117,o),
(629,67,o),
(606,51,q),
(559,18,o),
(455,-2,o),
(399,-2,q),
(290,-2,o),
(136,89,o),
(55,252,o),
(55,359,q),
(55,465,o),
(133,635,o),
(286,736,o),
(397,736,q),
(447,736,o),
(517,712,o),
(561,696,q),
(582,689,o),
(624,682,o),
(646,680,q),
(647,658,o),
(651,613,o),
(654,590,q),
(656,571,o),
(666,531,o),
(666,511,q),
(666,492,o),
(639,474,o),
(622,474,q),
(594,474,o),
(583,497,q),
(580,505,o),
(578,524,o),
(576,531,q),
(569,563,o),
(534,638,o),
(510,660,q),
(491,677,o),
(425,704,o),
(399,704,q),
(374,704,o),
(331,682,o),
(311,666,q),
(268,630,o),
(218,530,o),
(198,417,o),
(198,363,q),
(198,327,o),
(207,256,o),
(217,221,q),
(231,174,o),
(284,91,o),
(363,40,o),
(415,40,q),
(489,40,o),
(610,114,o),
(650,174,q),
(656,184,o),
(669,199,o),
(682,199,q),
(695,199,o),
(708,179,o),
(708,168,q)
);
}
);
userData = {
public.verticalOrigin = 880;
};
vertWidth = 1000;
width = 725;
}
);
unicode = 67;
}
{
glyphname = D;
layers = (
{
layerId = m001;
shapes = (
{
closed = 1;
nodes = (
(633,431,o),
(608,545,o),
(552,639,o),
(460,696,o),
(393,696,q),
(325,696,o),
(259,693,q),
(259,81,l),
(259,55,o),
(275,33,o),
(303,33,q),
(337,33,o),
(412,39,o),
(483,60,o),
(510,81,q),
(575,134,o),
(633,292,o),
(633,374,q)
);
},
{
closed = 1;
nodes = (
(778,324,o),
(740,200,o),
(667,95,o),
(613,59,q),
(578,36,o),
(484,7,o),
(387,-5,o),
(345,-5,q),
(310,-5,o),
(241,0,o),
(206,0,q),
(181,0,o),
(130,-1,o),
(104,-3,q),
(94,-4,o),
(76,-5,o),
(67,-5,q),
(49,-5,o),
(49,11,q),
(49,21,o),
(67,27,o),
(89,30,o),
(95,32,q),
(112,40,o),
(122,74,o),
(122,90,q),
(122,181,o),
(122,361,o),
(122,451,q),
(122,503,o),
(123,606,o),
(120,657,q),
(120,659,o),
(119,672,o),
(119,673,q),
(116,685,o),
(90,693,o),
(60,692,o),
(50,692,q),
(42,692,o),
(28,699,o),
(28,709,q),
(28,728,o),
(47,728,q),
(72,728,o),
(121,725,o),
(146,725,q),
(217,725,o),
(360,736,o),
(431,736,q),
(539,736,o),
(695,652,o),
(778,496,o),
(778,388,q)
);
}
);
userData = {
public.verticalOrigin = 880;
};
vertWidth = 1000;
width = 821;
}
);
unicode = 68;
}
{
glyphname = E;
layers = (
{
layerId = m001;
shapes = (
{
closed = 1;
nodes = (
(648,156,o),
(641,123,o),
(639,106,q),
(637,87,o),
(632,47,o),
(630,27,q),
(627,11,o),
(615,0,o),
(598,0,q),
(496,0,o),
(292,3,o),
(190,3,q),
(155,3,o),
(85,-4,o),
(50,-4,q),
(33,-4,o),
(33,13,q),
(33,30,o),
(63,31,o),
(80,33,q),
(100,35,o),
(125,62,o),
(125,104,q),
(125,643,l),
(125,659,o),
(114,689,o),
(94,689,q),
(82,689,o),
(58,688,o),
(46,688,q),
(21,688,o),
(21,712,q),
(21,724,o),
(37,731,o),
(47,731,q),
(76,731,o),
(132,728,o),
(160,728,q),
(254,728,o),
(442,731,o),
(536,731,q),
(554,731,o),
(590,734,o),
(608,736,q),
(610,720,o),
(615,688,o),
(617,672,q),
(620,653,o),
(631,611,o),
(631,591,q),
(631,579,o),
(611,564,o),
(600,564,q),
(576,564,o),
(568,585,q),
(553,632,o),
(494,695,o),
(441,695,q),
(261,695,l),
(261,401,l),
(299,401,o),
(372,403,o),
(409,406,q),
(446,409,o),
(480,418,q),
(494,421,o),
(525,431,o),
(539,431,q),
(551,431,o),
(551,420,q),
(551,413,o),
(544,385,o),
(542,378,q),
(537,365,o),
(527,360,o),
(514,360,q),
(490,360,o),
(467,363,q),
(429,367,o),
(351,370,o),
(312,370,q),
(290,370,o),
(261,347,o),
(261,323,q),
(261,77,l),
(261,53,o),
(274,33,o),
(299,33,q),
(326,33,o),
(392,33,o),
(461,39,o),
(521,59,o),
(541,79,q),
(558,96,o),
(590,152,o),
(600,174,q),
(605,186,o),
(615,195,o),
(628,195,q),
(640,195,o),
(648,183,o),
(648,172,q)
);
}
);
userData = {
public.verticalOrigin = 880;
};
vertWidth = 1000;
width = 674;
}
);
unicode = 69;
}
{
glyphname = F;
layers = (
{
layerId = m001;
shapes = (
{
closed = 1;
nodes = (
(598,578,o),
(578,567,o),
(569,567,q),
(558,567,o),
(541,576,o),
(538,588,q),
(525,630,o),
(471,693,o),
(423,693,q),
(265,693,l),
(265,392,l),
(280,392,o),
(310,392,o),
(325,392,q),
(362,392,o),
(437,396,o),
(473,404,q),
(487,408,o),
(517,418,o),
(532,418,q),
(544,418,o),
(544,407,q),
(544,399,o),
(537,373,o),
(534,365,q),
(530,352,o),
(519,347,o),
(506,347,q),
(460,347,o),
(370,357,o),
(324,357,q),
(303,357,o),
(265,340,o),
(265,314,q),
(265,82,l),
(265,52,o),
(287,30,o),
(325,29,o),
(347,29,q),
(355,29,o),
(368,22,o),
(368,13,q),
(368,-8,o),
(347,-8,q),
(342,-8,o),
(332,-8,o),
(327,-7,q),
(294,-5,o),
(228,-5,o),
(196,-5,q),
(163,-5,o),
(97,-10,o),
(64,-10,q),
(56,-10,o),
(42,-5,o),
(42,5,q),
(42,18,o),
(59,24,o),
(85,23,o),
(111,30,o),
(128,59,o),
(128,91,q),
(128,641,l),
(128,664,o),
(114,689,o),
(89,689,q),
(80,689,o),
(63,688,o),
(54,688,q),
(42,688,o),
(19,693,o),
(19,709,q),
(19,718,o),
(31,728,o),
(39,728,q),
(74,728,o),
(143,725,o),
(177,725,q),
(325,725,o),
(472,728,q),
(498,729,o),
(552,731,o),
(578,735,q),
(582,706,o),
(590,648,o),
(594,619,q),
(595,612,o),
(598,596,o),
(598,588,q)
);
}
);
userData = {
public.verticalOrigin = 880;
};
vertWidth = 1000;
width = 610;
}
);
unicode = 70;
}
{
glyphname = G;
layers = (
{
layerId = m001;
shapes = (
{
closed = 1;
nodes = (
(760,296,o),
(753,282,o),
(743,282,q),
(692,282,l),
(692,75,l),
(657,63,o),
(589,34,o),
(555,18,q),
(521,2,o),
(442,-6,o),
(404,-6,q),
(371,-6,o),
(295,8,o),
(223,35,o),
(196,54,q),
(123,107,o),
(56,271,o),
(56,358,q),
(56,437,o),
(105,575,o),
(198,679,o),
(329,738,o),
(411,738,q),
(476,738,o),
(539,718,q),
(548,715,o),
(585,701,o),
(622,688,o),
(628,688,q),
(643,688,o),
(655,710,o),
(666,732,o),
(677,732,q),
(683,732,o),
(694,726,o),
(694,719,q),
(694,673,o),
(697,583,o),
(697,537,q),
(697,523,o),
(678,505,o),
(664,505,q),
(647,505,o),
(634,520,o),
(629,535,q),
(604,612,o),
(499,706,o),
(415,706,q),
(375,706,o),
(309,668,o),
(260,607,o),
(226,535,o),
(217,501,q),
(208,467,o),
(200,395,o),
(200,359,q),
(200,324,o),
(208,254,o),
(218,220,q),
(231,174,o),
(283,90,o),
(362,36,o),
(414,36,q),
(433,36,o),
(482,46,o),
(527,66,o),
(557,99,o),
(557,123,q),
(557,255,l),
(557,263,o),
(548,279,o),
(539,279,q),
(525,279,o),
(496,276,o),
(482,276,q),
(474,276,o),
(463,295,o),
(463,302,q),
(463,309,o),
(475,319,o),
(482,319,q),
(496,319,o),
(525,318,o),
(539,318,q),
(573,318,o),
(640,319,o),
(674,320,q),
(692,321,o),
(728,324,o),
(746,324,q),
(754,324,o),
(760,311,o),
(760,304,q)
);
}
);
userData = {
public.verticalOrigin = 880;
};
vertWidth = 1000;
width = 781;
}
);
unicode = 71;
}
{
glyphname = H;
layers = (
{
layerId = m001;
shapes = (
{
closed = 1;
nodes = (
(805,708,o),
(797,696,o),
(789,696,q),
(776,696,o),
(751,698,o),
(737,698,q),
(727,698,o),
(721,680,o),
(721,672,q),
(721,608,o),
(720,481,o),
(720,416,q),
(720,325,o),
(721,144,o),
(721,53,q),
(721,45,o),
(727,27,o),
(737,27,q),
(751,27,o),
(776,29,o),
(789,29,q),
(797,29,o),
(803,15,o),
(803,8,q),
(803,-7,o),
(787,-7,q),
(779,-7,o),
(763,-5,o),
(755,-5,q),
(740,-3,o),
(710,-3,o),
(695,-3,q),
(660,-3,o),
(591,-3,o),
(556,-5,q),
(546,-5,o),
(525,-7,o),
(514,-7,q),
(504,-7,o),
(497,5,o),
(497,13,q),
(497,21,o),
(509,29,o),
(516,29,q),
(527,29,o),
(546,27,o),
(556,27,q),
(571,27,o),
(582,38,o),
(582,53,q),
(582,364,l),
(253,364,l),
(253,51,l),
(253,36,o),
(265,25,o),
(279,25,q),
(289,25,o),
(309,27,o),
(319,27,q),
(327,27,o),
(339,20,o),
(339,11,q),
(339,-8,o),
(321,-8,q),
(284,-8,o),
(211,-3,o),
(175,-3,q),
(157,-3,o),
(120,-3,o),
(102,-4,q),
(89,-5,o),
(64,-8,o),
(51,-8,q),
(44,-8,o),
(37,5,o),
(37,10,q),
(37,15,o),
(45,27,o),
(51,27,q),
(64,27,o),
(89,25,o),
(102,25,q),
(113,25,o),
(119,43,o),
(119,51,q),
(119,150,o),
(119,348,o),
(119,447,q),
(119,503,o),
(119,616,o),
(119,671,q),
(119,679,o),
(113,697,o),
(102,697,q),
(89,697,o),
(64,695,o),
(51,695,q),
(35,695,o),
(35,713,q),
(35,720,o),
(43,732,o),
(51,732,q),
(77,732,o),
(128,728,o),
(154,728,q),
(195,728,o),
(278,732,o),
(319,732,q),
(338,732,o),
(338,713,q),
(338,700,o),
(317,696,o),
(308,696,q),
(301,696,o),
(287,697,o),
(279,697,q),
(266,697,o),
(253,681,o),
(253,668,q),
(253,397,l),
(582,397,l),
(582,672,l),
(582,687,o),
(571,698,o),
(556,698,q),
(546,698,o),
(527,696,o),
(516,696,q),
(510,696,o),
(497,706,o),
(497,713,q),
(497,732,o),
(516,732,q),
(528,732,o),
(552,730,o),
(564,729,q),
(587,728,o),
(633,727,o),
(656,727,q),
(689,727,o),
(756,732,o),
(789,732,q),
(797,732,o),
(805,722,o),
(805,715,q)
);
}
);
userData = {
public.verticalOrigin = 880;
};
vertWidth = 1000;
width = 837;
}
);
unicode = 72;
}
{
glyphname = I;
layers = (
{
layerId = m001;
shapes = (
{
closed = 1;
nodes = (
(345,696,o),
(329,696,q),
(317,696,o),
(292,697,o),
(280,697,q),
(270,697,o),
(262,680,o),
(262,671,q),
(262,636,o),
(261,565,o),
(261,530,q),
(261,420,o),
(262,199,o),
(262,89,q),
(262,82,o),
(260,52,o),
(267,27,o),
(278,27,q),
(291,27,o),
(317,29,o),
(330,29,q),
(337,29,o),
(343,18,o),
(343,11,q),
(343,4,o),
(334,-7,o),
(326,-7,q),
(292,-7,o),
(225,-5,o),
(191,-5,q),
(157,-5,o),
(89,-7,o),
(55,-7,q),
(45,-7,o),
(39,1,o),
(39,10,q),
(39,18,o),
(46,29,o),
(54,29,q),
(65,29,o),
(87,27,o),
(97,27,q),
(111,27,o),
(121,45,o),
(123,70,o),
(123,79,q),
(124,653,l),
(124,662,o),
(120,697,o),
(108,698,q),
(105,698,o),
(100,698,o),
(97,698,q),
(87,698,o),
(68,696,o),
(58,696,q),
(39,696,o),
(39,715,q),
(39,722,o),
(48,732,o),
(55,732,q),
(98,732,o),
(183,728,o),
(226,728,q),
(252,728,o),
(305,732,o),
(331,732,q),
(339,732,o),
(345,720,o),
(345,713,q)
);
}
);
userData = {
public.verticalOrigin = 880;
};
vertWidth = 1000;
width = 413;
}
);
unicode = 73;
}
{
glyphname = J;
layers = (
{
layerId = m001;
shapes = (
{
closed = 1;
nodes = (
(428,707,o),
(417,695,o),
(409,695,q),
(399,695,o),
(377,696,o),
(366,696,q),
(349,696,o),
(335,674,o),
(334,645,o),
(334,632,q),
(333,499,o),
(334,232,o),
(334,98,q),
(334,20,o),
(292,-106,o),
(191,-181,o),
(103,-181,q),
(82,-181,o),
(38,-180,o),
(17,-176,q),
(1,-172,o),
(-39,-152,o),
(-69,-121,o),
(-69,-103,q),
(-69,-73,o),
(-19,-47,o),
(6,-47,q),
(27,-47,o),
(72,-67,o),
(72,-93,q),
(64,-97,o),
(46,-112,o),
(46,-123,q),
(46,-134,o),
(66,-147,o),
(93,-151,o),
(101,-151,q),
(137,-151,o),
(175,-116,o),
(189,-61,o),
(190,0,o),
(190,25,q),
(190,632,l),
(190,642,o),
(189,671,o),
(180,695,o),
(167,697,q),
(164,698,o),
(157,698,o),
(153,698,q),
(140,698,o),
(115,695,o),
(101,695,q),
(94,695,o),
(85,707,o),
(85,714,q),
(85,721,o),
(93,734,o),
(101,734,q),
(113,734,o),
(138,733,o),
(150,732,q),
(177,731,o),
(231,730,o),
(259,730,q),
(297,730,o),
(372,734,o),
(409,734,q),
(428,734,o),
(428,714,q)
);
}
);
userData = {
public.verticalOrigin = 880;
};
vertWidth = 1000;
width = 456;
}
);
unicode = 74;
}
{
glyphname = K;
layers = (
{
layerId = m001;
shapes = (
{
closed = 1;
nodes = (
(721,15,o),
(721,10,o),
(720,8,q),
(716,0,o),
(704,0,q),
(682,0,o),
(639,0,o),
(617,0,q),
(553,0,l),
(525,0,o),
(498,18,o),
(483,40,q),
(426,122,o),
(312,285,o),
(254,367,q),
(241,357,l),
(242,282,o),
(242,132,o),
(242,58,q),
(242,49,o),
(251,32,o),
(261,32,q),
(274,32,o),
(300,34,o),
(313,34,q),
(320,34,o),
(327,22,o),
(327,16,q),
(327,11,o),
(319,-2,o),
(313,-2,q),
(289,-2,o),
(242,1,o),
(219,1,q),
(185,1,o),
(118,2,o),
(85,0,q),
(72,-1,o),
(46,-2,o),
(32,-2,q),
(23,-2,o),
(15,10,o),
(15,18,q),
(15,34,o),
(32,34,q),
(44,34,o),
(67,32,o),
(78,32,q),
(98,32,o),
(106,54,o),
(106,70,q),
(106,645,l),
(106,679,o),
(95,702,o),
(65,703,o),
(36,703,q),
(30,703,o),
(17,710,o),
(17,717,q),
(17,724,o),
(23,736,o),
(31,736,q),
(53,736,o),
(96,733,o),
(118,733,q),
(153,733,o),
(223,733,o),
(257,733,q),
(271,733,o),
(300,736,o),
(314,736,q),
(320,736,o),
(327,725,o),
(327,720,q),
(327,715,o),
(320,703,o),
(314,703,q),
(301,703,o),
(275,704,o),
(262,704,q),
(252,704,o),
(242,688,o),
(242,679,q),
(242,643,o),
(241,570,o),
(241,534,q),
(241,399,l),
(312,467,o),
(445,607,o),
(505,684,q),
(516,697,o),
(520,715,q),
(524,729,o),
(532,735,o),
(546,735,q),
(576,734,l),
(599,734,o),
(645,736,o),
(668,736,q),
(685,736,o),
(685,719,q),
(685,706,o),
(669,701,o),
(659,701,q),
(639,701,o),
(602,684,o),
(587,670,q),
(349,443,l),
(420,343,o),
(569,149,o),
(645,54,q),
(659,37,o),
(695,29,o),
(721,26,o),
(721,16,q)
);
}
);
userData = {
public.verticalOrigin = 880;
};
vertWidth = 1000;
width = 722;
}
);
unicode = 75;
}
{
glyphname = L;
layers = (
{
layerId = m001;
shapes = (
{
closed = 1;
nodes = (
(653,214,o),
(649,182,o),
(647,165,q),
(643,130,o),
(633,60,o),
(630,25,q),
(630,15,o),
(626,8,q),
(621,1,o),
(601,-2,o),
(593,-2,q),
(581,-2,o),
(557,-1,o),
(544,-1,q),
(481,0,o),
(355,0,o),
(292,0,q),
(178,0,l),
(156,0,o),
(113,0,o),
(91,-1,q),
(80,-2,o),
(58,-3,o),
(47,-3,q),
(38,-3,o),
(25,7,o),
(25,16,q),
(25,26,o),
(38,36,o),
(46,36,q),
(54,36,o),
(71,34,o),
(79,34,q),
(95,34,o),
(113,43,o),
(113,61,q),
(113,216,o),
(113,527,o),
(112,681,q),
(112,693,o),
(103,700,o),
(92,700,q),
(81,700,o),
(58,698,o),
(46,698,q),
(39,698,o),
(27,708,o),
(27,716,q),
(27,735,o),
(47,735,q),
(58,735,o),
(82,733,o),
(94,732,q),
(118,731,o),
(165,730,o),
(189,730,q),
(209,730,o),
(248,730,o),
(267,731,q),
(281,732,o),
(307,735,o),
(320,735,q),
(336,735,o),
(336,718,q),
(336,711,o),
(328,698,o),
(320,698,q),
(307,698,o),
(282,700,o),
(268,700,q),
(257,700,o),
(252,689,o),
(252,679,q),
(252,642,o),
(251,570,o),
(251,533,q),
(251,417,o),
(252,183,o),
(252,67,q),
(252,57,o),
(262,39,o),
(272,36,q),
(285,33,o),
(313,33,o),
(326,33,q),
(401,33,o),
(511,63,o),
(588,144,o),
(613,221,q),
(616,230,o),
(626,245,o),
(636,245,q),
(642,245,o),
(653,237,o),
(653,230,q)
);
}
);
userData = {
public.verticalOrigin = 880;
};
vertWidth = 1000;
width = 670;
}
);
unicode = 76;
}
{
glyphname = M;
layers = (
{
layerId = m001;
shapes = (
{
closed = 1;
nodes = (
(928,-3,o),
(911,-3,q),
(875,-3,o),
(804,-1,o),
(769,-1,q),
(735,-1,o),
(667,-4,o),
(633,-4,q),
(623,-4,o),
(615,9,o),
(615,17,q),
(615,25,o),
(628,34,o),
(635,34,q),
(644,34,o),
(662,32,o),
(671,32,q),
(673,32,o),
(679,32,o),
(681,32,q),
(698,34,o),
(701,69,o),
(701,81,q),
(701,601,l),
(644,459,o),
(527,178,o),
(471,35,q),
(393,35,l),
(336,183,o),
(215,475,o),
(157,623,q),
(157,486,o),
(161,213,o),
(161,76,q),
(161,64,o),
(164,31,o),
(181,31,q),
(194,31,o),
(218,33,o),
(231,33,q),
(238,33,o),
(248,22,o),
(248,15,q),
(248,10,o),
(240,-3,o),
(234,-3,q),
(216,-3,o),
(180,-1,o),
(162,-1,q),
(130,-1,o),
(64,-3,o),
(32,-3,q),
(22,-3,o),
(16,8,o),
(16,17,q),
(16,25,o),
(29,33,o),
(35,33,q),
(44,33,o),
(63,31,o),
(72,31,q),
(89,31,o),
(104,40,o),
(104,59,q),
(104,211,o),
(107,516,o),
(107,668,q),
(107,684,o),
(96,699,o),
(79,699,q),
(69,699,o),
(49,697,o),
(39,697,q),
(31,697,o),
(19,709,o),
(19,717,q),
(19,736,o),
(39,736,q),
(63,736,o),
(112,734,o),
(136,734,q),
(165,734,o),
(224,734,o),
(253,737,q),
(476,185,l),
(530,322,o),
(649,593,o),
(694,734,q),
(717,733,o),
(764,732,o),
(788,732,q),
(819,732,o),
(882,736,o),
(913,736,q),
(921,736,o),
(927,723,o),
(927,717,q),
(927,711,o),
(921,696,o),
(913,696,q),
(899,696,o),
(870,697,o),
(856,697,q),
(846,697,o),
(837,680,o),
(837,671,q),
(837,613,o),
(836,494,o),
(836,435,q),
(836,347,o),
(837,171,o),
(837,83,q),
(837,74,o),
(840,50,o),
(851,31,o),
(863,31,q),
(875,31,o),
(899,33,o),
(912,33,q),
(918,33,o),
(928,25,o),
(928,18,q)
);
}
);
userData = {
public.verticalOrigin = 880;
};
vertWidth = 1000;
width = 947;
}
);
unicode = 77;
}
{
glyphname = O;
layers = (
{
layerId = m001;
shapes = (
{
closed = 1;
nodes = (
(617,401,o),
(605,494,o),
(577,586,o),
(529,663,o),
(458,710,o),
(409,710,q),
(360,710,o),
(288,663,o),
(239,586,o),
(209,494,o),
(196,401,o),
(196,363,q),
(196,325,o),
(210,234,o),
(240,143,o),
(289,68,o),
(361,23,o),
(409,23,q),
(459,23,o),
(530,68,o),
(577,142,o),
(605,232,o),
(617,324,o),
(617,363,q)
);
},
{
closed = 1;
nodes = (
(762,252,o),
(682,84,o),
(525,-8,o),
(409,-8,q),
(295,-8,o),
(137,85,o),
(55,252,o),
(55,363,q),
(55,441,o),
(104,578,o),
(197,682,o),
(328,740,o),
(409,740,q),
(523,740,o),
(681,645,o),
(762,476,o),
(762,365,q)
);
}
);
userData = {
public.verticalOrigin = 880;
};
vertWidth = 1000;
width = 820;
}
);
unicode = 79;
}
{
glyphname = P;
layers = (
{
layerId = m001;
shapes = (
{
closed = 1;
nodes = (
(465,591,o),
(437,661,o),
(378,702,o),
(333,702,q),
(323,702,o),
(303,703,o),
(293,703,q),
(268,703,o),
(254,694,o),
(254,666,q),
(254,598,o),
(254,460,o),
(255,392,q),
(270,379,o),
(310,372,o),
(329,372,q),
(381,372,o),
(440,423,o),
(465,505,o),
(465,549,q)
);
},
{
closed = 1;
nodes = (
(609,486,o),
(563,403,o),
(484,357,o),
(383,340,o),
(327,340,q),
(309,340,o),
(273,344,o),
(255,346,q),
(255,273,o),
(255,128,o),
(255,55,q),
(255,47,o),
(262,29,o),
(272,29,q),
(285,29,o),
(310,31,o),
(323,31,q),
(330,31,o),
(339,15,o),
(339,10,q),
(339,3,o),
(329,-5,o),
(323,-5,q),
(310,-5,o),
(284,-3,o),
(270,-2,q),
(250,0,o),
(208,0,o),
(188,0,q),
(140,0,o),
(93,-3,q),
(82,-4,o),
(61,-5,o),
(50,-5,q),
(40,-5,o),
(34,8,o),
(34,15,q),
(34,23,o),
(46,30,o),
(53,30,q),
(62,30,o),
(80,28,o),
(90,28,q),
(92,28,o),
(98,28,o),
(100,28,q),
(114,29,o),
(119,59,o),
(119,69,q),
(119,658,l),
(119,666,o),
(115,697,o),
(103,698,q),
(100,698,o),
(95,698,o),
(93,698,q),
(83,698,o),
(63,696,o),
(53,696,q),
(46,696,o),
(33,708,o),
(33,715,q),
(33,722,o),
(46,734,o),
(53,734,q),
(64,734,o),
(87,732,o),
(98,731,q),
(121,730,o),
(166,729,o),
(188,729,q),
(234,729,o),
(325,734,o),
(371,734,q),
(415,734,o),
(500,715,o),
(568,673,o),
(609,603,o),
(609,552,q)
);
}
);
userData = {
public.verticalOrigin = 880;
};
vertWidth = 1000;
width = 624;
}
);
unicode = 80;
}
{
glyphname = Q;
layers = (
{
layerId = m001;
shapes = (
{
closed = 1;
nodes = (
(418,58,o),
(391,122,o),
(377,155,q),
(373,163,o),
(364,179,o),
(358,185,q),
(347,196,o),
(333,196,q),
(316,196,o),
(290,167,o),
(274,129,o),
(271,115,q),
(283,94,o),
(333,53,o),
(392,25,o),
(416,25,q),
(421,25,o),
(430,26,o),
(434,26,q)
);
},
{
closed = 1;
nodes = (
(612,406,o),
(594,518,o),
(552,623,o),
(478,698,o),
(422,708,q),
(418,709,o),
(411,709,o),
(407,709,q),
(403,709,o),
(397,709,o),
(393,708,q),
(339,698,o),
(268,622,o),
(225,516,o),
(207,404,o),
(207,358,q),
(207,329,o),
(212,259,o),
(228,191,o),
(242,165,q),
(253,179,o),
(290,214,o),
(333,240,o),
(352,240,q),
(396,240,o),
(447,212,o),
(472,175,q),
(488,151,o),
(512,100,o),
(524,74,q),
(563,110,o),
(601,204,o),
(612,308,o),
(612,358,q)
);
},
{
closed = 1;
nodes = (
(796,-48,o),
(794,-52,q),
(769,-88,o),
(699,-121,o),
(655,-121,q),
(620,-121,o),
(556,-110,o),
(527,-88,q),
(505,-71,o),
(466,-25,o),
(450,-2,q),
(441,-3,o),
(422,-3,o),
(413,-3,q),
(334,-3,o),
(206,52,o),
(114,151,o),
(65,284,o),
(65,361,q),
(65,440,o),
(112,578,o),
(203,682,o),
(333,740,o),
(415,740,q),
(532,740,o),
(684,640,o),
(759,468,o),
(759,358,q),
(759,290,o),
(711,162,o),
(623,59,o),
(562,27,q),
(578,7,o),
(622,-40,o),
(674,-72,o),
(701,-72,q),
(721,-72,o),
(752,-51,o),
(775,-31,o),
(782,-31,q),
(787,-31,o),
(796,-39,o),
(796,-45,q)
);
}
);
userData = {
public.verticalOrigin = 880;
};
vertWidth = 1000;
width = 820;
}
);
unicode = 81;
}
{
glyphname = R;
layers = (
{
layerId = m001;
shapes = (
{
closed = 1;
nodes = (
(462,624,o),
(397,704,o),
(320,704,q),
(302,704,l),
(294,704,o),
(276,704,o),
(268,702,q),
(258,699,o),
(252,687,o),
(252,676,q),
(252,618,o),
(251,503,o),
(251,444,q),
(251,403,l),
(258,402,o),
(272,401,o),
(279,401,q),
(331,401,o),
(414,426,o),
(462,491,o),
(462,550,q)
);
},
{
closed = 1;
nodes = (
(716,5,o),
(683,-4,o),
(638,-7,o),
(598,-8,o),
(591,-8,q),
(553,-8,o),
(492,8,o),
(471,45,q),
(425,125,o),
(337,290,o),
(293,372,q),
(251,373,l),
(251,294,o),
(252,135,o),
(252,55,q),
(252,46,o),
(262,29,o),
(272,29,q),
(284,29,o),
(308,31,o),
(320,31,q),
(325,31,o),
(334,18,o),
(334,13,q),
(334,6,o),
(327,-4,o),
(320,-4,q),
(311,-4,o),
(295,-2,o),
(287,-2,q),
(269,0,o),
(233,0,o),
(215,0,q),
(172,0,o),
(85,-4,o),
(41,-4,q),
(24,-4,o),
(24,14,q),
(24,21,o),
(36,30,o),
(43,30,q),
(53,30,o),
(73,28,o),
(83,28,q),
(97,28,o),
(117,38,o),
(117,54,q),
(117,672,l),
(117,687,o),
(105,698,o),
(91,698,q),
(81,698,o),
(61,696,o),
(51,696,q),
(44,696,o),
(29,706,o),
(29,714,q),
(29,733,o),
(51,733,q),
(61,733,o),
(81,732,o),
(91,731,q),
(111,730,o),
(153,729,o),
(173,729,q),
(221,729,o),
(316,736,o),
(363,736,q),
(404,736,o),
(490,721,o),
(565,683,o),
(611,618,o),
(611,568,q),
(611,507,o),
(562,433,o),
(477,393,o),
(423,382,q),
(467,302,o),
(569,148,o),
(621,73,q),
(635,54,o),
(679,25,o),
(702,25,q),
(709,25,o),
(716,22,o),
(716,14,q)
);
}
);
userData = {
public.verticalOrigin = 880;
};
vertWidth = 1000;
width = 707;
}
);
unicode = 82;
}
{
glyphname = S;
layers = (
{
layerId = m001;
shapes = (
{
closed = 1;
nodes = (
(562,126,o),
(510,49,o),
(425,5,o),
(325,-13,o),
(277,-13,q),
(240,-13,o),
(172,8,o),
(137,21,q),
(120,27,o),
(87,30,o),
(69,30,q),
(66,54,o),
(60,101,o),
(56,125,q),
(54,142,o),
(48,174,o),
(48,190,q),
(48,204,o),
(59,222,o),
(74,222,q),
(88,222,o),
(103,211,o),
(107,198,q),
(114,180,o),
(123,142,o),
(130,123,q),
(147,76,o),
(224,20,o),
(276,20,q),
(346,20,o),
(421,101,o),
(421,170,q),
(421,210,o),
(387,263,o),
(333,301,o),
(302,318,q),
(273,334,o),
(213,362,o),
(184,377,q),
(152,394,o),
(91,445,o),
(52,512,o),
(52,551,q),
(52,617,o),
(121,703,o),
(230,745,o),
(289,745,q),
(327,745,o),
(398,724,o),
(432,710,q),
(443,706,o),
(462,702,o),
(473,702,q),
(481,702,o),
(495,703,o),
(502,704,q),
(505,672,o),
(513,608,o),
(517,576,q),
(518,571,o),
(519,560,o),
(519,555,q),
(519,541,o),
(507,518,o),
(490,518,q),
(477,518,o),
(465,530,o),
(460,541,q),
(448,572,o),
(426,632,o),
(405,658,q),
(383,686,o),
(317,713,o),
(282,713,q),
(248,713,o),
(202,676,o),
(180,618,o),
(180,587,q),
(180,539,o),
(231,486,o),
(269,464,q),
(290,453,o),
(333,432,o),
(354,422,q),
(404,399,o),
(499,334,o),
(562,245,o),
(562,184,q)
);
}
);
userData = {
public.verticalOrigin = 880;
};
vertWidth = 1000;
width = 594;
}
);
unicode = 83;
}
{
glyphname = T;
layers = (
{
layerId = m001;
shapes = (
{
closed = 1;
nodes = (
(684,541,o),
(674,524,o),
(663,524,q),
(647,524,o),
(636,538,o),
(632,551,q),
(629,565,o),
(616,606,o),
(601,647,o),
(593,658,q),
(589,664,o),
(579,675,o),
(574,680,q),
(567,689,o),
(531,696,o),
(493,697,o),
(482,697,q),
(469,697,o),
(439,697,o),
(417,684,o),
(416,666,q),
(415,632,o),
(415,561,o),
(415,526,q),
(415,412,o),
(416,184,o),
(416,70,q),
(416,58,o),
(423,26,o),
(439,26,q),
(454,26,o),
(483,28,o),
(498,28,q),
(506,28,o),
(514,15,o),
(514,9,q),
(514,-9,o),
(497,-9,q),
(486,-9,o),
(463,-7,o),
(452,-6,q),
(433,-4,o),
(395,-4,o),
(375,-4,q),
(342,-4,o),
(276,-4,o),
(243,-6,q),
(231,-7,o),
(206,-9,o),
(194,-9,q),
(185,-9,o),
(175,3,o),
(175,11,q),
(175,22,o),
(193,27,o),
(201,27,q),
(212,27,o),
(231,26,o),
(241,26,q),
(267,26,o),
(274,50,o),
(274,72,q),
(274,630,l),
(274,669,o),
(266,696,o),
(232,697,o),
(193,697,q),
(180,697,o),
(135,695,o),
(124,689,q),
(111,682,o),
(95,659,o),
(90,645,q),
(82,622,o),
(67,574,o),
(59,551,q),
(55,537,o),
(43,524,o),
(27,524,q),
(8,524,o),
(8,544,q),
(8,570,o),
(19,637,o),
(20,666,q),
(21,682,o),
(20,715,o),
(23,730,q),
(24,737,o),
(30,737,q),
(41,737,o),
(64,731,o),
(75,729,q),
(87,728,o),
(112,727,o),
(125,726,q),
(178,725,o),
(293,724,o),
(345,724,q),
(404,724,o),
(534,726,o),
(593,726,q),
(599,726,o),
(612,726,o),
(618,727,q),
(629,729,o),
(650,737,o),
(661,737,q),
(666,737,o),
(668,732,q),
(671,718,o),
(673,681,o),
(674,667,q),
(677,639,o),
(684,580,o),
(684,551,q)
);
}
);
userData = {
public.verticalOrigin = 880;
};
vertWidth = 1000;
width = 690;
}
);
unicode = 84;
}
{
glyphname = V;
layers = (
{
layerId = m001;
shapes = (
{
closed = 1;
nodes = (
(750,695,o),
(730,695,q),
(720,695,o),
(700,697,o),
(691,697,q),
(681,697,o),
(665,675,o),
(662,666,q),
(646,625,o),
(621,541,o),
(607,499,q),
(582,419,o),
(528,261,o),
(501,181,q),
(488,143,o),
(463,67,o),
(450,29,q),
(446,18,o),
(430,-5,o),
(416,-5,q),
(328,-7,l),
(292,106,o),
(207,340,o),
(166,455,q),
(153,493,o),
(128,557,o),
(114,595,q),
(109,611,o),
(91,654,o),
(85,670,q),
(78,687,o),
(43,691,o),
(28,691,q),
(18,691,o),
(2,697,o),
(2,710,q),
(2,718,o),
(12,731,o),
(21,731,q),
(39,731,o),
(76,729,o),
(95,729,q),
(141,729,o),
(233,729,o),
(279,730,q),
(290,731,o),
(314,732,o),
(325,732,q),
(333,732,o),
(340,720,o),
(340,713,q),
(340,706,o),
(333,694,o),
(325,694,q),
(309,694,o),
(278,695,o),
(262,695,q),
(239,695,o),
(239,671,q),
(239,661,o),
(246,638,o),
(249,628,q),
(291,495,o),
(381,223,o),
(423,97,q),
(467,226,o),
(544,488,o),
(577,619,q),
(580,633,o),
(588,665,o),
(588,679,q),
(588,696,o),
(570,697,o),
(556,697,q),
(547,697,o),
(530,694,o),
(521,694,q),
(513,694,o),
(498,703,o),
(498,713,q),
(498,731,o),
(515,731,q),
(529,731,o),
(558,729,o),
(572,729,q),
(586,729,o),
(612,729,o),
(625,730,q),
(651,730,o),
(706,734,o),
(732,734,q),
(740,734,o),
(750,721,o),
(750,714,q)
);
}
);
userData = {
public.verticalOrigin = 880;
};
vertWidth = 1000;
width = 754;
}
);
unicode = 86;
}
{
glyphname = W;
layers = (
{
layerId = m001;
shapes = (
{
closed = 1;
nodes = (
(982,701,o),
(960,697,o),
(949,697,q),
(936,697,o),
(914,687,o),
(908,675,q),
(903,662,o),
(897,632,o),
(894,619,q),
(861,462,o),
(786,150,o),
(750,-7,q),
(635,-7,l),
(602,118,o),
(528,364,o),
(493,488,q),
(458,364,o),
(382,117,o),
(344,-7,q),
(236,-7,l),
(215,103,o),
(169,321,o),
(145,430,q),
(113,577,l),
(109,597,o),
(101,638,o),
(96,657,q),
(90,679,o),
(73,692,o),
(48,691,o),
(30,691,q),
(20,691,o),
(11,706,o),
(11,714,q),
(11,721,o),
(26,731,o),
(32,731,q),
(61,731,o),
(121,728,o),
(151,728,q),
(187,728,o),
(258,731,o),
(293,731,q),
(300,731,o),
(311,719,o),
(311,713,q),
(311,706,o),
(301,694,o),
(293,694,q),
(286,694,o),
(273,695,o),
(266,695,q),
(250,695,o),
(239,684,o),
(239,669,q),
(239,664,o),
(240,653,o),
(241,648,q),
(261,518,o),
(312,258,o),
(334,127,q),
(362,225,o),
(422,420,o),
(447,518,q),
(456,550,o),
(471,613,o),
(479,644,q),
(482,658,o),
(489,685,o),
(493,698,q),
(498,712,o),
(511,722,o),
(526,722,q),
(538,722,o),
(558,718,o),
(563,706,q),
(569,696,o),
(574,667,o),
(577,655,q),
(586,623,o),
(604,558,o),
(613,525,q),
(642,425,o),
(699,226,o),
(728,125,q),
(742,196,o),
(773,337,o),
(786,408,q),
(796,463,o),
(817,573,o),
(824,628,q),
(826,640,o),
(828,665,o),
(828,677,q),
(828,682,o),
(817,701,o),
(810,701,q),
(804,701,o),
(792,701,o),
(786,701,q),
(776,701,o),
(757,699,o),
(746,699,q),
(739,699,o),
(730,709,o),
(730,716,q),
(730,734,o),
(745,734,q),
(763,734,o),
(800,732,o),
(818,732,q),
(855,732,o),
(927,734,o),
(964,734,q),
(982,734,o),
(982,717,q)
);
}
);
userData = {
public.verticalOrigin = 880;
};
vertWidth = 1000;
width = 1000;
}
);
unicode = 87;
}
{
glyphname = X;
layers = (
{
layerId = m001;
shapes = (
{
closed = 1;
nodes = (
(763,5,o),
(747,-1,o),
(735,-1,q),
(703,-1,o),
(637,0,o),
(604,0,q),
(570,0,o),
(500,-2,o),
(465,-2,q),
(458,-2,o),
(447,4,o),
(447,12,q),
(447,29,o),
(477,29,o),
(488,29,q),
(494,29,o),
(509,33,o),
(509,40,q),
(509,48,o),
(481,101,o),
(439,172,o),
(395,244,o),
(359,300,o),
(353,310,q),
(346,299,o),
(306,239,o),
(254,162,o),
(205,88,o),
(172,36,o),
(172,32,q),
(172,28,o),
(179,25,o),
(183,25,q),
(199,25,o),
(229,28,o),
(245,28,q),
(260,28,o),
(260,13,q),
(260,-4,o),
(243,-4,q),
(233,-4,o),
(213,-3,o),
(203,-3,q),
(182,-2,o),
(141,-2,o),
(120,-2,q),
(95,-2,o),
(44,-5,o),
(18,-5,q),
(13,-5,o),
(2,8,o),
(2,12,q),
(2,29,o),
(31,28,o),
(41,28,q),
(58,28,o),
(85,34,o),
(98,45,q),
(111,56,o),
(132,81,o),
(142,94,q),
(187,150,o),
(284,286,o),
(321,347,q),
(286,403,o),
(217,513,o),
(182,568,q),
(164,596,o),
(129,653,o),
(109,680,q),
(105,686,o),
(94,689,o),
(86,689,q),
(74,689,o),
(51,685,o),
(39,685,q),
(21,685,o),
(21,705,q),
(21,724,o),
(43,724,q),
(71,724,o),
(128,731,o),
(156,734,q),
(170,736,o),
(200,742,o),
(213,742,q),
(225,742,o),
(234,734,o),
(239,724,q),
(255,696,o),
(284,639,o),
(300,610,q),
(324,567,o),
(375,481,o),
(400,437,q),
(407,449,o),
(440,502,o),
(479,566,o),
(515,630,o),
(539,679,o),
(539,688,q),
(539,697,o),
(532,698,q),
(522,701,o),
(498,700,o),
(487,700,q),
(478,700,o),
(462,704,o),
(462,716,q),
(462,733,o),
(478,733,q),
(495,733,o),
(530,731,o),
(547,731,q),
(577,731,o),
(638,732,o),
(668,733,q),
(678,734,o),
(697,735,o),
(707,735,q),
(723,735,o),
(723,717,q),
(723,704,o),
(704,696,o),
(676,696,o),
(648,694,o),
(639,686,q),
(633,682,o),
(622,672,o),
(618,666,q),
(572,600,o),
(480,468,o),
(433,403,q),
(467,350,o),
(536,245,o),
(572,193,q),
(595,160,o),
(640,93,o),
(665,62,q),
(682,40,o),
(720,35,o),
(745,35,q),
(763,35,o),
(763,19,q)
);
}
);
userData = {
public.verticalOrigin = 880;
};
vertWidth = 1000;
width = 765;
}
);
unicode = 88;
}
{
glyphname = Z;
layers = (
{
layerId = m001;
shapes = (
{
closed = 1;
nodes = (
(621,219,o),
(618,198,o),
(617,187,q),
(615,168,o),
(609,130,o),
(607,111,q),
(604,89,o),
(602,46,o),
(600,24,q),
(599,13,o),
(591,-4,o),
(577,-4,q),
(567,-4,o),
(549,0,o),
(540,1,q),
(533,1,o),
(520,2,o),
(513,2,q),
(416,2,o),
(221,-1,o),
(123,-1,q),
(107,-1,o),
(75,-1,o),
(59,-3,q),
(55,-4,o),
(46,-5,o),
(41,-5,q),
(29,-5,o),
(18,13,o),
(18,23,q),
(18,34,o),
(22,42,q),
(26,50,o),
(38,67,o),
(43,74,q),
(92,145,o),
(189,285,o),
(233,358,q),
(242,372,o),
(281,436,o),
(330,515,o),
(375,593,o),
(404,653,o),
(404,665,q),
(404,685,o),
(373,694,o),
(358,694,q),
(317,694,l),
(294,694,o),
(246,693,o),
(223,689,q),
(189,683,o),
(128,625,o),
(114,593,q),
(109,580,o),
(101,556,o),
(97,543,q),
(91,518,o),
(68,518,q),
(59,518,o),
(46,530,o),
(46,538,q),
(46,554,o),
(49,584,o),
(50,599,q),
(52,628,o),
(52,687,o),
(54,716,q),
(55,725,o),
(61,732,o),
(70,732,q),
(83,732,o),
(107,730,o),
(119,729,q),
(157,726,o),
(236,725,o),
(275,725,q),
(353,725,o),
(510,730,o),
(589,730,q),
(594,730,o),
(604,718,o),
(604,713,q),
(604,700,o),
(597,688,o),
(590,679,q),
(212,107,l),
(205,96,o),
(194,72,o),
(194,59,q),
(194,43,o),
(221,37,o),
(233,37,q),
(280,37,o),
(372,43,o),
(418,47,q),
(438,49,o),
(482,63,o),
(497,77,q),
(525,103,o),
(567,185,o),
(578,221,q),
(581,231,o),
(589,246,o),
(601,246,q),
(609,246,o),
(621,237,o),
(621,229,q)
);
}
);
userData = {
public.verticalOrigin = 880;
};
vertWidth = 1000;
width = 645;
}
);
unicode = 90;
}
{
glyphname = bracketleft;
layers = (
{
layerId = m001;
shapes = (
{
closed = 1;
nodes = (
(162,-99,l),
(162,854,l),
(432,854,l),
(432,814,l),
(253,814,l),
(253,-60,l),
(432,-60,l),
(432,-99,l)
);
}
);
userData = {
public.verticalOrigin = 880;
};
vertWidth = 1000;
width = 450;
}
);
unicode = 91;
}
{
glyphname = backslash;
layers = (
{
layerId = m001;
shapes = (
{
closed = 1;
nodes = (
(419,-80,l),
(42,777,l),
(83,793,l),
(459,-64,l)
);
}
);
userData = {
public.verticalOrigin = 880;
};
vertWidth = 1000;
width = 500;
}
);
unicode = 92;
}
{
glyphname = bracketright;
layers = (
{
layerId = m001;
shapes = (
{
closed = 1;
nodes = (
(162,-99,l),
(162,-60,l),
(341,-60,l),
(341,814,l),
(162,814,l),
(162,854,l),
(432,854,l),
(432,-99,l)
);
}
);
userData = {
public.verticalOrigin = 880;
};
vertWidth = 1000;
width = 450;
}
);
unicode = 93;
}
{
glyphname = asciicircum;
layers = (
{
layerId = m001;
shapes = (
{
closed = 1;
nodes = (
(447,474,l),
(280,684,l),
(113,474,l),
(26,474,l),
(237,745,l),
(323,744,l),
(534,474,l)
);
}
);
userData = {
public.verticalOrigin = 880;
};
vertWidth = 1000;
width = 560;
}
);
unicode = 94;
}
{
glyphname = underscore;
layers = (
{
layerId = m001;
shapes = (
{
closed = 1;
nodes = (
(2,-119,l),
(2,-81,l),
(498,-81,l),
(498,-119,l)
);
}
);
userData = {
public.verticalOrigin = 880;
};
vertWidth = 1000;
width = 500;
}
);
unicode = 95;
}
{
glyphname = grave;
layers = (
{
layerId = m001;
shapes = (
{
closed = 1;
nodes = (
(323,746,l),
(54,800,l),
(73,877,l),
(336,798,l)
);
}
);
userData = {
public.verticalOrigin = 880;
};
vertWidth = 1000;
width = 390;
}
);
unicode = 96;
}
{
glyphname = b;
layers = (
{
layerId = m001;
shapes = (
{
closed = 1;
nodes = (
(437,312,o),
(426,390,o),
(397,461,o),
(369,482,q),
(359,490,o),
(337,499,o),
(325,499,q),
(300,499,o),
(250,464,o),
(237,443,q),
(236,441,o),
(231,430,o),
(231,428,q),
(231,83,l),
(231,55,o),
(249,26,o),
(279,26,q),
(327,26,o),
(388,76,o),
(423,154,o),
(437,242,o),
(437,279,q)
);
},
{
closed = 1;
nodes = (
(573,194,o),
(506,68,o),
(384,-2,o),
(299,-2,q),
(268,-2,o),
(209,9,o),
(178,9,q),
(161,9,o),
(129,1,o),
(112,1,q),
(107,1,o),
(96,5,o),
(96,12,q),
(96,14,o),
(98,20,o),
(98,22,q),
(102,37,o),
(105,68,o),
(105,83,q),
(105,680,l),
(105,691,o),
(98,717,o),
(84,717,q),
(68,717,o),
(38,714,o),
(22,714,q),
(18,714,o),
(13,722,o),
(13,726,q),
(13,735,o),
(22,738,q),
(33,741,o),
(56,744,o),
(66,745,q),
(94,750,o),
(150,759,o),
(177,767,q),
(185,769,o),
(200,774,o),
(207,774,q),
(215,774,o),
(230,763,o),
(230,754,q),
(230,495,l),
(258,512,o),
(323,531,o),
(355,531,q),
(430,531,o),
(526,462,o),
(573,347,o),
(573,278,q)
);
}
);
userData = {
public.verticalOrigin = 880;
};
vertWidth = 1000;
width = 610;
}
);
unicode = 98;
}
{
glyphname = c;
layers = (
{
layerId = m001;
shapes = (
{
closed = 1;
nodes = (
(529,129,o),
(525,120,o),
(523,116,q),
(502,77,o),
(431,24,o),
(345,-4,o),
(302,-4,q),
(265,-4,o),
(177,20,o),
(145,42,q),
(93,80,o),
(44,192,o),
(44,255,q),
(44,333,o),
(104,462,o),
(219,540,o),
(301,540,q),
(331,540,o),
(358,531,q),
(366,529,o),
(401,512,o),
(435,498,o),
(439,498,q),
(450,498,o),
(471,515,o),
(477,515,q),
(483,515,o),
(483,507,q),
(485,497,o),
(485,474,o),
(486,463,q),
(487,439,o),
(492,391,o),
(492,367,q),
(492,354,o),
(484,334,o),
(469,334,q),
(459,334,o),
(449,344,o),
(447,352,q),
(435,388,o),
(410,457,o),
(381,483,q),
(370,494,o),
(329,513,o),
(313,513,q),
(271,513,o),
(217,459,o),
(185,379,o),
(172,294,o),
(172,262,q),
(172,232,o),
(186,153,o),
(218,80,o),
(270,31,o),
(309,31,q),
(346,31,o),
(422,63,o),
(448,89,q),
(456,97,o),
(473,115,o),
(480,125,q),
(483,130,o),
(489,139,o),
(493,143,q),
(501,151,o),
(509,151,q),
(517,151,o),
(529,141,o),
(529,133,q)
);
}
);
userData = {
public.verticalOrigin = 880;
};
vertWidth = 1000;
width = 540;
}
);
unicode = 99;
}
{
glyphname = d;
layers = (
{
layerId = m001;
shapes = (
{
closed = 1;
nodes = (
(393,406,o),
(376,463,o),
(339,503,o),
(307,503,q),
(291,503,o),
(261,495,o),
(247,484,q),
(219,462,o),
(186,382,o),
(173,293,o),
(173,259,q),
(173,231,o),
(180,156,o),
(202,84,o),
(246,37,o),
(284,37,q),
(307,37,o),
(351,70,o),
(386,116,o),
(393,136,q),
(393,380,l)
);
},
{
closed = 1;
nodes = (
(603,33,o),
(576,16,o),
(538,4,o),
(502,-3,o),
(494,-3,q),
(458,-3,o),
(412,41,o),
(399,72,q),
(379,44,o),
(312,0,o),
(277,0,q),
(246,0,o),
(177,12,o),
(150,30,q),
(95,67,o),
(41,190,o),
(41,254,q),
(41,337,o),
(102,462,o),
(220,532,o),
(305,532,q),
(326,532,o),
(373,515,o),
(391,505,q),
(391,678,l),
(391,689,o),
(386,718,o),
(371,718,q),
(356,718,o),
(327,716,o),
(313,716,q),
(299,716,o),
(299,728,q),
(299,740,o),
(310,741,q),
(318,743,o),
(334,743,o),
(341,744,q),
(360,746,o),
(396,752,o),
(414,755,q),
(433,759,o),
(469,767,o),
(487,772,q),
(492,774,o),
(500,776,o),
(504,776,q),
(519,776,o),
(519,760,q),
(519,109,l),
(519,97,o),
(522,66,o),
(537,43,o),
(553,43,q),
(564,43,o),
(587,53,o),
(594,53,q),
(599,53,o),
(603,46,o),
(603,42,q)
);
}
);
userData = {
public.verticalOrigin = 880;
};
vertWidth = 1000;
width = 606;
}
);
unicode = 100;
}
{
glyphname = f;
layers = (
{
layerId = m001;
shapes = (
{
closed = 1;
nodes = (
(417,604,o),
(390,604,q),
(377,604,o),
(363,628,o),
(353,664,o),
(339,700,o),
(311,724,o),
(285,724,q),
(262,724,o),
(236,696,o),
(226,657,o),
(226,638,q),
(226,604,o),
(229,537,o),
(230,503,q),
(343,503,l),
(351,503,o),
(359,493,o),
(359,486,q),
(359,479,o),
(351,467,o),
(343,467,q),
(234,467,l),
(234,313,l),
(234,254,o),
(235,134,o),
(235,75,q),
(235,65,o),
(242,31,o),
(255,31,q),
(267,31,o),
(292,32,o),
(304,32,q),
(310,32,o),
(320,17,o),
(320,12,q),
(320,3,o),
(306,-4,o),
(299,-4,q),
(263,-4,o),
(192,-1,o),
(157,-1,q),
(127,-1,o),
(67,-3,o),
(37,-3,q),
(20,-3,o),
(20,14,q),
(20,29,o),
(34,31,q),
(46,32,o),
(70,30,o),
(82,30,q),
(99,30,o),
(105,63,o),
(105,75,q),
(105,469,l),
(53,469,l),
(43,469,o),
(33,454,o),
(26,454,q),
(14,454,o),
(14,468,q),
(14,471,o),
(20,492,o),
(21,495,q),
(25,506,o),
(45,503,o),
(54,503,q),
(105,503,l),
(105,578,l),
(105,675,o),
(201,751,o),
(292,751,q),
(321,751,o),
(379,726,o),
(401,726,q),
(406,726,o),
(409,727,q),
(411,703,o),
(417,653,o),
(417,629,q)
);
}
);
userData = {
public.verticalOrigin = 880;
};
vertWidth = 1000;
width = 390;
}
);
unicode = 102;
}
{
glyphname = g;
layers = (
{
layerId = m001;
shapes = (
{
closed = 1;
nodes = (
(380,-2,o),
(347,32,o),
(293,42,o),
(263,45,q),
(188,53,l),
(168,30,o),
(154,-16,o),
(154,-45,q),
(154,-105,o),
(221,-149,o),
(275,-149,q),
(327,-149,o),
(380,-92,o),
(380,-41,q)
);
},
{
closed = 1;
nodes = (
(337,393,o),
(335,441,o),
(323,487,o),
(295,517,o),
(270,517,q),
(240,517,o),
(207,482,o),
(193,429,o),
(190,373,o),
(190,352,q),
(190,330,o),
(194,280,o),
(209,236,o),
(241,208,o),
(270,208,q),
(295,208,o),
(322,237,o),
(334,282,o),
(337,328,o),
(337,346,q),
(337,375,l)
);
},
{
closed = 1;
nodes = (
(535,500,o),
(504,488,o),
(467,485,o),
(458,485,q),
(447,485,o),
(424,486,o),
(413,487,q),
(429,473,o),
(452,427,o),
(465,376,o),
(465,355,q),
(465,303,o),
(408,227,o),
(318,187,o),
(270,187,q),
(260,187,o),
(238,187,o),
(227,188,q),
(212,175,o),
(193,148,o),
(193,125,q),
(193,117,o),
(209,100,o),
(216,98,q),
(231,93,o),
(265,90,o),
(280,88,q),
(319,86,o),
(405,82,o),
(480,53,o),
(502,13,q),
(508,3,o),
(511,-17,o),
(511,-29,q),
(511,-72,o),
(462,-129,o),
(387,-163,o),
(304,-178,o),
(270,-178,q),
(245,-178,o),
(167,-171,o),
(90,-149,o),
(38,-107,o),
(38,-71,q),
(38,-43,o),
(64,3,o),
(103,42,o),
(122,58,q),
(110,61,o),
(72,80,o),
(72,95,q),
(72,106,o),
(92,138,o),
(122,172,o),
(151,201,o),
(159,209,q),
(113,234,o),
(61,313,o),
(61,366,q),
(61,421,o),
(122,496,o),
(217,535,o),
(266,535,q),
(280,535,o),
(310,531,o),
(324,528,q),
(340,524,o),
(372,515,o),
(389,515,q),
(427,515,o),
(466,526,q),
(489,532,o),
(513,564,o),
(522,564,q),
(531,564,o),
(536,543,o),
(535,518,o),
(535,512,q)
);
}
);
userData = {
public.verticalOrigin = 880;
};
vertWidth = 1000;
width = 552;
}
);
unicode = 103;
}
{
glyphname = h;
layers = (
{
layerId = m001;
shapes = (
{
closed = 1;
nodes = (
(615,-4,o),
(598,-4,q),
(584,-4,o),
(555,-1,o),
(541,0,q),
(521,1,o),
(480,0,o),
(460,0,q),
(436,0,o),
(389,-5,o),
(366,-5,q),
(360,-5,o),
(349,6,o),
(349,11,q),
(349,28,o),
(366,28,q),
(376,28,o),
(394,26,o),
(404,26,q),
(419,26,o),
(419,42,q),
(419,119,o),
(420,272,o),
(420,348,q),
(420,375,o),
(416,440,o),
(406,465,q),
(397,488,o),
(369,504,o),
(345,504,q),
(323,504,o),
(276,472,o),
(240,427,o),
(231,408,q),
(231,38,l),
(231,27,o),
(245,27,q),
(255,27,o),
(273,30,o),
(283,30,q),
(288,30,o),
(299,19,o),
(299,14,q),
(299,-4,o),
(282,-4,q),
(268,-4,o),
(239,-1,o),
(225,-1,q),
(215,-1,o),
(195,-1,o),
(184,-1,q),
(131,-1,l),
(112,-1,o),
(74,-5,o),
(55,-5,q),
(39,-5,o),
(39,13,q),
(39,29,o),
(56,29,q),
(66,29,o),
(84,27,o),
(94,27,q),
(106,27,o),
(106,38,q),
(106,675,l),
(106,685,o),
(101,714,o),
(87,714,q),
(74,714,o),
(47,710,o),
(34,710,q),
(29,710,o),
(21,720,o),
(21,725,q),
(21,735,o),
(34,737,q),
(75,746,o),
(158,757,o),
(198,769,q),
(206,772,o),
(214,772,q),
(228,772,o),
(228,759,q),
(228,469,l),
(257,496,o),
(335,538,o),
(375,538,q),
(443,538,o),
(518,504,o),
(549,426,o),
(549,359,q),
(549,42,l),
(549,27,o),
(563,27,q),
(572,27,o),
(590,30,o),
(599,30,q),
(606,30,o),
(615,20,o),
(615,14,q)
);
}
);
userData = {
public.verticalOrigin = 880;
};
vertWidth = 1000;
width = 636;
}
);
unicode = 104;
}
{
glyphname = i;
layers = (
{
layerId = m001;
shapes = (
{
closed = 1;
nodes = (
(314,-4,o),
(298,-4,q),
(269,-4,o),
(209,1,o),
(179,1,q),
(149,1,o),
(88,-4,o),
(58,-4,q),
(51,-4,o),
(45,7,o),
(45,12,q),
(45,28,o),
(60,28,q),
(70,28,o),
(88,26,o),
(97,26,q),
(109,26,o),
(116,42,o),
(116,52,q),
(116,449,l),
(116,459,o),
(112,484,o),
(98,484,q),
(85,484,o),
(57,480,o),
(43,480,q),
(37,480,o),
(26,486,o),
(26,493,q),
(26,506,o),
(39,510,q),
(50,512,o),
(75,515,o),
(86,516,q),
(121,521,o),
(188,536,o),
(222,544,q),
(225,544,o),
(231,545,o),
(233,545,q),
(248,545,o),
(248,533,q),
(248,413,o),
(246,172,o),
(246,52,q),
(246,34,o),
(262,25,o),
(287,27,o),
(300,27,q),
(314,27,o),
(314,12,q)
);
},
{
closed = 1;
nodes = (
(251,668,o),
(206,622,o),
(174,622,q),
(143,622,o),
(97,668,o),
(97,699,q),
(97,731,o),
(143,776,o),
(174,776,q),
(206,776,o),
(251,731,o),
(251,699,q)
);
}
);
userData = {
public.verticalOrigin = 880;
};
vertWidth = 1000;
width = 344;
}
);
unicode = 105;
}
{
glyphname = j;
layers = (
{
layerId = m001;
shapes = (
{
closed = 1;
nodes = (
(274,25,o),
(268,-50,o),
(251,-83,q),
(226,-133,o),
(126,-185,o),
(71,-185,q),
(40,-185,o),
(-27,-168,o),
(-49,-143,q),
(-56,-135,o),
(-67,-117,o),
(-67,-107,q),
(-67,-81,o),
(-21,-48,o),
(3,-48,q),
(17,-48,o),
(22,-66,o),
(23,-77,q),
(25,-91,o),
(34,-124,o),
(55,-147,o),
(73,-147,q),
(101,-147,o),
(130,-112,o),
(141,-63,o),
(141,-41,q),
(141,81,o),
(140,326,o),
(140,448,q),
(140,458,o),
(136,484,o),
(122,484,q),
(109,484,o),
(81,480,o),
(67,480,q),
(61,480,o),
(50,486,o),
(50,493,q),
(50,505,o),
(63,509,q),
(75,513,o),
(104,515,o),
(117,517,q),
(150,522,o),
(216,535,o),
(249,543,q),
(255,545,o),
(260,545,q),
(274,545,o),
(274,532,q),
(274,60,l)
);
},
{
closed = 1;
nodes = (
(276,668,o),
(231,622,o),
(199,622,q),
(168,622,o),
(122,668,o),
(122,699,q),
(122,731,o),
(168,776,o),
(199,776,q),
(231,776,o),
(276,731,o),
(276,699,q)
);
}
);
userData = {
public.verticalOrigin = 880;
};
vertWidth = 1000;
width = 380;
}
);
unicode = 106;
}
{
glyphname = k;
layers = (
{
layerId = m001;
shapes = (
{
closed = 1;
nodes = (
(595,7,o),
(584,2,o),
(578,1,q),
(554,-1,o),
(506,-2,o),
(483,-2,q),
(470,-2,o),
(441,0,o),
(429,4,q),
(416,8,o),
(398,30,o),
(391,42,q),
(354,107,o),
(278,235,o),
(243,301,q),
(218,284,l),
(218,54,l),
(218,36,o),
(233,26,o),
(258,29,o),
(273,29,q),
(287,29,o),
(287,13,q),
(287,-3,o),
(271,-3,q),
(242,-3,o),
(185,1,o),
(156,1,q),
(127,1,o),
(69,-4,o),
(40,-4,q),
(34,-4,o),
(27,7,o),
(27,13,q),
(27,28,o),
(43,28,q),
(53,28,o),
(71,27,o),
(81,27,q),
(93,27,o),
(97,43,o),
(97,53,q),
(98,67,o),
(99,95,o),
(99,108,q),
(99,593,l),
(99,615,o),
(98,657,o),
(97,679,q),
(96,690,o),
(91,716,o),
(76,716,q),
(66,716,o),
(47,714,o),
(37,714,q),
(21,714,o),
(21,728,q),
(21,738,o),
(32,741,q),
(44,744,o),
(70,746,o),
(82,748,q),
(110,753,o),
(165,767,o),
(193,774,q),
(196,775,o),
(201,776,o),
(204,776,q),
(219,776,o),
(219,763,q),
(219,651,o),
(217,428,o),
(217,317,q),
(252,344,o),
(324,399,o),
(356,430,q),
(371,445,o),
(403,476,o),
(415,493,q),
(423,504,o),
(426,525,o),
(433,539,o),
(446,539,q),
(472,539,o),
(524,538,o),
(549,538,q),
(564,538,o),
(564,525,q),
(564,514,o),
(550,510,o),
(542,510,q),
(527,510,o),
(494,498,o),
(483,490,q),
(445,461,o),
(372,398,o),
(335,366,q),
(345,349,o),
(386,279,o),
(438,193,o),
(492,111,o),
(537,50,o),
(550,40,q),
(559,33,o),
(575,29,o),
(585,26,q),
(595,23,o),
(595,15,q)
);
}
);
userData = {
public.verticalOrigin = 880;
};
vertWidth = 1000;
width = 592;
}
);
unicode = 107;
}
{
glyphname = l;
layers = (
{
layerId = m001;
shapes = (
{
closed = 1;
nodes = (
(319,-3,o),
(303,-3,q),
(272,-3,o),
(212,2,o),
(181,2,q),
(149,2,o),
(84,-3,o),
(52,-3,q),
(45,-3,o),
(39,8,o),
(39,14,q),
(39,25,o),
(60,31,o),
(87,29,o),
(94,29,q),
(116,29,o),
(116,53,q),
(116,134,l),
(116,266,o),
(116,529,o),
(116,661,q),
(116,672,o),
(112,705,o),
(95,705,q),
(83,705,o),
(60,698,o),
(48,698,q),
(33,698,o),
(33,714,q),
(33,725,o),
(46,730,q),
(59,734,o),
(88,738,o),
(101,741,q),
(131,748,o),
(190,763,o),
(219,770,q),
(222,771,o),
(228,772,o),
(231,772,q),
(237,772,o),
(248,767,o),
(248,759,q),
(248,583,o),
(246,229,o),
(246,53,q),
(246,36,o),
(266,26,o),
(294,29,o),
(305,29,q),
(319,29,o),
(319,13,q)
);
}
);
userData = {
public.verticalOrigin = 880;
};
vertWidth = 1000;
width = 346;
}
);
unicode = 108;
}
{
glyphname = m;
layers = (
{
layerId = m001;
shapes = (
{
closed = 1;
nodes = (
(905,-4,o),
(888,-4,q),
(859,-4,o),
(801,1,o),
(772,1,q),
(743,1,o),
(684,-4,o),
(654,-4,q),
(648,-4,o),
(641,7,o),
(641,12,q),
(641,27,o),
(659,27,q),
(667,27,o),
(684,26,o),
(692,26,q),
(704,26,o),
(708,41,o),
(708,51,q),
(708,348,l),
(708,375,o),
(705,440,o),
(694,465,q),
(685,487,o),
(658,504,o),
(635,504,q),
(607,504,o),
(551,460,o),
(534,440,q),
(538,420,o),
(539,379,o),
(539,359,q),
(539,282,o),
(539,128,o),
(539,51,q),
(539,39,o),
(548,25,o),
(561,25,q),
(568,25,o),
(581,27,o),
(588,27,q),
(603,27,o),
(603,12,q),
(603,-4,o),
(586,-4,q),
(558,-4,o),
(501,1,o),
(472,1,q),
(443,1,o),
(385,-4,o),
(356,-4,q),
(349,-4,o),
(343,7,o),
(343,12,q),
(343,23,o),
(361,28,o),
(384,26,o),
(390,26,q),
(404,26,o),
(410,39,o),
(410,51,q),
(410,125,o),
(409,274,o),
(409,348,q),
(409,375,o),
(406,440,o),
(395,465,q),
(385,488,o),
(357,502,o),
(333,502,q),
(320,502,o),
(282,477,o),
(248,445,o),
(239,435,q),
(239,339,o),
(239,147,o),
(239,51,q),
(239,39,o),
(248,25,o),
(261,25,q),
(268,25,o),
(282,27,o),
(289,27,q),
(303,27,o),
(303,12,q),
(303,-4,o),
(287,-4,q),
(258,-4,o),
(201,0,o),
(172,0,q),
(142,0,o),
(83,-4,o),
(53,-4,q),
(46,-4,o),
(39,7,o),
(39,12,q),
(39,27,o),
(56,27,q),
(64,27,o),
(81,26,o),
(90,26,q),
(104,26,o),
(109,54,o),
(109,64,q),
(109,159,o),
(109,349,o),
(109,444,q),
(109,455,o),
(103,481,o),
(87,481,q),
(76,481,o),
(53,478,o),
(42,478,q),
(36,478,o),
(25,485,o),
(25,492,q),
(25,499,o),
(34,505,o),
(38,506,q),
(51,510,o),
(79,512,o),
(92,514,q),
(104,517,o),
(149,529,o),
(193,540,o),
(201,540,q),
(213,540,o),
(218,529,q),
(225,518,o),
(231,489,o),
(235,476,q),
(271,506,o),
(343,537,o),
(390,537,q),
(428,537,o),
(501,507,o),
(520,473,q),
(555,504,o),
(631,540,o),
(677,540,q),
(746,540,o),
(814,502,o),
(837,423,o),
(837,359,q),
(837,282,o),
(837,128,o),
(837,51,q),
(837,35,o),
(854,25,o),
(879,27,o),
(890,27,q),
(905,27,o),
(905,12,q)
);
}
);
userData = {
public.verticalOrigin = 880;
};
vertWidth = 1000;
width = 920;
}
);
unicode = 109;
}
{
glyphname = o;
layers = (
{
layerId = m001;
shapes = (
{
closed = 1;
nodes = (
(439,296,o),
(430,381,o),
(402,461,o),
(349,514,o),
(304,514,q),
(263,514,o),
(213,462,o),
(186,384,o),
(176,301,o),
(176,271,q),
(176,238,o),
(185,153,o),
(213,73,o),
(267,21,o),
(312,21,q),
(354,21,o),
(405,72,o),
(431,149,o),
(439,232,o),
(439,263,q)
);
},
{
closed = 1;
nodes = (
(575,181,o),
(505,62,o),
(384,-6,o),
(307,-6,q),
(230,-6,o),
(112,66,o),
(45,188,o),
(45,264,q),
(45,343,o),
(111,468,o),
(231,541,o),
(311,541,q),
(399,541,o),
(516,470,o),
(575,343,o),
(575,258,q)
);
}
);
userData = {
public.verticalOrigin = 880;
};
vertWidth = 1000;
width = 620;
}
);
unicode = 111;
}
{
glyphname = p;
layers = (
{
layerId = m001;
shapes = (
{
closed = 1;
nodes = (
(435,287,o),
(433,346,o),
(424,409,o),
(403,464,o),
(365,498,o),
(335,498,q),
(295,498,o),
(244,452,o),
(228,417,q),
(228,156,l),
(228,131,o),
(247,72,o),
(287,31,o),
(317,31,q),
(361,31,o),
(410,80,o),
(431,154,o),
(435,235,o),
(435,266,q)
);
},
{
closed = 1;
nodes = (
(572,199,o),
(518,74,o),
(406,3,o),
(320,3,q),
(298,3,o),
(245,24,o),
(227,35,q),
(227,13,o),
(226,-32,o),
(227,-55,q),
(227,-136,l),
(227,-145,o),
(234,-163,o),
(245,-163,q),
(253,-163,o),
(270,-162,o),
(278,-162,q),
(292,-162,o),
(292,-177,q),
(292,-193,o),
(277,-193,q),
(249,-193,o),
(193,-189,o),
(164,-189,q),
(135,-189,o),
(75,-193,o),
(46,-193,q),
(39,-193,o),
(33,-182,o),
(33,-177,q),
(33,-162,o),
(48,-162,q),
(56,-162,o),
(72,-163,o),
(79,-163,q),
(90,-163,o),
(100,-148,o),
(100,-138,q),
(100,8,o),
(101,301,o),
(101,447,q),
(101,458,o),
(95,484,o),
(80,484,q),
(70,484,o),
(51,482,o),
(41,482,q),
(35,482,o),
(20,487,o),
(20,495,q),
(20,501,o),
(28,507,o),
(33,508,q),
(44,512,o),
(68,514,o),
(79,516,q),
(130,525,o),
(177,540,q),
(181,542,o),
(189,545,o),
(193,545,q),
(200,545,o),
(211,521,o),
(218,493,o),
(220,487,q),
(234,495,o),
(286,516,o),
(339,533,o),
(354,533,q),
(405,533,o),
(485,489,o),
(542,416,o),
(572,326,o),
(572,280,q)
);
}
);
userData = {
public.verticalOrigin = 880;
};
vertWidth = 1000;
width = 608;
}
);
unicode = 112;
}
{
glyphname = q;
layers = (
{
layerId = m001;
shapes = (
{
closed = 1;
nodes = (
(400,398,o),
(380,464,o),
(336,509,o),
(299,509,q),
(259,509,o),
(209,455,o),
(181,374,o),
(170,290,o),
(170,261,q),
(170,234,o),
(183,159,o),
(212,85,o),
(260,36,o),
(294,36,q),
(323,36,o),
(371,71,o),
(399,124,o),
(399,152,q),
(399,205,o),
(400,313,o),
(400,367,q)
);
},
{
closed = 1;
nodes = (
(591,-193,o),
(575,-193,q),
(547,-193,o),
(492,-188,o),
(464,-188,q),
(435,-188,o),
(375,-193,o),
(346,-193,q),
(339,-193,o),
(333,-182,o),
(333,-177,q),
(333,-161,o),
(349,-161,q),
(357,-161,o),
(373,-163,o),
(380,-163,q),
(391,-163,o),
(400,-148,o),
(400,-138,q),
(400,58,l),
(378,29,o),
(311,3,o),
(276,3,q),
(246,3,o),
(170,16,o),
(145,33,q),
(92,70,o),
(39,191,o),
(39,254,q),
(39,338,o),
(104,464,o),
(226,533,o),
(311,533,q),
(330,533,o),
(377,520,o),
(420,497,o),
(432,482,q),
(439,488,o),
(471,513,o),
(504,534,o),
(511,534,q),
(518,534,o),
(528,528,o),
(528,520,q),
(528,459,l),
(527,-144,l),
(527,-154,o),
(541,-163,o),
(550,-163,q),
(557,-163,o),
(570,-162,o),
(577,-162,q),
(591,-162,o),
(591,-177,q)
);
}
);
userData = {
public.verticalOrigin = 880;
};
vertWidth = 1000;
width = 608;
}
);
unicode = 113;
}
{
glyphname = r;
layers = (
{
layerId = m001;
shapes = (
{
closed = 1;
nodes = (
(443,409,o),
(432,392,o),
(421,392,q),
(404,392,o),
(398,406,q),
(392,419,o),
(379,454,o),
(358,480,o),
(339,480,q),
(329,480,o),
(311,472,o),
(303,466,q),
(271,444,o),
(232,363,o),
(226,324,q),
(226,325,l),
(226,288,o),
(226,214,o),
(226,177,q),
(226,54,l),
(226,37,o),
(245,27,o),
(272,30,o),
(283,30,q),
(297,30,o),
(297,15,q),
(297,-1,o),
(281,-1,q),
(251,-1,o),
(191,1,o),
(161,1,q),
(130,1,o),
(68,-2,o),
(36,-2,q),
(29,-2,o),
(23,9,o),
(23,14,q),
(23,29,o),
(39,29,q),
(49,29,o),
(68,28,o),
(78,28,q),
(90,28,o),
(98,44,o),
(98,54,q),
(98,125,o),
(98,269,o),
(98,340,q),
(98,359,o),
(98,397,o),
(98,416,q),
(98,427,o),
(94,457,o),
(81,481,o),
(66,481,q),
(56,481,o),
(37,476,o),
(26,476,q),
(11,476,o),
(11,491,q),
(11,502,o),
(22,506,q),
(36,511,o),
(66,514,o),
(80,517,q),
(93,520,o),
(135,531,o),
(176,540,o),
(187,540,q),
(202,540,o),
(209,529,q),
(212,524,o),
(218,487,o),
(222,449,o),
(222,441,q),
(253,480,o),
(329,544,o),
(383,544,q),
(397,544,o),
(428,533,o),
(432,517,q),
(437,498,o),
(443,439,o),
(443,419,q)
);
}
);
userData = {
public.verticalOrigin = 880;
};
vertWidth = 1000;
width = 444;
}
);
unicode = 114;
}
{
glyphname = t;
layers = (
{
layerId = m001;
shapes = (
{
closed = 1;
nodes = (
(371,34,o),
(342,13,o),
(299,0,o),
(255,-6,o),
(240,-6,q),
(165,-6,o),
(107,55,o),
(107,126,q),
(107,212,o),
(109,384,o),
(109,470,q),
(63,470,l),
(53,470,o),
(39,457,o),
(33,457,q),
(23,457,o),
(23,467,q),
(23,471,o),
(31,493,o),
(33,496,q),
(36,502,o),
(42,504,o),
(48,504,q),
(110,504,l),
(110,611,l),
(135,625,o),
(195,679,o),
(211,702,q),
(214,707,o),
(224,718,o),
(231,718,q),
(247,718,o),
(246,704,q),
(243,504,l),
(346,504,l),
(354,504,o),
(367,497,o),
(367,488,q),
(367,469,o),
(346,469,q),
(243,469,l),
(241,83,l),
(241,67,o),
(254,38,o),
(273,38,q),
(290,38,o),
(325,44,o),
(340,51,q),
(345,53,o),
(354,58,o),
(359,58,q),
(371,58,o),
(371,48,q)
);
}
);
userData = {
public.verticalOrigin = 880;
};
vertWidth = 1000;
width = 372;
}
);
unicode = 116;
}
{
glyphname = v;
layers = (
{
layerId = m001;
shapes = (
{
closed = 1;
nodes = (
(583,517,o),
(572,511,o),
(564,511,q),
(560,511,o),
(550,511,o),
(548,511,q),
(529,511,o),
(521,493,q),
(517,483,o),
(509,459,o),
(505,448,q),
(468,335,o),
(390,112,o),
(352,-1,q),
(228,-6,l),
(204,68,o),
(157,217,o),
(133,292,q),
(120,333,o),
(95,415,o),
(81,455,q),
(71,480,o),
(40,487,o),
(17,487,q),
(2,487,o),
(2,501,q),
(2,509,o),
(8,515,o),
(15,516,q),
(25,518,o),
(48,521,o),
(58,522,q),
(80,525,o),
(123,532,o),
(145,535,q),
(152,537,o),
(165,539,o),
(172,539,q),
(186,539,o),
(191,526,q),
(196,514,o),
(203,488,o),
(207,475,q),
(238,368,l),
(261,289,o),
(308,130,o),
(331,50,q),
(367,157,o),
(436,372,o),
(460,482,q),
(461,487,o),
(462,496,o),
(462,501,q),
(462,510,o),
(448,513,o),
(441,513,q),
(406,513,l),
(398,513,o),
(389,517,o),
(389,527,q),
(389,532,o),
(397,539,o),
(401,539,q),
(425,539,o),
(473,538,o),
(497,538,q),
(515,538,o),
(550,540,o),
(568,540,q),
(574,540,o),
(583,531,o),
(583,525,q)
);
}
);
userData = {
public.verticalOrigin = 880;
};
vertWidth = 1000;
width = 574;
}
);
unicode = 118;
}
{
glyphname = w;
layers = (
{
layerId = m001;
shapes = (
{
closed = 1;
nodes = (
(849,512,o),
(836,509,o),
(828,509,q),
(815,509,o),
(788,504,o),
(781,489,q),
(777,479,o),
(771,456,o),
(768,445,q),
(737,333,o),
(671,110,o),
(637,-1,q),
(527,-5,l),
(502,88,o),
(442,271,o),
(415,364,q),
(386,272,o),
(319,91,o),
(290,-1,q),
(195,-5,l),
(175,73,o),
(134,229,o),
(113,308,q),
(103,348,o),
(83,428,o),
(71,468,q),
(67,482,o),
(53,495,o),
(39,495,q),
(32,495,o),
(19,493,o),
(12,493,q),
(-1,493,o),
(-1,506,q),
(-1,519,o),
(12,522,q),
(13,522,o),
(45,526,o),
(91,531,o),
(138,537,o),
(172,540,o),
(174,540,q),
(182,540,o),
(187,532,o),
(188,526,q),
(197,492,o),
(212,423,o),
(219,388,q),
(235,318,o),
(265,178,o),
(280,107,q),
(309,208,o),
(374,410,o),
(405,510,q),
(410,524,o),
(418,537,o),
(434,538,q),
(441,539,o),
(456,540,o),
(463,540,q),
(485,540,o),
(493,522,q),
(498,511,o),
(502,486,o),
(505,475,q),
(512,452,o),
(525,405,o),
(532,382,q),
(553,310,o),
(596,167,o),
(618,95,q),
(643,184,o),
(690,361,o),
(710,450,q),
(712,463,o),
(719,488,o),
(719,501,q),
(719,508,o),
(696,512,o),
(669,511,o),
(664,511,q),
(648,511,o),
(648,524,q),
(648,538,o),
(662,538,q),
(835,538,l),
(849,538,o),
(849,524,q)
);
}
);
userData = {
public.verticalOrigin = 880;
};
vertWidth = 1000;
width = 852;
}
);
unicode = 119;
}
{
glyphname = x;
layers = (
{
layerId = m001;
shapes = (
{
closed = 1;
nodes = (
(576,-2,o),
(560,-2,q),
(539,-2,o),
(497,0,o),
(476,0,q),
(457,0,o),
(420,-2,o),
(402,-2,q),
(392,-2,o),
(387,4,o),
(383,11,q),
(372,34,o),
(347,78,o),
(334,100,q),
(317,132,o),
(280,196,o),
(261,227,q),
(230,181,o),
(169,91,o),
(140,44,q),
(135,36,o),
(128,20,o),
(124,11,q),
(119,0,o),
(105,0,q),
(92,0,o),
(64,1,o),
(50,1,q),
(40,1,o),
(21,-1,o),
(10,-1,q),
(6,-1,o),
(-1,8,o),
(-1,12,q),
(-1,23,o),
(16,25,o),
(24,25,q),
(38,25,o),
(56,29,o),
(67,38,q),
(82,50,o),
(130,107,o),
(182,175,o),
(226,237,o),
(236,255,q),
(211,297,o),
(157,381,o),
(130,421,q),
(120,438,o),
(98,470,o),
(85,486,q),
(80,492,o),
(68,495,o),
(60,495,q),
(50,495,o),
(30,492,o),
(20,492,q),
(15,492,o),
(6,501,o),
(6,506,q),
(6,518,o),
(17,521,q),
(28,524,o),
(38,524,q),
(71,528,o),
(148,541,o),
(179,541,q),
(194,541,o),
(201,529,q),
(206,522,o),
(214,503,o),
(218,495,q),
(241,452,o),
(292,367,o),
(316,324,q),
(324,335,o),
(359,386,o),
(397,445,o),
(425,494,o),
(425,502,q),
(425,509,o),
(422,513,o),
(415,513,q),
(408,513,o),
(393,512,o),
(385,512,q),
(369,512,o),
(369,529,q),
(369,534,o),
(378,540,o),
(382,540,q),
(404,540,o),
(447,538,o),
(469,538,q),
(490,538,o),
(534,539,o),
(555,539,q),
(568,539,o),
(568,525,q),
(568,512,o),
(548,511,o),
(538,511,q),
(531,511,o),
(513,509,o),
(507,505,q),
(495,497,o),
(486,486,q),
(449,440,o),
(371,342,o),
(339,295,q),
(361,260,o),
(406,189,o),
(428,154,q),
(444,129,o),
(478,83,o),
(495,60,q),
(503,50,o),
(518,35,o),
(530,31,q),
(538,29,o),
(560,29,o),
(576,24,o),
(576,14,q)
);
}
);
userData = {
public.verticalOrigin = 880;
};
vertWidth = 1000;
width = 572;
}
);
unicode = 120;
}
{
glyphname = braceleft;
layers = (
{
layerId = m001;
shapes = (
{
closed = 1;
nodes = (
(315,-93,o),
(235,-56,o),
(180,7,o),
(180,51,q),
(180,103,o),
(182,207,o),
(182,259,q),
(182,348,o),
(99,378,q),
(182,410,o),
(182,498,q),
(182,551,o),
(180,656,o),
(180,708,q),
(180,752,o),
(235,815,o),
(315,853,o),
(352,858,q),
(352,842,l),
(317,831,o),
(283,782,o),
(272,720,o),
(272,687,q),
(272,638,o),
(272,542,o),
(272,494,q),
(272,468,o),
(227,418,o),
(207,405,q),
(197,398,o),
(178,391,o),
(167,386,q),
(163,384,o),
(154,380,o),
(149,378,q),
(154,377,o),
(163,373,o),
(167,371,q),
(186,364,o),
(235,330,o),
(272,287,o),
(272,263,q),
(272,216,o),
(272,120,o),
(272,72,q),
(272,39,o),
(283,-23,o),
(317,-70,o),
(352,-82,q),
(352,-98,l)
);
}
);
userData = {
public.verticalOrigin = 880;
};
vertWidth = 1000;
width = 450;
}
);
unicode = 123;
}
{
glyphname = bar;
layers = (
{
layerId = m001;
shapes = (
{
closed = 1;
nodes = (
(90,-69,l),
(90,807,l),
(160,807,l),
(160,-69,l)
);
}
);
userData = {
public.verticalOrigin = 880;
};
vertWidth = 1000;
width = 250;
}
);
unicode = 124;
}
{
glyphname = braceright;
layers = (
{
layerId = m001;
shapes = (
{
closed = 1;
nodes = (
(268,348,o),
(268,259,q),
(268,207,o),
(270,103,o),
(270,51,q),
(270,7,o),
(215,-56,o),
(136,-93,o),
(98,-98,q),
(98,-82,l),
(134,-70,o),
(168,-23,o),
(178,39,o),
(178,72,q),
(178,120,o),
(179,216,o),
(179,263,q),
(179,287,o),
(216,330,o),
(265,364,o),
(283,371,q),
(288,373,o),
(297,377,o),
(302,378,q),
(297,380,o),
(288,384,o),
(283,386,q),
(273,391,o),
(253,398,o),
(243,405,q),
(223,418,o),
(179,468,o),
(179,494,q),
(179,542,o),
(178,638,o),
(178,687,q),
(178,720,o),
(167,782,o),
(133,831,o),
(98,842,q),
(98,858,l),
(136,853,o),
(215,815,o),
(270,752,o),
(270,708,q),
(270,656,o),
(268,551,o),
(268,498,q),
(268,410,o),
(351,378,q)
);
}
);
userData = {
public.verticalOrigin = 880;
};
vertWidth = 1000;
width = 450;
}
);
unicode = 125;
}
{
glyphname = asciitilde;
layers = (
{
layerId = m001;
shapes = (
{
closed = 1;
nodes = (
(634,273,o),
(547,226,o),
(499,226,q),
(453,226,o),
(368,261,o),
(290,306,o),
(218,341,o),
(185,341,q),
(147,341,o),
(76,311,o),
(46,289,q),
(24,321,l),
(44,343,o),
(100,382,o),
(164,408,o),
(194,408,q),
(243,408,o),
(328,374,o),
(406,329,o),
(482,295,o),
(521,295,q),
(556,295,o),
(619,328,o),
(645,348,q),
(665,310,l)
);
}
);
userData = {
public.verticalOrigin = 880;
};
vertWidth = 1000;
width = 700;
}
);
unicode = 126;
}
{
glyphname = exclamdown;
layers = (
{
layerId = m001;
shapes = (
{
closed = 1;
nodes = (
(280,-178,o),
(227,-213,o),
(200,-213,q),
(184,-213,o),
(146,-196,o),
(120,-167,o),
(120,-148,q),
(120,-128,o),
(126,-88,o),
(129,-68,q),
(143,36,o),
(171,243,o),
(184,347,q),
(219,347,l),
(227,243,o),
(254,35,o),
(270,-68,q),
(273,-88,o),
(280,-128,o),
(280,-148,q)
);
},
{
closed = 1;
nodes = (
(278,451,o),
(232,408,o),
(201,408,q),
(170,408,o),
(123,451,o),
(123,482,q),
(123,514,o),
(170,557,o),
(201,557,q),
(232,557,o),
(278,514,o),
(278,482,q)
);
}
);
userData = {
public.verticalOrigin = 880;
};
vertWidth = 1000;
width = 400;
}
);
unicode = 161;
}
{
glyphname = cent;
layers = (
{
layerId = m001;
shapes = (
{
closed = 1;
nodes = (
(287,582,o),
(240,501,o),
(222,407,o),
(222,362,q),
(222,322,o),
(242,231,o),
(289,156,o),
(330,138,q),
(330,604,l)
);
},
{
closed = 1;
nodes = (
(603,228,o),
(599,220,o),
(597,215,q),
(587,199,o),
(549,160,o),
(533,149,q),
(503,127,o),
(424,100,o),
(387,96,q),
(387,-20,l),
(330,-20,l),
(330,97,l),
(259,106,o),
(147,170,o),
(84,279,o),
(84,355,q),
(84,428,o),
(146,550,o),
(257,630,o),
(330,638,q),
(330,755,l),
(387,755,l),
(387,638,l),
(413,637,o),
(448,627,o),
(471,617,q),
(478,614,o),
(504,600,o),
(509,600,q),
(522,600,o),
(542,619,o),
(552,619,q),
(558,619,o),
(562,611,o),
(563,606,q),
(565,596,o),
(564,576,o),
(565,566,q),
(566,541,o),
(569,492,o),
(569,468,q),
(569,455,o),
(560,435,o),
(544,435,q),
(528,435,o),
(520,453,q),
(507,493,o),
(481,557,o),
(433,601,o),
(387,612,q),
(387,132,l),
(421,136,o),
(499,168,o),
(523,192,q),
(535,204,o),
(554,229,o),
(564,242,q),
(571,252,o),
(582,252,q),
(590,252,o),
(603,240,o),
(603,232,q)
);
}
);
userData = {
public.verticalOrigin = 880;
};
vertWidth = 1000;
width = 700;
}
);
unicode = 162;
}
{
glyphname = sterling;
layers = (
{
layerId = m001;
shapes = (
{
closed = 1;
nodes = (
(189,113,o),
(166,116,o),
(160,116,q),
(143,116,o),
(108,93,o),
(108,74,q),
(108,64,o),
(131,59,o),
(138,59,q),
(159,59,o),
(186,93,o),
(193,110,q)
);
},
{
closed = 1;
nodes = (
(649,113,o),
(626,66,o),
(617,54,q),
(592,19,o),
(525,-7,o),
(483,-7,q),
(421,-7,o),
(308,44,o),
(256,75,q),
(235,44,o),
(168,3,o),
(130,3,q),
(112,3,o),
(74,12,o),
(48,37,o),
(48,59,q),
(48,91,o),
(92,128,o),
(154,143,o),
(179,143,q),
(185,143,o),
(197,142,o),
(203,141,q),
(207,156,o),
(209,186,o),
(209,201,q),
(209,251,o),
(199,328,o),
(189,377,q),
(66,377,l),
(66,417,l),
(182,417,l),
(177,447,o),
(168,508,o),
(168,538,q),
(168,599,o),
(222,688,o),
(317,737,o),
(376,737,q),
(423,737,o),
(465,722,q),
(489,715,o),
(535,697,o),
(560,695,q),
(562,661,o),
(577,591,o),
(577,556,q),
(577,543,o),
(559,528,o),
(546,528,q),
(536,528,o),
(518,534,o),
(513,543,q),
(510,549,o),
(509,562,o),
(507,568,q),
(502,597,o),
(472,656,o),
(424,696,o),
(390,696,q),
(353,696,o),
(307,650,o),
(286,584,o),
(286,552,q),
(286,518,o),
(294,451,o),
(299,417,q),
(508,417,l),
(508,377,l),
(307,377,l),
(311,355,o),
(313,313,o),
(313,292,q),
(313,249,o),
(298,163,o),
(281,122,q),
(307,112,o),
(381,89,o),
(457,73,o),
(484,73,q),
(519,73,o),
(587,86,o),
(615,108,q),
(620,112,o),
(639,134,o),
(643,134,q),
(649,134,o),
(649,127,q)
);
}
);
userData = {
public.verticalOrigin = 880;
};
vertWidth = 1000;
width = 700;
}
);
unicode = 163;
}
{
glyphname = currency;
layers = (
{
layerId = m001;
shapes = (
{
closed = 1;
nodes = (
(442,362,o),
(400,442,o),
(327,492,o),
(281,492,q),
(235,492,o),
(162,442,o),
(120,362,o),
(120,317,q),
(120,273,o),
(162,192,o),
(236,141,o),
(282,141,q),
(328,141,o),
(400,193,o),
(442,274,o),
(442,317,q)
);
},
{
closed = 1;
nodes = (
(447,461,l),
(473,427,o),
(498,361,o),
(498,317,q),
(498,272,o),
(473,207,o),
(447,171,q),
(507,110,l),
(471,71,l),
(408,137,l),
(377,118,o),
(318,97,o),
(282,97,q),
(241,97,o),
(175,121,o),
(142,146,q),
(81,82,l),
(44,121,l),
(106,185,l),
(85,216,o),
(62,279,o),
(62,317,q),
(62,357,o),
(84,417,o),
(106,449,q),
(43,514,l),
(80,551,l),
(142,488,l),
(175,514,o),
(239,536,o),
(281,536,q),
(349,536,o),
(408,497,q),
(471,563,l),
(507,525,l)
);
}
);
userData = {
public.verticalOrigin = 880;
};
vertWidth = 1000;
width = 550;
}
);
unicode = 164;
}
{
glyphname = yen;
layers = (
{
layerId = m001;
shapes = (
{
closed = 1;
nodes = (
(678,703,o),
(660,697,o),
(634,697,o),
(608,695,o),
(600,686,q),
(593,679,o),
(572,647,o),
(554,616,o),
(549,607,q),
(519,560,o),
(462,463,o),
(431,416,q),
(628,416,l),
(628,376,l),
(409,376,l),
(409,274,l),
(628,274,l),
(628,233,l),
(409,233,l),
(409,56,l),
(409,42,o),
(432,32,o),
(443,32,q),
(452,32,o),
(470,34,o),
(478,34,q),
(487,34,o),
(502,23,o),
(502,14,q),
(502,4,o),
(483,-3,o),
(475,-3,q),
(463,-3,o),
(438,0,o),
(425,0,q),
(412,1,o),
(385,1,o),
(371,1,q),
(346,1,o),
(294,1,o),
(268,-1,q),
(256,-1,o),
(232,-3,o),
(219,-3,q),
(213,-3,o),
(200,10,o),
(200,16,q),
(200,24,o),
(213,34,o),
(220,34,q),
(228,34,o),
(245,33,o),
(253,33,q),
(280,33,o),
(290,50,o),
(290,75,q),
(290,233,l),
(79,233,l),
(79,274,l),
(290,274,l),
(290,376,l),
(79,376,l),
(79,416,l),
(274,416,l),
(240,484,o),
(161,613,o),
(119,676,q),
(112,686,o),
(100,700,o),
(87,700,q),
(78,700,o),
(61,699,o),
(53,699,q),
(46,699,o),
(35,708,o),
(35,715,q),
(35,723,o),
(50,732,o),
(57,732,q),
(94,732,o),
(168,731,o),
(205,731,q),
(213,731,o),
(227,728,o),
(232,720,q),
(234,717,o),
(237,711,o),
(238,708,q),
(270,635,o),
(340,493,o),
(376,422,q),
(383,432,o),
(416,488,o),
(458,559,o),
(497,629,o),
(522,680,o),
(522,687,q),
(522,697,o),
(514,702,o),
(505,702,q),
(494,702,o),
(473,701,o),
(462,701,q),
(452,701,o),
(441,705,o),
(441,717,q),
(441,727,o),
(455,732,o),
(463,732,q),
(489,732,o),
(540,731,o),
(565,731,q),
(589,731,o),
(636,734,o),
(660,734,q),
(678,734,o),
(678,715,q)
);
}
);
userData = {
public.verticalOrigin = 880;
};
vertWidth = 1000;
width = 700;
}
);
unicode = 165;
}
{
glyphname = brokenbar;
layers = (
{
layerId = m001;
shapes = (
{
closed = 1;
nodes = (
(156,-91,l),
(156,334,l),
(244,334,l),
(244,-91,l)
);
},
{
closed = 1;
nodes = (
(156,423,l),
(156,849,l),
(244,849,l),
(244,423,l)
);
}
);
userData = {
public.verticalOrigin = 880;
};
vertWidth = 1000;
width = 400;
}
);
unicode = 166;
}
{
glyphname = section;
layers = (
{
layerId = m001;
shapes = (
{
closed = 1;
nodes = (
(447,387,o),
(399,434,o),
(333,465,o),
(305,477,q),
(279,474,o),
(227,454,o),
(192,417,o),
(192,386,q),
(192,356,o),
(228,313,o),
(282,283,o),
(341,262,o),
(363,254,q),
(401,263,o),
(447,307,o),
(447,349,q)
);
},
{
closed = 1;
nodes = (
(545,325,o),
(501,275,o),
(437,242,o),
(407,232,q),
(441,217,o),
(501,172,o),
(539,111,o),
(539,70,q),
(539,30,o),
(501,-26,o),
(439,-61,o),
(367,-76,o),
(333,-76,q),
(295,-76,o),
(214,-67,o),
(144,-33,o),
(121,2,q),
(115,12,o),
(105,35,o),
(105,47,q),
(105,72,o),
(126,105,o),
(154,105,q),
(172,105,o),
(200,87,o),
(204,69,q),
(206,59,o),
(207,40,o),
(210,30,q),
(218,7,o),
(258,-28,o),
(308,-47,o),
(331,-47,q),
(379,-47,o),
(446,15,o),
(446,64,q),
(446,96,o),
(407,145,o),
(381,162,q),
(354,179,o),
(323,193,q),
(293,207,o),
(222,233,o),
(160,270,o),
(120,324,o),
(120,366,q),
(120,400,o),
(158,457,o),
(218,495,o),
(250,500,q),
(218,514,o),
(162,553,o),
(128,609,o),
(128,647,q),
(128,694,o),
(183,758,o),
(267,791,o),
(308,791,q),
(337,791,o),
(401,780,o),
(459,754,o),
(478,730,q),
(489,717,o),
(508,682,o),
(508,664,q),
(508,637,o),
(471,609,o),
(445,609,q),
(435,609,o),
(412,623,o),
(409,633,q),
(407,639,o),
(405,653,o),
(404,660,q),
(400,698,o),
(354,758,o),
(312,758,q),
(269,758,o),
(213,696,o),
(213,654,q),
(213,619,o),
(261,574,o),
(337,540,o),
(421,509,o),
(497,468,o),
(545,408,o),
(545,362,q)
);
}
);
userData = {
public.verticalOrigin = 880;
};
vertWidth = 1000;
width = 650;
}
);
unicode = 167;
}
{
glyphname = copyright;
layers = (
{
layerId = m001;
shapes = (
{
closed = 1;
nodes = (
(545,253,o),
(542,247,q),
(526,222,o),
(471,183,o),
(407,161,o),
(377,161,q),
(320,161,o),
(233,209,o),
(185,295,o),
(185,351,q),
(185,409,o),
(231,501,o),
(317,556,o),
(377,556,q),
(394,556,o),
(429,548,o),
(445,541,q),
(448,540,o),
(458,536,o),
(463,534,q),
(475,529,o),
(479,529,q),
(484,529,o),
(505,538,o),
(512,543,q),
(514,521,o),
(516,483,o),
(517,464,q),
(518,456,o),
(519,438,o),
(519,430,q),
(519,418,o),
(502,408,o),
(492,408,q),
(477,408,o),
(471,419,q),
(469,423,o),
(469,426,q),
(469,428,o),
(468,432,o),
(468,433,q),
(463,453,o),
(441,498,o),
(409,529,o),
(385,529,q),
(356,529,o),
(316,494,o),
(291,440,o),
(279,380,o),
(279,356,q),
(279,332,o),
(290,278,o),
(314,229,o),
(353,198,o),
(381,198,q),
(413,198,o),
(463,221,o),
(481,234,q),
(499,249,o),
(510,260,q),
(524,272,o),
(528,272,q),
(533,272,o),
(545,264,o),
(545,256,q)
);
},
{
closed = 1;
nodes = (
(665,436,o),
(619,542,o),
(537,622,o),
(430,667,o),
(370,667,q),
(309,667,o),
(202,622,o),
(121,542,o),
(75,436,o),
(75,375,q),
(75,314,o),
(121,208,o),
(202,128,o),
(309,83,o),
(370,83,q),
(430,83,o),
(537,128,o),
(619,208,o),
(665,314,o),
(665,375,q)
);
},
{
closed = 1;
nodes = (
(696,307,o),
(645,190,o),
(555,101,o),
(437,51,o),
(370,51,q),
(303,51,o),
(185,101,o),
(95,189,o),
(44,307,o),
(44,374,q),
(44,442,o),
(95,559,o),
(185,647,o),
(303,697,o),
(370,697,q),
(437,697,o),
(555,647,o),
(645,559,o),
(696,442,o),
(696,374,q)
);
}
);
userData = {
public.verticalOrigin = 880;
};
vertWidth = 1000;
width = 740;
}
);
unicode = 169;
}
{
glyphname = ordfeminine;
layers = (
{
layerId = m001;
shapes = (
{
closed = 1;
nodes = (
(241,502,o),
(240,558,o),
(239,586,q),
(215,585,o),
(164,561,o),
(130,520,o),
(130,493,q),
(130,471,o),
(151,434,o),
(176,434,q),
(194,434,o),
(232,459,o),
(242,473,q)
);
},
{
closed = 1;
nodes = (
(367,431,o),
(366,429,o),
(366,429,q),
(359,414,o),
(324,398,o),
(309,398,q),
(257,398,o),
(245,446,q),
(226,425,o),
(181,400,o),
(152,400,q),
(114,400,o),
(58,440,o),
(58,481,q),
(58,518,o),
(106,568,o),
(137,581,q),
(161,592,o),
(214,603,o),
(239,609,q),
(239,629,o),
(236,668,o),
(228,686,q),
(223,698,o),
(207,722,o),
(192,722,q),
(170,722,o),
(139,688,o),
(137,667,q),
(136,663,o),
(137,656,o),
(136,652,q),
(134,645,o),
(116,641,o),
(110,641,q),
(98,641,o),
(75,655,o),
(75,668,q),
(75,672,o),
(76,678,o),
(77,682,q),
(82,698,o),
(119,726,o),
(133,732,q),
(164,743,o),
(199,743,q),
(251,743,o),
(311,683,o),
(311,631,q),
(311,496,l),
(311,483,o),
(311,459,o),
(312,446,q),
(313,438,o),
(316,421,o),
(327,421,q),
(338,421,o),
(356,438,o),
(360,438,q),
(367,438,o),
(367,432,q)
);
}
);
userData = {
public.verticalOrigin = 880;
};
vertWidth = 1000;
width = 390;
}
);
unicode = 170;
}
{
glyphname = guillemetleft;
layers = (
{
layerId = m001;
shapes = (
{
closed = 1;
nodes = (
(117,250,l),
(284,56,l),
(199,56,l),
(41,250,l),
(199,442,l),
(284,442,l)
);
},
{
closed = 1;
nodes = (
(292,250,l),
(461,56,l),
(374,56,l),
(217,250,l),
(374,442,l),
(461,442,l)
);
}
);
userData = {
public.verticalOrigin = 880;
};
vertWidth = 1000;
width = 500;
}
);
unicode = 171;
}
{
glyphname = logicalnot;
layers = (
{
layerId = m001;
shapes = (
{
closed = 1;
nodes = (
(457,127,l),
(457,334,l),
(50,334,l),
(50,375,l),
(512,375,l),
(512,127,l)
);
}
);
userData = {
public.verticalOrigin = 880;
};
vertWidth = 1000;
width = 580;
}
);
unicode = 172;
}
{
glyphname = registered;
layers = (
{
layerId = m001;
shapes = (
{
closed = 1;
nodes = (
(441,503,o),
(416,533,o),
(372,542,o),
(343,542,q),
(336,542,o),
(310,540,o),
(310,530,q),
(310,496,o),
(308,429,o),
(308,395,q),
(323,392,o),
(338,392,q),
(364,392,o),
(411,405,o),
(441,439,o),
(441,469,q)
);
},
{
closed = 1;
nodes = (
(572,181,o),
(561,174,o),
(554,172,q),
(550,171,o),
(543,171,o),
(540,171,q),
(536,171,o),
(530,171,o),
(528,171,q),
(521,171,o),
(509,171,o),
(503,171,q),
(497,171,o),
(486,172,o),
(481,173,q),
(471,176,o),
(453,189,o),
(445,202,q),
(420,243,o),
(371,326,o),
(348,368,q),
(310,368,l),
(310,208,l),
(310,201,o),
(324,198,o),
(329,198,q),
(335,198,o),
(347,199,o),
(352,199,q),
(359,199,o),
(362,190,o),
(362,185,q),
(362,173,o),
(349,173,q),
(205,173,l),
(201,173,o),
(195,185,o),
(195,187,q),
(195,193,o),
(203,198,o),
(207,199,q),
(209,199,o),
(214,200,o),
(216,199,q),
(218,199,o),
(223,199,o),
(224,199,q),
(227,199,o),
(235,200,o),
(238,201,q),
(244,203,o),
(244,209,q),
(244,531,l),
(244,540,o),
(232,542,q),
(229,542,o),
(223,542,o),
(220,542,q),
(217,542,o),
(211,542,o),
(209,542,q),
(202,542,o),
(198,552,o),
(198,556,q),
(198,563,o),
(203,566,q),
(205,567,o),
(211,567,o),
(213,567,q),
(230,567,o),
(263,565,o),
(279,565,q),
(304,565,o),
(352,570,o),
(377,570,q),
(405,570,o),
(467,553,o),
(511,512,o),
(511,477,q),
(511,429,o),
(450,383,o),
(408,374,q),
(432,335,o),
(483,258,o),
(511,223,q),
(519,213,o),
(537,201,o),
(549,199,q),
(551,198,o),
(558,199,o),
(562,198,q),
(565,197,o),
(572,194,o),
(572,189,q)
);
},
{
closed = 1;
nodes = (
(665,436,o),
(619,542,o),
(537,622,o),
(430,667,o),
(370,667,q),
(309,667,o),
(202,622,o),
(121,542,o),
(75,436,o),
(75,375,q),
(75,314,o),
(121,208,o),
(202,128,o),
(309,83,o),
(370,83,q),
(430,83,o),
(537,128,o),
(619,208,o),
(665,314,o),
(665,375,q)
);
},
{
closed = 1;
nodes = (
(696,307,o),
(645,190,o),
(555,101,o),
(437,51,o),
(370,51,q),
(303,51,o),
(185,101,o),
(95,189,o),
(44,307,o),
(44,374,q),
(44,442,o),
(95,559,o),
(185,647,o),
(303,697,o),
(370,697,q),
(437,697,o),
(555,647,o),
(645,559,o),
(696,442,o),
(696,374,q)
);
}
);
userData = {
public.verticalOrigin = 880;
};
vertWidth = 1000;
width = 740;
}
);
unicode = 174;
}
{
glyphname = macron;
layers = (
{
layerId = m001;
shapes = (
{
closed = 1;
nodes = (
(121,680,l),
(121,731,l),
(379,731,l),
(379,680,l)
);
}
);
userData = {
public.verticalOrigin = 880;
};
vertWidth = 1000;
width = 500;
}
);
unicode = 175;
}
{
glyphname = degree;
layers = (
{
layerId = m001;
shapes = (
{
closed = 1;
nodes = (
(262,724,o),
(210,774,o),
(175,774,q),
(139,774,o),
(88,724,o),
(88,688,q),
(88,652,o),
(139,602,o),
(175,602,q),
(210,602,o),
(262,652,o),
(262,688,q)
);
},
{
closed = 1;
nodes = (
(293,656,o),
(261,603,o),
(207,572,o),
(175,572,q),
(143,572,o),
(90,603,o),
(58,656,o),
(58,688,q),
(58,720,o),
(89,773,o),
(143,805,o),
(175,805,q),
(207,805,o),
(261,774,o),
(293,721,o),
(293,688,q)
);
}
);
userData = {
public.verticalOrigin = 880;
};
vertWidth = 1000;
width = 350;
}
);
unicode = 176;
}
{
glyphname = plusminus;
layers = (
{
layerId = m001;
shapes = (
{
closed = 1;
nodes = (
(83,45,l),
(83,100,l),
(668,100,l),
(668,45,l)
);
},
{
closed = 1;
nodes = (
(403,401,l),
(403,164,l),
(347,164,l),
(347,401,l),
(83,401,l),
(83,456,l),
(347,456,l),
(347,664,l),
(403,664,l),
(403,456,l),
(668,456,l),
(668,401,l)
);
}
);
userData = {
public.verticalOrigin = 880;
};
vertWidth = 1000;
width = 750;
}
);
unicode = 177;
}
{
glyphname = twosuperior;
layers = (
{
layerId = m001;
shapes = (
{
closed = 1;
nodes = (
(353,473,o),
(339,435,o),
(337,425,q),
(334,415,o),
(330,393,o),
(328,382,q),
(323,378,o),
(315,378,q),
(302,378,o),
(275,380,o),
(261,380,q),
(208,380,o),
(102,376,o),
(49,376,q),
(45,376,o),
(33,380,o),
(33,386,q),
(33,413,o),
(70,471,o),
(124,527,o),
(179,575,o),
(197,593,q),
(218,613,o),
(251,665,o),
(251,696,q),
(251,714,o),
(240,754,o),
(215,781,o),
(193,781,q),
(187,781,o),
(166,776,o),
(160,773,q),
(139,764,o),
(122,735,o),
(117,704,o),
(114,676,o),
(100,658,o),
(81,658,q),
(66,658,o),
(39,678,o),
(39,694,q),
(39,723,o),
(72,765,o),
(123,791,o),
(180,803,o),
(204,803,q),
(236,803,o),
(296,780,o),
(336,734,o),
(336,698,q),
(336,659,o),
(306,607,o),
(258,569,o),
(202,536,o),
(175,518,q),
(165,511,o),
(128,480,o),
(96,448,o),
(91,437,q),
(89,431,o),
(89,428,q),
(91,426,o),
(92,426,q),
(127,426,o),
(199,427,o),
(234,429,q),
(268,431,o),
(300,450,o),
(313,473,o),
(323,490,o),
(335,490,q),
(339,490,o),
(353,485,o),
(353,480,q)
);
}
);
userData = {
public.verticalOrigin = 880;
};
vertWidth = 1000;
width = 390;
}
);
unicode = 178;
}
{
glyphname = threesuperior;
layers = (
{
layerId = m001;
shapes = (
{
closed = 1;
nodes = (
(345,463,o),
(293,399,o),
(210,371,o),
(164,371,q),
(134,371,o),
(74,389,o),
(57,417,q),
(53,425,o),
(48,441,o),
(48,450,q),
(48,464,o),
(73,485,o),
(86,485,q),
(101,485,o),
(113,467,o),
(120,441,o),
(130,414,o),
(155,396,o),
(180,396,q),
(210,396,o),
(248,432,o),
(266,486,o),
(266,512,q),
(266,544,o),
(228,597,o),
(194,597,q),
(180,597,o),
(154,591,o),
(140,591,q),
(135,591,o),
(122,600,o),
(122,605,q),
(122,616,o),
(141,622,o),
(164,621,o),
(170,621,q),
(209,621,o),
(247,671,o),
(247,707,q),
(247,725,o),
(235,764,o),
(209,790,o),
(188,790,q),
(163,790,o),
(128,753,o),
(123,730,q),
(122,723,o),
(121,710,o),
(119,703,q),
(117,695,o),
(106,683,o),
(96,683,q),
(82,683,o),
(51,705,o),
(51,721,q),
(51,732,o),
(61,753,o),
(68,761,q),
(92,791,o),
(164,813,o),
(200,813,q),
(232,813,o),
(289,792,o),
(324,748,o),
(324,712,q),
(324,675,o),
(272,624,o),
(241,612,q),
(284,609,o),
(345,562,o),
(345,515,q)
);
}
);
userData = {
public.verticalOrigin = 880;
};
vertWidth = 1000;
width = 390;
}
);
unicode = 179;
}
{
glyphname = mu;
layers = (
{
layerId = m001;
shapes = (
{
closed = 1;
nodes = (
(593,32,o),
(570,18,o),
(537,7,o),
(507,2,o),
(500,2,q),
(466,2,o),
(422,43,o),
(414,75,q),
(383,37,o),
(300,1,o),
(251,1,q),
(225,1,o),
(173,13,o),
(153,31,q),
(151,-9,o),
(146,-89,o),
(143,-130,q),
(142,-141,o),
(136,-157,o),
(125,-162,q),
(119,-165,o),
(95,-167,o),
(88,-167,q),
(75,-167,o),
(40,-156,o),
(40,-140,q),
(40,-140,o),
(50,-112,o),
(51,-109,q),
(57,-87,o),
(65,-43,o),
(69,-21,q),
(88,108,o),
(88,366,o),
(89,496,q),
(89,511,o),
(75,511,q),
(65,511,o),
(47,508,o),
(38,508,q),
(34,508,o),
(23,513,o),
(23,518,q),
(23,529,o),
(33,536,o),
(42,537,q),
(58,539,o),
(92,542,o),
(108,543,q),
(126,544,o),
(162,547,o),
(181,547,q),
(193,547,o),
(201,536,o),
(201,525,q),
(201,437,o),
(199,260,o),
(199,171,q),
(199,153,o),
(201,112,o),
(208,95,q),
(218,70,o),
(266,47,o),
(291,47,q),
(334,47,o),
(402,104,o),
(407,147,q),
(409,161,o),
(409,190,o),
(409,203,q),
(409,275,o),
(407,418,o),
(407,490,q),
(407,498,o),
(403,512,o),
(393,512,q),
(382,512,o),
(360,508,o),
(349,508,q),
(333,508,o),
(333,522,q),
(333,530,o),
(349,535,o),
(355,536,q),
(375,539,o),
(416,544,o),
(436,546,q),
(453,548,o),
(487,551,o),
(504,551,q),
(509,551,o),
(518,546,o),
(518,540,q),
(518,430,o),
(517,209,o),
(517,98,q),
(517,86,o),
(519,58,o),
(533,39,o),
(550,39,q),
(560,39,o),
(578,49,o),
(585,49,q),
(593,49,o),
(593,41,q)
);
}
);
userData = {
public.verticalOrigin = 880;
};
vertWidth = 1000;
width = 600;
}
);
unicode = 181;
}
{
glyphname = paragraph;
layers = (
{
layerId = m001;
shapes = (
{
closed = 1;
nodes = (
(563,761,l),
(563,-44,l),
(499,-44,l),
(499,761,l),
(428,761,l),
(428,-44,l),
(366,-44,l),
(366,439,l),
(314,444,o),
(222,480,o),
(165,553,o),
(165,613,q),
(165,659,o),
(208,728,o),
(245,752,q),
(275,772,o),
(355,796,o),
(390,796,q),
(635,796,l),
(635,761,l)
);
}
);
userData = {
public.verticalOrigin = 880;
};
vertWidth = 1000;
width = 800;
}
);
unicode = 182;
}
{
glyphname = periodcentered;
layers = (
{
layerId = m001;
shapes = (
{
closed = 1;
nodes = (
(229,275,o),
(183,229,o),
(150,229,q),
(117,229,o),
(71,275,o),
(71,308,q),
(71,341,o),
(117,387,o),
(150,387,q),
(183,387,o),
(229,341,o),
(229,308,q)
);
}
);
userData = {
public.verticalOrigin = 880;
};
vertWidth = 1000;
width = 300;
}
);
unicode = 183;
}
{
glyphname = cedilla;
layers = (
{
layerId = m001;
shapes = (
{
closed = 1;
nodes = (
(367,-125,o),
(336,-157,o),
(289,-172,o),
(239,-177,o),
(219,-177,q),
(198,-177,o),
(151,-163,o),
(131,-154,q),
(124,-151,o),
(93,-131,o),
(93,-123,q),
(93,-117,o),
(103,-112,o),
(108,-112,q),
(115,-112,o),
(135,-120,o),
(142,-122,q),
(180,-133,o),
(217,-133,q),
(227,-133,o),
(263,-127,o),
(292,-112,o),
(292,-99,q),
(292,-88,o),
(273,-75,o),
(248,-70,o),
(239,-70,q),
(217,-70,o),
(168,-84,o),
(147,-91,q),
(163,-60,o),
(192,2,o),
(205,33,q),
(256,26,l),
(246,9,o),
(225,-26,o),
(214,-43,q),
(238,-40,o),
(262,-40,q),
(282,-40,o),
(331,-47,o),
(367,-72,o),
(367,-98,q)
);
}
);
userData = {
public.verticalOrigin = 880;
};
vertWidth = 1000;
width = 500;
}
);
unicode = 184;
}
{
glyphname = onesuperior;
layers = (
{
layerId = m001;
shapes = (
{
closed = 1;
nodes = (
(335,375,o),
(323,375,q),
(295,375,l),
(276,375,o),
(240,376,o),
(221,376,q),
(203,376,o),
(168,375,o),
(150,375,q),
(124,375,l),
(113,375,o),
(113,386,q),
(113,400,o),
(125,400,q),
(135,400,o),
(155,399,o),
(165,399,q),
(176,399,o),
(185,415,o),
(185,425,q),
(185,763,l),
(182,762,o),
(154,753,o),
(121,743,o),
(97,736,o),
(96,736,q),
(92,736,o),
(85,746,o),
(85,750,q),
(85,758,o),
(90,766,o),
(98,768,q),
(130,776,o),
(203,799,o),
(232,812,q),
(242,817,o),
(252,817,q),
(259,817,o),
(262,809,o),
(262,804,q),
(262,755,o),
(260,657,o),
(260,608,q),
(260,425,l),
(260,412,o),
(268,399,o),
(282,399,q),
(292,399,o),
(312,400,o),
(322,400,q),
(335,400,o),
(335,386,q)
);
}
);
userData = {
public.verticalOrigin = 880;
};
vertWidth = 1000;
width = 390;
}
);
unicode = 185;
}
{
glyphname = ordmasculine;
layers = (
{
layerId = m001;
shapes = (
{
closed = 1;
nodes = (
(273,587,o),
(268,637,o),
(251,684,o),
(219,714,o),
(192,714,q),
(167,714,o),
(136,682,o),
(119,634,o),
(113,584,o),
(113,565,q),
(113,544,o),
(119,495,o),
(136,451,o),
(169,423,o),
(196,423,q),
(222,423,o),
(253,453,o),
(268,498,o),
(273,548,o),
(273,567,q)
);
},
{
closed = 1;
nodes = (
(354,517,o),
(314,442,o),
(241,398,o),
(193,398,q),
(146,398,o),
(75,442,o),
(36,517,o),
(36,563,q),
(36,610,o),
(75,690,o),
(147,740,o),
(196,740,q),
(277,740,o),
(354,640,o),
(354,564,q)
);
}
);
userData = {
public.verticalOrigin = 880;
};
vertWidth = 1000;
width = 390;
}
);
unicode = 186;
}
{
glyphname = guillemetright;
layers = (
{
layerId = m001;
shapes = (
{
closed = 1;
nodes = (
(129,56,l),
(41,56,l),
(211,250,l),
(41,442,l),
(129,442,l),
(285,250,l)
);
},
{
closed = 1;
nodes = (
(304,56,l),
(218,56,l),
(386,250,l),
(218,442,l),
(304,442,l),
(461,250,l)
);
}
);
userData = {
public.verticalOrigin = 880;
};
vertWidth = 1000;
width = 500;
}
);
unicode = 187;
}
{
glyphname = onequarter;
layers = (
{
layerId = m001;
shapes = (
{
closed = 1;
nodes = (
(781,101,l),
(781,151,o),
(782,248,o),
(782,297,q),
(646,101,l)
);
},
{
closed = 1;
nodes = (
(368,355,o),
(356,355,q),
(328,355,l),
(309,355,o),
(273,356,o),
(254,356,q),
(236,356,o),
(201,355,o),
(183,355,q),
(157,355,l),
(146,355,o),
(146,366,q),
(146,380,o),
(158,380,q),
(168,380,o),
(188,379,o),
(198,379,q),
(209,379,o),
(218,395,o),
(218,405,q),
(218,743,l),
(215,742,o),
(187,733,o),
(154,723,o),
(130,716,o),
(129,716,q),
(125,716,o),
(118,726,o),
(118,730,q),
(118,738,o),
(123,746,o),
(131,748,q),
(163,756,o),
(236,779,o),
(265,792,q),
(275,797,o),
(285,797,q),
(292,797,o),
(295,789,o),
(295,784,q),
(295,735,o),
(293,637,o),
(293,588,q),
(293,405,l),
(293,392,o),
(301,379,o),
(315,379,q),
(325,379,o),
(345,380,o),
(355,380,q),
(368,380,o),
(368,366,q)
);
},
{
closed = 1;
nodes = (
(214,-103,l),
(178,-76,l),
(810,832,l),
(845,808,l)
);
},
{
closed = 1;
nodes = (
(939,123,o),
(928,79,o),
(925,68,q),
(855,68,l),
(855,-12,l),
(855,-29,o),
(876,-35,o),
(904,-31,o),
(925,-33,o),
(925,-46,q),
(925,-58,o),
(912,-58,q),
(889,-58,o),
(842,-55,o),
(819,-55,q),
(796,-55,o),
(750,-58,o),
(727,-58,q),
(715,-58,o),
(715,-46,q),
(715,-34,o),
(735,-31,o),
(761,-34,o),
(781,-28,o),
(781,-12,q),
(781,68,l),
(603,68,l),
(597,68,o),
(592,79,o),
(592,83,q),
(592,91,o),
(597,98,q),
(614,125,o),
(651,176,o),
(669,201,q),
(701,248,o),
(766,339,o),
(800,385,q),
(806,393,o),
(826,406,o),
(836,406,q),
(856,406,o),
(856,384,q),
(856,101,l),
(879,101,l),
(899,101,o),
(916,120,o),
(924,139,o),
(931,139,q),
(939,139,o),
(939,133,q)
);
}
);
userData = {
public.verticalOrigin = 880;
};
vertWidth = 1000;
width = 1000;
}
);
unicode = 188;
}
{
glyphname = onehalf;
layers = (
{
layerId = m001;
shapes = (
{
closed = 1;
nodes = (
(381,346,o),
(368,346,q),
(343,346,o),
(293,349,o),
(267,349,q),
(242,349,o),
(192,346,o),
(167,346,q),
(156,346,o),
(156,359,q),
(156,371,o),
(168,371,q),
(178,371,o),
(198,370,o),
(208,370,q),
(219,370,o),
(228,387,o),
(228,396,q),
(228,743,l),
(220,742,o),
(180,728,o),
(143,715,o),
(139,715,q),
(132,715,o),
(128,730,o),
(128,735,q),
(128,741,o),
(136,746,o),
(141,747,q),
(166,753,o),
(216,768,o),
(240,777,q),
(250,781,o),
(289,796,o),
(298,796,q),
(305,796,o),
(308,788,o),
(308,783,q),
(308,700,l),
(308,672,o),
(306,616,o),
(306,587,q),
(306,396,l),
(306,383,o),
(314,370,o),
(328,370,q),
(338,370,o),
(358,371,o),
(368,371,q),
(381,371,o),
(381,359,q)
);
},
{
closed = 1;
nodes = (
(214,-103,l),
(178,-76,l),
(810,832,l),
(845,808,l)
);
},
{
closed = 1;
nodes = (
(930,47,o),
(916,9,o),
(914,-2,q),
(911,-12,o),
(907,-34,o),
(905,-45,q),
(899,-49,o),
(893,-49,q),
(880,-49,o),
(853,-47,o),
(839,-47,q),
(802,-47,o),
(727,-50,o),
(689,-50,q),
(673,-50,o),
(642,-52,o),
(626,-52,q),
(622,-52,o),
(610,-45,o),
(610,-41,q),
(610,-13,o),
(646,46,o),
(700,104,o),
(755,154,o),
(774,172,q),
(796,194,o),
(829,248,o),
(829,280,q),
(829,298,o),
(819,339,o),
(793,368,o),
(770,368,q),
(764,368,o),
(743,362,o),
(737,360,q),
(716,351,o),
(699,321,o),
(694,288,o),
(691,259,o),
(677,240,o),
(658,240,q),
(642,240,o),
(616,261,o),
(616,277,q),
(616,307,o),
(648,351,o),
(699,378,o),
(756,391,o),
(781,391,q),
(814,391,o),
(875,367,o),
(913,318,o),
(913,282,q),
(913,242,o),
(884,187,o),
(836,148,o),
(779,114,o),
(752,94,q),
(743,87,o),
(705,55,o),
(672,21,o),
(668,11,q),
(666,3,o),
(665,0,q),
(702,0,o),
(775,1,o),
(812,3,q),
(846,5,o),
(878,24,o),
(891,48,o),
(900,65,o),
(912,65,q),
(916,65,o),
(930,60,o),
(930,55,q)
);
}
);
userData = {
public.verticalOrigin = 880;
};
vertWidth = 1000;
width = 1000;
}
);
unicode = 189;
}
{
glyphname = threequarters;
layers = (
{
layerId = m001;
shapes = (
{
closed = 1;
nodes = (
(772,298,l),
(636,102,l),
(772,102,l)
);
},
{
closed = 1;
nodes = (
(408,435,o),
(355,367,o),
(272,332,o),
(227,332,q),
(197,332,o),
(123,355,o),
(105,382,q),
(101,389,o),
(92,408,o),
(92,416,q),
(92,433,o),
(121,459,o),
(137,459,q),
(148,459,o),
(155,444,o),
(156,436,q),
(158,427,o),
(162,410,o),
(166,402,q),
(175,384,o),
(211,361,o),
(230,361,q),
(263,361,o),
(305,397,o),
(325,452,o),
(325,481,q),
(325,515,o),
(281,567,o),
(245,567,q),
(231,567,o),
(202,561,o),
(188,561,q),
(183,561,o),
(173,570,o),
(173,576,q),
(173,581,o),
(182,591,o),
(187,591,q),
(221,591,l),
(261,591,o),
(305,641,o),
(305,680,q),
(305,709,o),
(273,763,o),
(239,763,q),
(213,763,o),
(172,727,o),
(167,702,q),
(165,694,o),
(163,671,o),
(154,654,o),
(140,654,q),
(127,654,o),
(94,679,o),
(94,693,q),
(94,715,o),
(111,734,q),
(137,765,o),
(213,788,o),
(250,788,q),
(283,788,o),
(345,767,o),
(385,722,o),
(385,684,q),
(385,646,o),
(327,594,o),
(295,582,q),
(339,579,o),
(408,533,o),
(408,484,q)
);
},
{
closed = 1;
nodes = (
(192,-119,l),
(156,-92,l),
(789,816,l),
(824,792,l)
);
},
{
closed = 1;
nodes = (
(929,124,o),
(918,80,o),
(916,69,q),
(845,69,l),
(845,-11,l),
(845,-28,o),
(866,-34,o),
(894,-30,o),
(915,-32,o),
(915,-45,q),
(915,-58,o),
(903,-58,q),
(880,-58,o),
(833,-55,o),
(810,-55,q),
(787,-55,o),
(740,-58,o),
(717,-58,q),
(706,-58,o),
(706,-45,q),
(706,-33,o),
(726,-30,o),
(752,-33,o),
(772,-27,o),
(772,-11,q),
(772,69,l),
(593,69,l),
(589,69,o),
(582,77,o),
(582,80,q),
(582,91,o),
(588,99,q),
(638,171,o),
(738,315,o),
(790,385,q),
(796,393,o),
(816,407,o),
(826,407,q),
(846,407,o),
(846,384,q),
(846,102,l),
(869,102,l),
(890,102,o),
(906,120,o),
(914,139,o),
(921,139,q),
(929,139,o),
(929,132,q)
);
}
);
userData = {
public.verticalOrigin = 880;
};
vertWidth = 1000;
width = 1000;
}
);
unicode = 190;
}
{
glyphname = questiondown;
layers = (
{
layerId = m001;
shapes = (
{
closed = 1;
nodes = (
(508,-47,o),
(497,-82,o),
(488,-98,q),
(455,-157,o),
(336,-207,o),
(271,-207,q),
(218,-207,o),
(117,-175,o),
(52,-101,o),
(52,-39,q),
(52,-2,o),
(92,70,o),
(120,92,q),
(149,115,o),
(197,139,o),
(236,174,o),
(251,213,q),
(261,239,o),
(265,318,o),
(266,346,q),
(300,346,l),
(303,326,o),
(307,284,o),
(307,264,q),
(307,243,o),
(305,201,o),
(300,180,q),
(293,148,o),
(264,105,o),
(231,70,o),
(201,31,o),
(182,-23,o),
(182,-65,q),
(182,-110,o),
(224,-180,o),
(276,-180,q),
(322,-180,o),
(388,-124,o),
(388,-76,q),
(388,-62,o),
(378,-37,o),
(378,-24,q),
(378,8,o),
(425,33,o),
(453,33,q),
(479,33,o),
(508,-5,o),
(508,-29,q)
);
},
{
closed = 1;
nodes = (
(352,451,o),
(308,407,o),
(278,407,q),
(248,407,o),
(204,451,o),
(204,481,q),
(204,511,o),
(248,555,o),
(278,555,q),
(308,555,o),
(352,511,o),
(352,481,q)
);
}
);
userData = {
public.verticalOrigin = 880;
};
vertWidth = 1000;
width = 560;
}
);
unicode = 191;
}
{
glyphname = Aacute;
layers = (
{
layerId = m001;
shapes = (
{
closed = 1;
nodes = (
(435,382,o),
(376,550,o),
(349,635,q),
(320,550,o),
(263,382,o),
(234,297,q),
(463,297,l)
);
},
{
closed = 1;
nodes = (
(763,-5,o),
(744,-5,q),
(738,-5,o),
(726,-5,o),
(719,-4,q),
(694,-2,o),
(641,-2,o),
(615,-2,q),
(582,-2,o),
(516,-2,o),
(482,-4,q),
(478,-5,o),
(470,-5,o),
(466,-5,q),
(452,-5,o),
(452,9,q),
(452,21,o),
(469,26,o),
(491,24,o),
(498,24,q),
(516,24,o),
(533,39,o),
(533,58,q),
(533,69,o),
(519,124,o),
(499,190,o),
(480,247,o),
(476,259,q),
(221,259,l),
(219,253,o),
(205,211,o),
(186,155,o),
(168,101,o),
(156,62,o),
(156,58,q),
(156,39,o),
(176,25,o),
(206,24,o),
(220,24,q),
(225,24,o),
(231,11,o),
(231,6,q),
(231,0,o),
(222,-6,o),
(217,-6,q),
(184,-6,o),
(119,-3,o),
(87,-3,q),
(71,-3,o),
(39,-5,o),
(22,-5,q),
(17,-5,o),
(7,3,o),
(7,8,q),
(7,19,o),
(23,25,o),
(44,24,o),
(51,24,q),
(64,24,o),
(81,45,o),
(85,55,q),
(144,203,o),
(250,502,o),
(300,653,q),
(304,664,o),
(316,704,o),
(316,714,q),
(316,720,o),
(311,729,o),
(311,733,q),
(311,737,o),
(331,741,o),
(353,743,o),
(356,743,q),
(377,746,o),
(418,752,o),
(439,754,q),
(684,63,l),
(692,39,o),
(719,26,o),
(742,26,q),
(751,26,o),
(763,21,o),
(763,10,q)
);
},
{
closed = 1;
nodes = (
(258,774,l),
(244,826,l),
(511,904,l),
(530,828,l)
);
}
);
userData = {
public.verticalOrigin = 880;
};
vertWidth = 1000;
width = 774;
}
);
unicode = 193;
}
{
glyphname = Aring;
layers = (
{
layerId = m001;
shapes = (
{
closed = 1;
nodes = (
(434,379,o),
(375,541,o),
(349,623,q),
(321,541,o),
(264,379,o),
(235,297,q),
(462,297,l)
);
},
{
closed = 1;
nodes = (
(446,852,o),
(411,885,o),
(386,885,q),
(362,885,o),
(325,852,o),
(325,826,q),
(325,801,o),
(362,771,o),
(386,771,q),
(410,771,o),
(446,801,o),
(446,826,q)
);
},
{
closed = 1;
nodes = (
(763,-5,o),
(744,-5,q),
(738,-5,o),
(726,-5,o),
(719,-4,q),
(694,-2,o),
(641,-2,o),
(615,-2,q),
(582,-2,o),
(516,-2,o),
(482,-4,q),
(478,-5,o),
(470,-5,o),
(466,-5,q),
(452,-5,o),
(452,9,q),
(452,21,o),
(469,26,o),
(491,24,o),
(498,24,q),
(516,24,o),
(533,39,o),
(533,58,q),
(533,69,o),
(518,124,o),
(497,190,o),
(478,247,o),
(474,259,q),
(222,259,l),
(220,253,o),
(205,211,o),
(186,155,o),
(168,101,o),
(156,62,o),
(156,58,q),
(156,39,o),
(176,25,o),
(206,24,o),
(220,24,q),
(225,24,o),
(231,11,o),
(231,6,q),
(231,0,o),
(222,-6,o),
(217,-6,q),
(184,-6,o),
(119,-3,o),
(87,-3,q),
(71,-3,o),
(39,-5,o),
(22,-5,q),
(17,-5,o),
(7,3,o),
(7,8,q),
(7,19,o),
(23,25,o),
(44,24,o),
(51,24,q),
(64,24,o),
(81,45,o),
(85,55,q),
(143,200,o),
(251,493,o),
(300,641,q),
(304,652,o),
(316,692,o),
(316,702,q),
(316,708,o),
(311,717,o),
(311,721,q),
(311,726,o),
(317,726,q),
(328,728,o),
(350,728,o),
(361,729,q),
(381,731,o),
(421,736,o),
(440,738,q),
(684,63,l),
(692,39,o),
(719,26,o),
(742,26,q),
(751,26,o),
(763,21,o),
(763,10,q)
);
},
{
closed = 1;
nodes = (
(475,789,o),
(421,744,o),
(386,744,q),
(350,744,o),
(297,789,o),
(297,826,q),
(297,863,o),
(350,912,o),
(386,912,q),
(421,912,o),
(475,863,o),
(475,826,q)
);
}
);
userData = {
public.verticalOrigin = 880;
};
vertWidth = 1000;
width = 774;
}
);
unicode = 197;
}
{
glyphname = AE;
layers = (
{
layerId = m001;
shapes = (
{
closed = 1;
nodes = (
(456,672,l),
(456,677,o),
(445,683,o),
(441,684,q),
(406,606,o),
(334,450,o),
(299,371,q),
(456,371,l)
);
},
{
closed = 1;
nodes = (
(901,158,o),
(895,118,o),
(893,98,q),
(891,78,o),
(889,37,o),
(885,17,q),
(883,4,o),
(870,-4,o),
(856,-4,q),
(772,-4,o),
(603,-1,o),
(519,-1,q),
(486,-1,o),
(419,-6,o),
(386,-6,q),
(379,-6,o),
(367,7,o),
(367,14,q),
(367,27,o),
(385,33,o),
(412,33,o),
(439,38,o),
(457,58,o),
(457,83,q),
(456,328,l),
(280,328,l),
(276,319,o),
(248,258,o),
(212,179,o),
(177,102,o),
(154,49,o),
(154,46,q),
(154,33,o),
(176,29,o),
(185,29,q),
(195,29,o),
(214,31,o),
(224,31,q),
(231,31,o),
(244,23,o),
(244,15,q),
(244,6,o),
(232,-1,o),
(224,-1,q),
(193,-1,o),
(131,0,o),
(100,0,q),
(81,0,o),
(43,-2,o),
(23,-2,q),
(7,-2,o),
(7,17,q),
(7,25,o),
(20,31,o),
(27,31,q),
(33,31,o),
(44,30,o),
(50,30,q),
(64,30,o),
(76,47,o),
(82,57,q),
(87,65,o),
(95,82,o),
(99,90,q),
(171,239,o),
(311,538,o),
(378,689,q),
(368,689,o),
(348,688,o),
(337,688,q),
(326,688,o),
(316,703,o),
(316,713,q),
(316,721,o),
(328,735,o),
(335,735,q),
(362,735,o),
(417,733,o),
(444,733,q),
(584,733,l),
(626,733,o),
(710,734,o),
(752,735,q),
(781,736,o),
(838,737,o),
(866,739,q),
(870,708,o),
(880,648,o),
(886,618,q),
(888,612,o),
(890,601,o),
(890,595,q),
(890,570,o),
(867,570,q),
(855,570,o),
(844,578,o),
(839,588,q),
(823,626,o),
(790,672,o),
(738,693,o),
(695,693,q),
(581,693,l),
(581,401,l),
(610,401,o),
(667,402,o),
(695,406,q),
(724,410,o),
(780,426,o),
(809,426,q),
(812,426,o),
(819,418,o),
(819,415,q),
(819,412,o),
(813,390,o),
(805,370,o),
(803,367,q),
(791,353,o),
(775,353,q),
(758,353,o),
(740,356,q),
(714,358,o),
(661,361,o),
(635,361,q),
(615,361,o),
(581,344,o),
(581,321,q),
(581,79,l),
(581,49,o),
(609,37,o),
(634,37,q),
(718,37,l),
(750,37,o),
(788,51,o),
(808,76,q),
(826,98,o),
(848,148,o),
(861,173,q),
(865,181,o),
(875,192,o),
(884,192,q),
(901,192,o),
(901,178,q)
);
}
);
userData = {
public.verticalOrigin = 880;
};
vertWidth = 1000;
width = 930;
}
);
unicode = 198;
}
{
glyphname = Ccedilla;
layers = (
{
layerId = m001;
shapes = (
{
closed = 1;
nodes = (
(706,158,o),
(697,140,o),
(694,135,q),
(681,112,o),
(636,67,o),
(614,52,q),
(568,19,o),
(467,-2,o),
(411,-2,q),
(399,-2,o),
(374,-1,o),
(362,0,q),
(353,-14,o),
(332,-42,o),
(323,-57,q),
(334,-55,o),
(354,-55,o),
(364,-55,q),
(384,-55,o),
(434,-62,o),
(471,-87,o),
(471,-114,q),
(471,-142,o),
(441,-174,o),
(394,-190,o),
(343,-195,o),
(323,-195,q),
(301,-195,o),
(252,-181,o),
(232,-171,q),
(225,-167,o),
(195,-148,o),
(195,-140,q),
(195,-134,o),
(211,-129,o),
(215,-129,q),
(226,-129,o),
(244,-137,o),
(253,-140,q),
(284,-150,o),
(321,-150,q),
(331,-150,o),
(362,-143,o),
(388,-128,o),
(388,-115,q),
(388,-100,o),
(355,-85,o),
(342,-85,q),
(318,-85,o),
(269,-102,o),
(246,-110,q),
(260,-80,o),
(287,-19,o),
(300,12,q),
(219,35,o),
(116,138,o),
(67,279,o),
(67,358,q),
(67,464,o),
(145,636,o),
(298,737,o),
(409,737,q),
(442,737,o),
(491,726,o),
(538,707,o),
(567,696,q),
(588,689,o),
(630,683,o),
(652,681,q),
(653,659,o),
(657,613,o),
(660,591,q),
(662,571,o),
(672,531,o),
(672,511,q),
(672,493,o),
(645,475,o),
(628,475,q),
(615,475,o),
(594,485,o),
(589,498,q),
(586,506,o),
(584,524,o),
(582,532,q),
(575,564,o),
(540,638,o),
(516,660,q),
(498,677,o),
(437,705,o),
(411,705,q),
(386,705,o),
(343,683,o),
(323,667,q),
(280,631,o),
(230,530,o),
(210,418,o),
(210,363,q),
(210,327,o),
(219,255,o),
(229,220,q),
(243,174,o),
(296,91,o),
(375,40,o),
(427,40,q),
(452,40,o),
(509,54,o),
(531,64,q),
(574,83,o),
(623,137,o),
(649,174,q),
(656,183,o),
(667,193,o),
(680,193,q),
(693,193,o),
(706,174,o),
(706,163,q)
);
}
);
userData = {
public.verticalOrigin = 880;
};
vertWidth = 1000;
width = 725;
}
);
unicode = 199;
}
{
glyphname = Idieresis;
layers = (
{
layerId = m001;
shapes = (
{
closed = 1;
nodes = (
(345,696,o),
(329,696,q),
(317,696,o),
(292,697,o),
(280,697,q),
(270,697,o),
(262,680,o),
(262,671,q),
(262,636,o),
(261,565,o),
(261,530,q),
(261,420,o),
(262,199,o),
(262,89,q),
(262,82,o),
(260,52,o),
(267,27,o),
(278,27,q),
(291,27,o),
(317,29,o),
(330,29,q),
(337,29,o),
(343,18,o),
(343,11,q),
(343,4,o),
(334,-7,o),
(326,-7,q),
(292,-7,o),
(225,-5,o),
(191,-5,q),
(157,-5,o),
(89,-7,o),
(55,-7,q),
(45,-7,o),
(39,1,o),
(39,10,q),
(39,18,o),
(46,29,o),
(54,29,q),
(65,29,o),
(87,27,o),
(97,27,q),
(111,27,o),
(121,45,o),
(123,70,o),
(123,79,q),
(124,653,l),
(124,662,o),
(120,697,o),
(108,698,q),
(105,698,o),
(100,698,o),
(97,698,q),
(87,698,o),
(68,696,o),
(58,696,q),
(39,696,o),
(39,715,q),
(39,722,o),
(48,732,o),
(55,732,q),
(98,732,o),
(183,728,o),
(226,728,q),
(252,728,o),
(305,732,o),
(331,732,q),
(339,732,o),
(345,720,o),
(345,713,q)
);
},
{
closed = 1;
nodes = (
(162,795,o),
(122,762,o),
(99,762,q),
(77,762,o),
(37,795,o),
(37,819,q),
(37,843,o),
(77,876,o),
(99,876,q),
(122,876,o),
(162,843,o),
(162,819,q)
);
},
{
closed = 1;
nodes = (
(376,795,o),
(337,762,o),
(314,762,q),
(291,762,o),
(251,795,o),
(251,819,q),
(251,843,o),
(291,876,o),
(314,876,q),
(337,876,o),
(376,843,o),
(376,819,q)
);
}
);
userData = {
public.verticalOrigin = 880;
};
vertWidth = 1000;
width = 413;
}
);
unicode = 207;
}
{
glyphname = Eth;
layers = (
{
layerId = m001;
shapes = (
{
closed = 1;
nodes = (
(615,429,o),
(591,542,o),
(537,637,o),
(446,694,o),
(379,694,q),
(348,694,o),
(287,692,o),
(256,691,q),
(256,398,l),
(368,398,l),
(368,348,l),
(256,348,l),
(256,79,l),
(256,54,o),
(269,31,o),
(297,31,q),
(348,31,o),
(458,47,o),
(499,79,q),
(543,114,o),
(594,210,o),
(615,318,o),
(615,372,q)
);
},
{
closed = 1;
nodes = (
(760,323,o),
(726,199,o),
(657,93,o),
(602,57,q),
(567,34,o),
(476,5,o),
(381,-7,o),
(339,-7,q),
(305,-7,o),
(237,-2,o),
(203,-2,q),
(178,-2,o),
(129,-3,o),
(105,-5,q),
(95,-6,o),
(77,-7,o),
(68,-7,q),
(50,-7,o),
(50,9,q),
(50,19,o),
(69,25,o),
(92,28,o),
(98,30,q),
(115,38,o),
(121,72,o),
(121,88,q),
(121,153,o),
(121,283,o),
(121,348,q),
(46,348,l),
(46,398,l),
(121,398,l),
(121,449,l),
(121,501,o),
(122,604,o),
(119,655,q),
(119,656,o),
(118,670,o),
(118,671,q),
(114,687,o),
(74,690,o),
(60,690,q),
(52,690,o),
(30,695,o),
(30,707,q),
(30,713,o),
(42,726,o),
(49,726,q),
(72,726,o),
(120,723,o),
(143,723,q),
(213,723,o),
(351,733,o),
(421,733,q),
(530,733,o),
(681,649,o),
(760,494,o),
(760,386,q)
);
}
);
userData = {
public.verticalOrigin = 880;
};
vertWidth = 1000;
width = 821;
}
);
unicode = 208;
}
{
glyphname = Ntilde;
layers = (
{
layerId = m001;
shapes = (
{
closed = 1;
nodes = (
(766,699,o),
(747,699,q),
(739,699,o),
(723,701,o),
(715,701,q),
(711,701,o),
(701,700,o),
(696,700,q),
(686,700,o),
(680,675,o),
(680,646,o),
(680,640,q),
(680,17,l),
(680,10,o),
(677,0,o),
(668,-1,q),
(654,-3,o),
(622,-2,o),
(608,-3,q),
(600,23,o),
(571,71,o),
(555,93,q),
(463,227,o),
(258,477,o),
(164,609,q),
(164,474,o),
(163,205,o),
(163,70,q),
(163,61,o),
(168,34,o),
(180,34,q),
(194,34,o),
(223,36,o),
(236,36,q),
(244,36,o),
(249,21,o),
(249,16,q),
(249,9,o),
(242,-3,o),
(234,-3,q),
(217,-3,o),
(183,1,o),
(166,1,q),
(143,1,o),
(95,0,o),
(72,-2,q),
(63,-3,o),
(46,-4,o),
(38,-4,q),
(18,-4,o),
(18,17,q),
(18,25,o),
(30,36,o),
(37,36,q),
(47,36,o),
(65,33,o),
(75,33,q),
(90,33,o),
(105,42,o),
(105,60,q),
(105,198,o),
(110,474,o),
(110,612,q),
(110,625,o),
(110,649,o),
(110,662,q),
(110,675,o),
(101,701,o),
(85,701,q),
(73,701,o),
(48,699,o),
(35,699,q),
(18,699,o),
(18,718,q),
(18,736,o),
(36,736,q),
(62,736,o),
(114,734,o),
(139,734,q),
(162,734,o),
(209,735,o),
(232,735,q),
(291,655,o),
(422,506,o),
(482,427,q),
(517,380,o),
(589,286,o),
(626,240,q),
(626,346,o),
(627,558,o),
(627,664,q),
(627,673,o),
(622,700,o),
(609,700,q),
(582,700,l),
(576,700,o),
(564,697,o),
(558,697,q),
(539,697,o),
(539,718,q),
(539,730,o),
(553,735,o),
(563,735,q),
(583,735,o),
(622,733,o),
(641,733,q),
(667,733,o),
(720,737,o),
(746,737,q),
(754,737,o),
(766,726,o),
(766,718,q)
);
},
{
closed = 1;
nodes = (
(531,837,o),
(488,793,o),
(450,793,q),
(423,793,o),
(376,815,o),
(338,837,o),
(322,837,q),
(314,837,o),
(288,817,o),
(265,794,o),
(259,787,q),
(226,807,l),
(249,840,o),
(297,891,o),
(341,891,q),
(366,891,o),
(408,871,o),
(446,850,o),
(465,850,q),
(480,850,o),
(516,879,o),
(524,890,q),
(554,862,l)
);
}
);
userData = {
public.verticalOrigin = 880;
};
vertWidth = 1000;
width = 780;
}
);
unicode = 209;
}
{
glyphname = Odieresis;
layers = (
{
layerId = m001;
shapes = (
{
closed = 1;
nodes = (
(617,401,o),
(605,494,o),
(577,586,o),
(529,663,o),
(458,710,o),
(409,710,q),
(360,710,o),
(288,663,o),
(239,586,o),
(209,494,o),
(196,401,o),
(196,363,q),
(196,325,o),
(210,234,o),
(240,143,o),
(289,68,o),
(361,23,o),
(409,23,q),
(459,23,o),
(530,68,o),
(577,142,o),
(605,232,o),
(617,324,o),
(617,363,q)
);
},
{
closed = 1;
nodes = (
(762,252,o),
(682,84,o),
(525,-8,o),
(409,-8,q),
(295,-8,o),
(137,85,o),
(55,252,o),
(55,363,q),
(55,441,o),
(104,578,o),
(197,682,o),
(328,740,o),
(409,740,q),
(523,740,o),
(681,645,o),
(762,476,o),
(762,365,q)
);
},
{
closed = 1;
nodes = (
(364,794,o),
(323,762,o),
(300,762,q),
(277,762,o),
(235,794,o),
(235,819,q),
(235,843,o),
(277,876,o),
(300,876,q),
(323,876,o),
(364,843,o),
(364,819,q)
);
},
{
closed = 1;
nodes = (
(585,794,o),
(543,762,o),
(520,762,q),
(498,762,o),
(456,794,o),
(456,819,q),
(456,843,o),
(498,876,o),
(520,876,q),
(543,876,o),
(585,843,o),
(585,819,q)
);
}
);
userData = {
public.verticalOrigin = 880;
};
vertWidth = 1000;
width = 820;
}
);
unicode = 214;
}
{
glyphname = multiply;
layers = (
{
layerId = m001;
shapes = (
{
closed = 1;
nodes = (
(601,99,l),
(377,320,l),
(149,94,l),
(109,137,l),
(336,363,l),
(116,580,l),
(156,622,l),
(376,402,l),
(595,619,l),
(637,577,l),
(418,361,l),
(642,140,l)
);
}
);
userData = {
public.verticalOrigin = 880;
};
vertWidth = 1000;
width = 750;
}
);
unicode = 215;
}
{
glyphname = Oslash;
layers = (
{
layerId = m001;
shapes = (
{
closed = 1;
nodes = (
(610,412,o),
(599,498,o),
(587,540,q),
(253,141,l),
(277,94,o),
(354,32,o),
(409,32,q),
(457,32,o),
(526,77,o),
(572,152,o),
(599,241,o),
(610,332,o),
(610,369,q)
);
},
{
closed = 1;
nodes = (
(546,644,o),
(468,714,o),
(409,714,q),
(368,714,o),
(304,674,o),
(258,609,o),
(228,535,o),
(220,501,q),
(205,435,o),
(205,369,q),
(205,324,o),
(219,231,o),
(233,189,q),
(568,593,l)
);
},
{
closed = 1;
nodes = (
(756,257,o),
(679,92,o),
(525,1,o),
(409,1,q),
(351,1,o),
(238,31,o),
(191,67,q),
(119,-19,l),
(82,6,l),
(157,97,l),
(105,152,o),
(65,296,o),
(65,369,q),
(65,446,o),
(111,582,o),
(200,685,o),
(328,744,o),
(409,744,q),
(469,744,o),
(586,710,o),
(633,671,q),
(716,770,l),
(754,738,l),
(669,637,l),
(717,582,o),
(756,440,o),
(756,369,q)
);
}
);
userData = {
public.verticalOrigin = 880;
};
vertWidth = 1000;
width = 820;
}
);
unicode = 216;
}
{
glyphname = Udieresis;
layers = (
{
layerId = m001;
shapes = (
{
closed = 1;
nodes = (
(743,708,o),
(734,695,o),
(726,695,q),
(713,695,o),
(687,696,o),
(674,696,q),
(661,696,o),
(655,671,o),
(655,661,q),
(655,656,o),
(656,645,o),
(656,640,q),
(656,549,o),
(657,369,o),
(657,279,q),
(657,147,o),
(527,-6,o),
(390,-6,q),
(255,-6,o),
(105,124,o),
(105,264,q),
(105,309,l),
(105,395,o),
(106,568,o),
(106,655,q),
(106,664,o),
(102,695,o),
(90,696,q),
(77,697,o),
(50,695,o),
(37,695,q),
(30,695,o),
(18,706,o),
(18,713,q),
(18,721,o),
(29,733,o),
(37,733,q),
(49,733,o),
(72,731,o),
(83,730,q),
(106,729,o),
(152,728,o),
(174,728,q),
(197,728,o),
(240,728,o),
(262,729,q),
(276,730,o),
(303,733,o),
(316,733,q),
(324,733,o),
(333,721,o),
(333,713,q),
(333,706,o),
(324,695,o),
(316,695,q),
(303,695,o),
(278,697,o),
(265,697,q),
(255,697,o),
(249,680,o),
(248,672,q),
(247,656,o),
(248,624,o),
(248,608,q),
(248,518,o),
(245,339,o),
(245,249,q),
(245,206,o),
(252,129,o),
(280,69,o),
(341,35,o),
(395,35,q),
(467,35,o),
(553,102,o),
(591,211,o),
(591,275,q),
(591,374,o),
(583,572,o),
(583,671,q),
(583,686,o),
(569,697,o),
(555,697,q),
(545,697,o),
(526,695,o),
(515,695,q),
(508,695,o),
(496,705,o),
(496,713,q),
(496,721,o),
(507,733,o),
(515,733,q),
(531,733,o),
(561,730,o),
(577,729,q),
(587,728,o),
(607,728,o),
(617,728,q),
(628,728,o),
(651,728,o),
(662,729,q),
(678,729,o),
(709,733,o),
(725,733,q),
(743,733,o),
(743,715,q)
);
},
{
closed = 1;
nodes = (
(332,794,o),
(291,762,o),
(268,762,q),
(245,762,o),
(203,794,o),
(203,819,q),
(203,843,o),
(245,876,o),
(268,876,q),
(291,876,o),
(332,843,o),
(332,819,q)
);
},
{
closed = 1;
nodes = (
(553,794,o),
(511,762,o),
(488,762,q),
(466,762,o),
(424,794,o),
(424,819,q),
(424,843,o),
(466,876,o),
(488,876,q),
(511,876,o),
(553,843,o),
(553,819,q)
);
}
);
userData = {
public.verticalOrigin = 880;
};
vertWidth = 1000;
width = 756;
}
);
unicode = 220;
}
{
glyphname = Yacute;
layers = (
{
layerId = m001;
shapes = (
{
closed = 1;
nodes = (
(704,702,o),
(681,701,o),
(670,701,q),
(663,701,o),
(645,700,o),
(639,697,q),
(633,695,o),
(618,677,o),
(615,671,q),
(563,585,o),
(461,412,o),
(410,326,q),
(411,262,o),
(410,133,o),
(410,69,q),
(410,56,o),
(418,27,o),
(434,27,q),
(448,27,o),
(475,29,o),
(488,29,q),
(496,29,o),
(505,18,o),
(505,11,q),
(505,4,o),
(494,-5,o),
(488,-5,q),
(457,-5,o),
(395,-1,o),
(364,-1,q),
(334,-1,o),
(275,-1,o),
(246,-3,q),
(234,-4,o),
(210,-5,o),
(198,-5,q),
(179,-5,o),
(179,12,q),
(179,30,o),
(197,30,q),
(208,30,o),
(228,28,o),
(238,28,q),
(259,28,o),
(272,43,o),
(271,69,o),
(271,84,q),
(272,267,l),
(272,298,o),
(255,347,o),
(243,374,q),
(225,416,o),
(184,498,o),
(163,539,q),
(146,573,o),
(109,643,o),
(88,674,q),
(83,682,o),
(62,695,o),
(52,695,q),
(45,695,o),
(29,692,o),
(21,692,q),
(13,692,o),
(0,702,o),
(0,710,q),
(0,726,o),
(17,728,q),
(35,730,o),
(71,732,o),
(89,733,q),
(115,736,o),
(168,742,o),
(194,742,q),
(206,742,o),
(217,733,o),
(222,722,q),
(260,632,o),
(339,454,o),
(379,365,q),
(388,379,o),
(426,445,o),
(471,528,o),
(512,611,o),
(538,676,o),
(538,690,q),
(538,699,o),
(527,704,o),
(519,704,q),
(509,704,o),
(490,701,o),
(480,701,q),
(458,701,o),
(458,720,q),
(458,736,o),
(476,736,q),
(505,736,o),
(563,733,o),
(592,733,q),
(616,733,o),
(664,736,o),
(688,736,q),
(704,736,o),
(704,718,q)
);
},
{
closed = 1;
nodes = (
(217,774,l),
(203,826,l),
(470,904,l),
(490,828,l)
);
}
);
userData = {
public.verticalOrigin = 880;
};
vertWidth = 1000;
width = 693;
}
);
unicode = 221;
}
{
glyphname = Thorn;
layers = (
{
layerId = m001;
shapes = (
{
closed = 1;
nodes = (
(530,494,o),
(432,570,o),
(360,570,q),
(324,570,l),
(305,570,o),
(267,564,o),
(248,560,q),
(248,271,l),
(271,256,o),
(329,246,o),
(356,246,q),
(439,246,o),
(530,335,o),
(530,417,q)
);
},
{
closed = 1;
nodes = (
(659,348,o),
(607,264,o),
(519,221,o),
(411,207,o),
(354,207,q),
(328,207,o),
(275,213,o),
(249,217,q),
(249,98,l),
(249,85,o),
(252,56,o),
(268,35,o),
(285,35,q),
(293,35,o),
(310,36,o),
(318,36,q),
(327,36,o),
(346,28,o),
(346,17,q),
(346,1,o),
(320,-7,o),
(308,-7,q),
(281,-7,o),
(226,-3,o),
(199,-3,q),
(165,-3,o),
(95,-8,o),
(60,-8,q),
(50,-8,o),
(34,3,o),
(34,14,q),
(34,26,o),
(51,33,o),
(73,33,o),
(81,34,q),
(113,39,o),
(129,81,o),
(129,109,q),
(129,192,o),
(130,360,o),
(130,443,q),
(130,499,o),
(129,611,o),
(129,666,q),
(129,696,o),
(102,696,q),
(89,696,o),
(64,697,o),
(51,697,q),
(41,697,o),
(26,709,o),
(26,719,q),
(26,728,o),
(43,739,o),
(50,739,q),
(182,739,l),
(217,739,o),
(286,742,o),
(320,742,q),
(331,742,o),
(343,735,o),
(343,723,q),
(343,713,o),
(327,704,o),
(318,704,q),
(307,704,o),
(284,703,o),
(273,703,q),
(263,703,o),
(248,691,o),
(248,680,q),
(248,661,o),
(248,623,o),
(247,604,q),
(288,605,o),
(370,610,o),
(410,610,q),
(456,610,o),
(545,590,o),
(616,545,o),
(659,472,o),
(659,418,q)
);
}
);
userData = {
public.verticalOrigin = 880;
};
vertWidth = 1000;
width = 742;
}
);
unicode = 222;
}
{
glyphname = germandbls;
layers = (
{
layerId = m001;
shapes = (
{
closed = 1;
nodes = (
(579,143,o),
(544,49,o),
(467,-6,o),
(404,-6,q),
(360,-6,o),
(294,38,o),
(280,81,q),
(283,102,o),
(284,144,o),
(287,165,q),
(288,172,o),
(293,184,o),
(302,184,q),
(310,184,o),
(313,167,o),
(314,162,q),
(316,142,o),
(333,88,o),
(366,47,o),
(391,47,q),
(416,47,o),
(444,94,o),
(457,161,o),
(460,225,o),
(460,242,q),
(460,298,o),
(417,389,o),
(361,409,q),
(348,414,o),
(324,427,o),
(324,444,q),
(324,455,o),
(336,471,o),
(343,479,q),
(367,506,o),
(385,574,o),
(385,610,q),
(385,637,o),
(374,694,o),
(341,733,o),
(307,733,q),
(272,733,o),
(232,683,o),
(214,610,o),
(210,535,o),
(210,511,q),
(210,69,l),
(210,57,o),
(216,31,o),
(232,31,q),
(242,31,o),
(261,32,o),
(271,32,q),
(277,32,o),
(283,20,o),
(283,15,q),
(283,8,o),
(277,-3,o),
(269,-3,q),
(259,-3,o),
(238,-1,o),
(227,0,q),
(206,2,o),
(163,2,o),
(142,2,q),
(117,2,o),
(67,-2,o),
(42,-2,q),
(35,-2,o),
(23,5,o),
(23,14,q),
(23,26,o),
(35,32,o),
(45,32,q),
(53,32,o),
(69,31,o),
(76,31,q),
(93,31,o),
(103,49,o),
(103,64,q),
(103,411,l),
(88,411,o),
(58,409,o),
(43,409,q),
(35,409,o),
(22,416,o),
(22,425,q),
(22,436,o),
(36,443,o),
(45,443,q),
(59,443,o),
(89,442,o),
(103,442,q),
(100,475,o),
(100,508,q),
(100,555,o),
(121,645,o),
(168,719,o),
(243,763,o),
(297,763,q),
(341,763,o),
(425,726,o),
(481,658,o),
(481,610,q),
(481,570,o),
(452,514,o),
(413,477,o),
(382,453,o),
(381,445,q),
(385,439,o),
(427,424,o),
(485,397,o),
(541,347,o),
(579,264,o),
(579,200,q)
);
}
);
userData = {
public.verticalOrigin = 880;
};
vertWidth = 1000;
width = 615;
}
);
unicode = 223;
}
{
glyphname = atilde;
layers = (
{
layerId = m001;
shapes = (
{
closed = 1;
nodes = (
(331,153,o),
(329,248,o),
(330,296,q),
(289,289,o),
(212,252,o),
(162,190,o),
(162,142,q),
(162,122,o),
(173,76,o),
(202,45,o),
(227,45,q),
(245,45,o),
(285,66,o),
(322,94,o),
(334,106,q)
);
},
{
closed = 1;
nodes = (
(540,43,o),
(533,33,o),
(530,30,q),
(499,-6,o),
(450,-6,q),
(407,-6,o),
(355,32,o),
(341,72,q),
(309,38,o),
(236,-2,o),
(187,-2,q),
(152,-2,o),
(81,29,o),
(34,87,o),
(34,125,q),
(34,163,o),
(73,222,o),
(133,265,o),
(164,279,q),
(204,296,o),
(288,315,o),
(330,325,q),
(330,329,l),
(330,347,o),
(329,408,o),
(317,469,o),
(289,512,o),
(262,512,q),
(231,512,o),
(182,476,o),
(172,446,q),
(170,437,o),
(168,420,o),
(166,411,q),
(164,395,o),
(131,384,o),
(117,384,q),
(100,384,o),
(68,399,o),
(68,420,q),
(68,428,o),
(73,441,o),
(76,448,q),
(92,486,o),
(156,522,o),
(233,534,o),
(268,534,q),
(350,534,o),
(456,446,o),
(456,360,q),
(456,209,l),
(455,181,o),
(456,122,o),
(458,93,q),
(460,76,o),
(472,45,o),
(493,45,q),
(507,45,o),
(526,57,o),
(534,57,q),
(538,57,o),
(540,49,o),
(540,47,q)
);
},
{
closed = 1;
nodes = (
(410,708,o),
(367,664,o),
(329,664,q),
(303,664,o),
(256,686,o),
(218,707,o),
(203,707,q),
(195,707,o),
(172,686,o),
(150,662,o),
(145,655,q),
(108,681,l),
(130,713,o),
(178,765,o),
(222,765,q),
(247,765,o),
(288,744,o),
(326,723,o),
(344,723,q),
(358,723,o),
(391,758,o),
(400,768,q),
(432,733,l)
);
}
);
userData = {
public.verticalOrigin = 880;
};
vertWidth = 1000;
width = 544;
}
);
unicode = 227;
}
{
glyphname = adieresis;
layers = (
{
layerId = m001;
shapes = (
{
closed = 1;
nodes = (
(331,153,o),
(329,248,o),
(330,296,q),
(289,289,o),
(212,252,o),
(162,190,o),
(162,142,q),
(162,122,o),
(173,76,o),
(202,45,o),
(227,45,q),
(245,45,o),
(285,66,o),
(322,94,o),
(334,106,q)
);
},
{
closed = 1;
nodes = (
(540,43,o),
(533,33,o),
(530,30,q),
(499,-6,o),
(450,-6,q),
(407,-6,o),
(355,32,o),
(341,72,q),
(309,38,o),
(236,-2,o),
(187,-2,q),
(152,-2,o),
(81,29,o),
(34,87,o),
(34,125,q),
(34,163,o),
(73,222,o),
(133,265,o),
(164,279,q),
(204,296,o),
(288,315,o),
(330,325,q),
(330,329,l),
(330,347,o),
(329,408,o),
(317,469,o),
(289,512,o),
(262,512,q),
(231,512,o),
(182,476,o),
(172,446,q),
(170,437,o),
(168,420,o),
(166,411,q),
(164,395,o),
(131,384,o),
(117,384,q),
(100,384,o),
(68,399,o),
(68,420,q),
(68,428,o),
(73,441,o),
(76,448,q),
(92,486,o),
(156,522,o),
(233,534,o),
(268,534,q),
(350,534,o),
(456,446,o),
(456,360,q),
(456,209,l),
(455,181,o),
(456,122,o),
(458,93,q),
(460,76,o),
(472,45,o),
(493,45,q),
(507,45,o),
(526,57,o),
(534,57,q),
(538,57,o),
(540,49,o),
(540,47,q)
);
},
{
closed = 1;
nodes = (
(227,672,o),
(186,639,o),
(163,639,q),
(141,639,o),
(99,672,o),
(99,696,q),
(99,720,o),
(141,753,o),
(163,753,q),
(186,753,o),
(227,720,o),
(227,696,q)
);
},
{
closed = 1;
nodes = (
(445,672,o),
(404,639,o),
(381,639,q),
(358,639,o),
(317,672,o),
(317,696,q),
(317,720,o),
(358,753,o),
(381,753,q),
(404,753,o),
(445,720,o),
(445,696,q)
);
}
);
userData = {
public.verticalOrigin = 880;
};
vertWidth = 1000;
width = 544;
}
);
unicode = 228;
}
{
glyphname = ae;
layers = (
{
layerId = m001;
shapes = (
{
closed = 1;
nodes = (
(352,171,o),
(351,260,o),
(350,304,q),
(348,304,l),
(317,304,o),
(250,283,o),
(191,243,o),
(154,187,o),
(154,152,q),
(154,113,o),
(195,57,o),
(238,57,q),
(258,57,o),
(304,80,o),
(347,113,o),
(360,127,q)
);
},
{
closed = 1;
nodes = (
(685,388,o),
(681,443,o),
(665,492,o),
(628,524,o),
(596,524,q),
(566,524,o),
(522,492,o),
(493,442,o),
(475,386,o),
(470,362,q),
(490,360,o),
(530,359,o),
(550,359,q),
(584,359,o),
(651,362,o),
(685,364,q)
);
},
{
closed = 1;
nodes = (
(824,127,o),
(821,119,o),
(820,117,q),
(810,99,o),
(767,58,o),
(750,45,q),
(716,20,o),
(637,-4,o),
(595,-4,q),
(561,-4,o),
(476,12,o),
(403,49,o),
(385,82,q),
(342,48,o),
(253,3,o),
(197,3,q),
(157,3,o),
(88,32,o),
(46,91,o),
(46,135,q),
(46,175,o),
(84,236,o),
(144,281,o),
(178,295,q),
(219,312,o),
(307,329,o),
(350,338,q),
(350,347,l),
(350,377,o),
(345,436,o),
(332,463,q),
(322,483,o),
(290,520,o),
(265,520,q),
(225,520,o),
(176,466,o),
(167,429,q),
(166,425,o),
(164,414,o),
(162,410,q),
(158,403,o),
(141,391,o),
(132,391,q),
(112,391,o),
(73,408,o),
(73,433,q),
(73,446,o),
(77,455,q),
(86,481,o),
(146,526,o),
(171,534,q),
(194,542,o),
(251,551,o),
(276,551,q),
(319,551,o),
(400,520,o),
(426,484,q),
(461,517,o),
(553,553,o),
(601,553,q),
(694,553,o),
(804,445,o),
(804,351,q),
(804,332,o),
(788,320,o),
(771,320,q),
(749,320,o),
(705,323,o),
(683,324,q),
(658,326,o),
(608,326,o),
(583,326,q),
(553,326,o),
(494,325,o),
(464,324,q),
(463,309,o),
(461,279,o),
(461,264,q),
(461,232,o),
(475,155,o),
(508,84,o),
(562,39,o),
(602,39,q),
(650,39,o),
(717,73,o),
(762,118,o),
(791,152,o),
(801,152,q),
(824,152,o),
(824,128,q)
);
}
);
userData = {
public.verticalOrigin = 880;
};
vertWidth = 1000;
width = 869;
}
);
unicode = 230;
}
{
glyphname = ccedilla;
layers = (
{
layerId = m001;
shapes = (
{
closed = 1;
nodes = (
(507,131,o),
(503,122,o),
(501,118,q),
(480,79,o),
(406,23,o),
(316,-5,o),
(272,-2,q),
(264,-16,o),
(245,-44,o),
(237,-58,q),
(258,-55,o),
(281,-55,q),
(301,-55,o),
(351,-63,o),
(387,-88,o),
(387,-115,q),
(387,-142,o),
(357,-175,o),
(311,-190,o),
(260,-195,o),
(240,-195,q),
(218,-195,o),
(170,-181,o),
(150,-171,q),
(143,-168,o),
(114,-149,o),
(114,-141,q),
(114,-134,o),
(129,-129,o),
(133,-129,q),
(144,-129,o),
(162,-137,o),
(171,-140,q),
(204,-151,o),
(238,-151,q),
(248,-151,o),
(279,-144,o),
(304,-129,o),
(304,-116,q),
(304,-100,o),
(272,-85,o),
(259,-85,q),
(235,-85,o),
(187,-102,o),
(165,-110,q),
(176,-80,o),
(207,-23,o),
(219,7,q),
(129,31,o),
(33,165,o),
(33,258,q),
(33,336,o),
(93,465,o),
(208,543,o),
(290,543,q),
(320,543,o),
(347,534,q),
(367,527,o),
(399,509,o),
(418,500,q),
(420,500,o),
(422,499,o),
(423,499,q),
(435,499,o),
(454,518,o),
(462,518,q),
(468,518,o),
(472,510,o),
(473,505,q),
(475,495,o),
(474,476,o),
(475,466,q),
(476,441,o),
(479,392,o),
(479,367,q),
(479,355,o),
(471,335,o),
(456,335,q),
(446,335,o),
(436,344,o),
(434,353,q),
(422,389,o),
(395,459,o),
(366,486,q),
(355,497,o),
(316,518,o),
(300,518,q),
(284,518,o),
(253,506,o),
(240,495,q),
(210,468,o),
(175,389,o),
(161,303,o),
(161,264,q),
(161,234,o),
(174,156,o),
(204,82,o),
(256,33,o),
(294,33,q),
(347,33,o),
(428,87,o),
(458,127,q),
(461,132,o),
(467,141,o),
(471,145,q),
(479,153,o),
(487,153,q),
(495,153,o),
(507,143,o),
(507,135,q)
);
}
);
userData = {
public.verticalOrigin = 880;
};
vertWidth = 1000;
width = 540;
}
);
unicode = 231;
}
{
glyphname = ecircumflex;
layers = (
{
layerId = m001;
shapes = (
{
closed = 1;
nodes = (
(378,371,o),
(374,427,o),
(359,480,o),
(327,516,o),
(299,516,q),
(272,516,o),
(231,481,o),
(203,428,o),
(187,371,o),
(183,349,q),
(200,349,o),
(233,348,o),
(249,348,q),
(314,348,o),
(378,351,q)
);
},
{
closed = 1;
nodes = (
(522,127,o),
(519,116,o),
(517,113,q),
(510,97,o),
(472,56,o),
(457,45,q),
(390,-6,o),
(302,-6,q),
(223,-6,o),
(107,61,o),
(45,181,o),
(45,259,q),
(45,337,o),
(106,464,o),
(221,539,o),
(302,539,q),
(395,539,o),
(507,437,o),
(507,342,q),
(507,316,o),
(483,316,q),
(439,316,o),
(351,318,o),
(307,318,q),
(275,318,o),
(211,318,o),
(179,317,q),
(176,287,o),
(176,256,q),
(176,228,o),
(191,152,o),
(222,80,o),
(272,33,o),
(308,33,q),
(353,33,o),
(414,59,o),
(462,107,o),
(487,140,q),
(490,144,o),
(497,149,o),
(502,149,q),
(509,149,o),
(522,138,o),
(522,130,q)
);
},
{
closed = 1;
nodes = (
(437,630,l),
(271,685,l),
(109,632,l),
(98,677,l),
(273,760,l),
(447,675,l)
);
}
);
userData = {
public.verticalOrigin = 880;
};
vertWidth = 1000;
width = 545;
}
);
unicode = 234;
}
{
glyphname = idieresis;
layers = (
{
layerId = m001;
shapes = (
{
closed = 1;
nodes = (
(314,-4,o),
(298,-4,q),
(269,-4,o),
(209,1,o),
(179,1,q),
(149,1,o),
(88,-4,o),
(58,-4,q),
(51,-4,o),
(45,7,o),
(45,12,q),
(45,28,o),
(60,28,q),
(70,28,o),
(88,26,o),
(97,26,q),
(109,26,o),
(116,42,o),
(116,52,q),
(116,449,l),
(116,459,o),
(112,484,o),
(98,484,q),
(85,484,o),
(57,480,o),
(43,480,q),
(37,480,o),
(26,486,o),
(26,493,q),
(26,506,o),
(39,510,q),
(50,512,o),
(75,515,o),
(86,516,q),
(121,521,o),
(188,536,o),
(222,544,q),
(225,544,o),
(231,545,o),
(233,545,q),
(248,545,o),
(248,533,q),
(248,413,o),
(246,172,o),
(246,52,q),
(246,34,o),
(262,25,o),
(287,27,o),
(300,27,q),
(314,27,o),
(314,12,q)
);
},
{
closed = 1;
nodes = (
(137,672,o),
(98,639,o),
(75,639,q),
(52,639,o),
(13,672,o),
(13,696,q),
(13,720,o),
(52,753,o),
(75,753,q),
(98,753,o),
(137,720,o),
(137,696,q)
);
},
{
closed = 1;
nodes = (
(331,672,o),
(292,639,o),
(269,639,q),
(247,639,o),
(207,672,o),
(207,696,q),
(207,720,o),
(247,753,o),
(269,753,q),
(292,753,o),
(331,720,o),
(331,696,q)
);
}
);
userData = {
public.verticalOrigin = 880;
};
vertWidth = 1000;
width = 344;
}
);
unicode = 239;
}
{
glyphname = eth;
layers = (
{
layerId = m001;
shapes = (
{
closed = 1;
nodes = (
(436,302,o),
(427,388,o),
(398,466,o),
(340,516,o),
(292,516,q),
(248,516,o),
(194,463,o),
(166,383,o),
(157,297,o),
(157,264,q),
(157,228,o),
(166,145,o),
(195,71,o),
(252,24,o),
(300,24,q),
(346,24,o),
(401,73,o),
(428,148,o),
(436,232,o),
(436,266,q)
);
},
{
closed = 1;
nodes = (
(558,205,o),
(497,71,o),
(379,-10,o),
(295,-10,q),
(219,-10,o),
(105,64,o),
(41,187,o),
(41,261,q),
(41,318,o),
(76,421,o),
(143,503,o),
(239,550,o),
(299,550,q),
(369,550,o),
(427,509,q),
(414,559,o),
(355,664,o),
(325,705,q),
(225,637,l),
(188,681,l),
(287,752,l),
(265,775,o),
(214,810,o),
(188,826,q),
(182,829,o),
(162,841,o),
(162,849,q),
(162,873,o),
(185,873,q),
(210,873,o),
(267,844,o),
(318,803,o),
(335,786,q),
(429,853,l),
(466,803,l),
(377,741,l),
(459,645,o),
(558,412,o),
(558,284,q)
);
}
);
userData = {
public.verticalOrigin = 880;
};
vertWidth = 1000;
width = 620;
}
);
unicode = 240;
}
{
glyphname = ntilde;
layers = (
{
layerId = m001;
shapes = (
{
closed = 1;
nodes = (
(609,-2,o),
(593,-2,q),
(564,-2,o),
(505,1,o),
(476,1,q),
(448,1,o),
(390,-2,o),
(361,-2,q),
(354,-2,o),
(348,9,o),
(348,15,q),
(348,30,o),
(364,30,q),
(373,30,o),
(391,29,o),
(400,29,q),
(415,29,o),
(415,42,q),
(415,126,o),
(416,294,o),
(416,378,q),
(416,405,o),
(407,463,o),
(376,503,o),
(341,503,q),
(319,503,o),
(272,471,o),
(235,427,o),
(227,408,q),
(227,54,l),
(227,45,o),
(232,29,o),
(243,29,q),
(251,29,o),
(268,30,o),
(276,30,q),
(281,30,o),
(291,22,o),
(291,17,q),
(291,-2,o),
(275,-2,q),
(247,-2,o),
(192,3,o),
(163,3,q),
(133,3,o),
(72,-2,o),
(41,-2,q),
(34,-2,o),
(28,9,o),
(28,15,q),
(28,30,o),
(44,30,q),
(53,30,o),
(71,29,o),
(81,29,q),
(95,29,o),
(99,41,o),
(99,54,q),
(99,199,l),
(99,260,o),
(99,382,o),
(99,443,q),
(99,454,o),
(93,481,o),
(78,481,q),
(68,481,o),
(49,479,o),
(39,479,q),
(33,479,o),
(18,484,o),
(18,492,q),
(18,498,o),
(26,504,o),
(31,505,q),
(41,508,o),
(63,510,o),
(73,512,q),
(99,517,o),
(150,530,o),
(175,537,q),
(179,539,o),
(187,542,o),
(191,542,q),
(199,542,o),
(212,512,o),
(221,478,o),
(222,471,q),
(251,497,o),
(333,538,o),
(373,538,q),
(440,538,o),
(515,504,o),
(547,425,o),
(547,359,q),
(547,281,o),
(545,125,o),
(545,47,q),
(545,37,o),
(558,28,o),
(568,28,q),
(575,28,o),
(588,30,o),
(595,30,q),
(609,30,o),
(609,14,q)
);
},
{
closed = 1;
nodes = (
(457,680,o),
(414,636,o),
(375,636,q),
(349,636,o),
(302,658,o),
(264,680,o),
(248,680,q),
(240,680,o),
(216,659,o),
(195,634,o),
(190,627,q),
(153,653,l),
(176,685,o),
(224,737,o),
(267,737,q),
(292,737,o),
(334,717,o),
(372,696,o),
(390,696,q),
(405,696,o),
(438,731,o),
(447,741,q),
(479,705,l)
);
}
);
userData = {
public.verticalOrigin = 880;
};
vertWidth = 1000;
width = 632;
}
);
unicode = 241;
}
{
glyphname = otilde;
layers = (
{
layerId = m001;
shapes = (
{
closed = 1;
nodes = (
(439,296,o),
(430,381,o),
(402,461,o),
(349,514,o),
(304,514,q),
(263,514,o),
(213,462,o),
(186,384,o),
(176,301,o),
(176,271,q),
(176,238,o),
(185,153,o),
(213,73,o),
(267,21,o),
(312,21,q),
(354,21,o),
(405,72,o),
(431,149,o),
(439,232,o),
(439,263,q)
);
},
{
closed = 1;
nodes = (
(575,181,o),
(505,62,o),
(384,-6,o),
(307,-6,q),
(230,-6,o),
(112,66,o),
(45,188,o),
(45,264,q),
(45,343,o),
(111,468,o),
(231,541,o),
(311,541,q),
(399,541,o),
(516,470,o),
(575,343,o),
(575,258,q)
);
},
{
closed = 1;
nodes = (
(450,689,o),
(407,645,o),
(369,645,q),
(343,645,o),
(296,667,o),
(258,688,o),
(243,688,q),
(235,688,o),
(211,667,o),
(190,643,o),
(185,636,q),
(147,661,l),
(170,694,o),
(218,746,o),
(262,746,q),
(287,746,o),
(328,725,o),
(366,704,o),
(384,704,q),
(399,704,o),
(431,739,o),
(440,749,q),
(473,714,l)
);
}
);
userData = {
public.verticalOrigin = 880;
};
vertWidth = 1000;
width = 620;
}
);
unicode = 245;
}
{
glyphname = divide;
layers = (
{
layerId = m001;
shapes = (
{
closed = 1;
nodes = (
(435,126,o),
(400,91,o),
(375,91,q),
(350,91,o),
(315,126,o),
(315,151,q),
(315,176,o),
(350,211,o),
(375,211,q),
(400,211,o),
(435,176,o),
(435,151,q)
);
},
{
closed = 1;
nodes = (
(73,334,l),
(73,391,l),
(678,391,l),
(678,334,l)
);
},
{
closed = 1;
nodes = (
(435,548,o),
(400,513,o),
(375,513,q),
(350,513,o),
(315,548,o),
(315,573,q),
(315,598,o),
(350,633,o),
(375,633,q),
(400,633,o),
(435,598,o),
(435,573,q)
);
}
);
userData = {
public.verticalOrigin = 880;
};
vertWidth = 1000;
width = 750;
}
);
unicode = 247;
}
{
glyphname = oslash;
layers = (
{
layerId = m001;
shapes = (
{
closed = 1;
nodes = (
(450,289,o),
(445,352,o),
(437,383,q),
(192,94,l),
(209,57,o),
(271,14,o),
(313,14,q),
(360,14,o),
(414,63,o),
(442,139,o),
(450,222,o),
(450,257,q)
);
},
{
closed = 1;
nodes = (
(399,469,o),
(342,507,o),
(305,507,q),
(260,507,o),
(205,455,o),
(175,375,o),
(165,289,o),
(165,255,q),
(165,230,o),
(169,178,o),
(174,153,q),
(416,437,l)
);
},
{
closed = 1;
nodes = (
(574,176,o),
(506,53,o),
(386,-18,o),
(308,-18,q),
(263,-18,o),
(178,9,o),
(143,37,q),
(87,-26,l),
(50,8,l),
(106,75,l),
(76,112,o),
(47,204,o),
(47,251,q),
(47,328,o),
(112,460,o),
(231,540,o),
(312,540,q),
(352,540,o),
(432,520,o),
(466,497,q),
(517,556,l),
(555,519,l),
(506,462,l),
(544,419,o),
(574,309,o),
(574,253,q)
);
}
);
userData = {
public.verticalOrigin = 880;
};
vertWidth = 1000;
width = 620;
}
);
unicode = 248;
}
{
glyphname = udieresis;
layers = (
{
layerId = m001;
shapes = (
{
closed = 1;
nodes = (
(617,29,o),
(607,23,q),
(580,4,o),
(534,-4,o),
(502,-4,q),
(471,-4,o),
(428,48,o),
(423,76,q),
(394,36,o),
(315,-7,o),
(265,-7,q),
(169,-7,o),
(89,82,o),
(89,176,q),
(89,243,l),
(89,295,o),
(90,398,o),
(90,450,q),
(90,461,o),
(84,487,o),
(69,487,q),
(63,487,o),
(52,485,o),
(46,485,q),
(39,485,o),
(21,489,o),
(21,498,q),
(21,506,o),
(28,512,o),
(34,513,q),
(45,516,o),
(71,518,o),
(82,519,q),
(137,526,o),
(195,540,q),
(201,542,o),
(206,542,q),
(220,542,o),
(220,529,q),
(220,443,o),
(216,270,o),
(216,184,q),
(216,160,o),
(219,107,o),
(234,61,o),
(270,33,o),
(302,33,q),
(336,33,o),
(392,86,o),
(405,114,q),
(406,116,o),
(412,131,o),
(412,132,q),
(412,212,o),
(411,371,o),
(411,450,q),
(411,461,o),
(405,487,o),
(390,487,q),
(384,487,o),
(372,485,o),
(365,485,q),
(358,485,o),
(341,489,o),
(341,498,q),
(341,506,o),
(348,512,o),
(354,513,q),
(365,516,o),
(391,518,o),
(403,519,q),
(459,527,o),
(514,540,q),
(517,541,o),
(522,542,o),
(525,542,q),
(540,542,o),
(540,529,q),
(540,420,o),
(538,201,o),
(538,91,q),
(538,81,o),
(540,56,o),
(552,37,o),
(566,37,q),
(577,37,o),
(599,48,o),
(607,48,q),
(612,48,o),
(617,41,o),
(617,37,q)
);
},
{
closed = 1;
nodes = (
(268,672,o),
(227,639,o),
(204,639,q),
(182,639,o),
(140,672,o),
(140,696,q),
(140,720,o),
(182,753,o),
(204,753,q),
(227,753,o),
(268,720,o),
(268,696,q)
);
},
{
closed = 1;
nodes = (
(488,672,o),
(447,639,o),
(424,639,q),
(401,639,o),
(360,672,o),
(360,696,q),
(360,720,o),
(401,753,o),
(424,753,q),
(447,753,o),
(488,720,o),
(488,696,q)
);
}
);
userData = {
public.verticalOrigin = 880;
};
vertWidth = 1000;
width = 628;
}
);
unicode = 252;
}
{
glyphname = yacute;
layers = (
{
layerId = m001;
shapes = (
{
closed = 1;
nodes = (
(601,507,o),
(573,506,o),
(563,506,q),
(550,506,o),
(534,489,o),
(529,478,q),
(490,394,o),
(410,228,o),
(372,144,q),
(347,86,o),
(292,-31,o),
(263,-88,q),
(255,-104,o),
(238,-137,o),
(228,-154,q),
(210,-182,o),
(158,-207,o),
(125,-207,q),
(91,-207,o),
(37,-166,o),
(37,-129,q),
(37,-106,o),
(72,-77,o),
(94,-77,q),
(105,-77,o),
(113,-81,q),
(112,-109,o),
(132,-132,o),
(160,-132,q),
(169,-132,o),
(187,-123,o),
(194,-118,q),
(203,-111,o),
(228,-76,o),
(249,-37,o),
(251,-26,q),
(252,-21,o),
(254,-9,o),
(254,-4,q),
(254,25,o),
(226,116,o),
(185,218,o),
(145,309,o),
(133,339,q),
(120,373,o),
(91,442,o),
(71,472,q),
(60,489,o),
(31,493,o),
(13,493,q),
(9,493,o),
(0,499,o),
(0,504,q),
(0,518,o),
(13,521,q),
(41,526,o),
(102,531,o),
(130,535,q),
(141,537,o),
(162,539,o),
(172,539,q),
(186,539,o),
(196,528,o),
(200,517,q),
(214,487,o),
(237,425,o),
(248,393,q),
(269,334,o),
(315,214,o),
(334,153,q),
(342,171,o),
(373,244,o),
(410,333,o),
(444,421,o),
(466,490,o),
(466,504,q),
(466,509,o),
(454,510,o),
(451,510,q),
(441,510,o),
(420,509,o),
(409,509,q),
(401,509,o),
(389,513,o),
(389,523,q),
(389,535,o),
(402,537,o),
(410,537,q),
(454,537,o),
(543,538,o),
(586,538,q),
(601,538,o),
(601,521,q)
);
},
{
closed = 1;
nodes = (
(169,643,l),
(155,696,l),
(420,774,l),
(439,698,l)
);
}
);
userData = {
public.verticalOrigin = 880;
};
vertWidth = 1000;
width = 594;
}
);
unicode = 253;
}
{
glyphname = thorn;
layers = (
{
layerId = m001;
shapes = (
{
closed = 1;
nodes = (
(471,327,o),
(460,401,o),
(432,466,o),
(380,508,o),
(339,508,q),
(310,508,o),
(255,475,o),
(216,423,o),
(208,396,q),
(207,393,o),
(207,386,q),
(207,382,o),
(208,372,o),
(208,367,q),
(208,345,o),
(207,302,o),
(207,280,q),
(207,175,l),
(207,146,o),
(238,90,o),
(289,53,o),
(319,53,q),
(366,53,o),
(426,100,o),
(459,174,o),
(471,258,o),
(471,295,q)
);
},
{
closed = 1;
nodes = (
(594,208,o),
(530,82,o),
(408,13,o),
(321,13,q),
(257,13,o),
(207,52,q),
(207,-66,l),
(207,-88,o),
(228,-102,o),
(258,-101,o),
(273,-101,q),
(280,-101,o),
(299,-112,o),
(299,-120,q),
(299,-129,o),
(281,-139,o),
(273,-139,q),
(243,-139,o),
(183,-136,o),
(153,-136,q),
(125,-136,o),
(70,-140,o),
(42,-140,q),
(34,-140,o),
(19,-129,o),
(19,-121,q),
(19,-104,o),
(52,-101,o),
(63,-101,q),
(85,-101,o),
(94,-61,o),
(94,-45,q),
(93,453,l),
(93,500,o),
(93,593,o),
(91,639,q),
(90,654,o),
(85,671,o),
(67,671,q),
(58,671,o),
(39,669,o),
(30,669,q),
(23,669,o),
(3,675,o),
(3,685,q),
(3,693,o),
(7,700,o),
(15,704,q),
(22,707,o),
(38,709,o),
(45,710,q),
(78,713,o),
(111,719,q),
(128,723,o),
(162,730,o),
(179,730,q),
(187,730,o),
(201,727,o),
(206,719,q),
(206,718,o),
(206,678,o),
(206,619,o),
(206,556,o),
(206,509,o),
(206,502,q),
(206,490,l),
(238,519,o),
(313,550,o),
(356,550,q),
(430,550,o),
(537,481,o),
(594,364,o),
(594,293,q)
);
}
);
userData = {
public.verticalOrigin = 880;
};
vertWidth = 1000;
width = 608;
}
);
unicode = 254;
}
{
glyphname = idotless;
layers = (
{
layerId = m001;
shapes = (
{
closed = 1;
nodes = (
(314,7,o),
(304,-2,o),
(297,-2,q),
(263,-2,o),
(196,0,o),
(161,0,q),
(133,0,o),
(77,-2,o),
(48,-2,q),
(44,-2,o),
(34,7,o),
(34,12,q),
(34,23,o),
(49,28,o),
(57,28,q),
(98,28,l),
(111,28,o),
(119,43,o),
(119,54,q),
(119,159,o),
(120,369,o),
(120,474,q),
(120,481,o),
(117,493,o),
(108,493,q),
(92,493,o),
(60,486,o),
(43,486,q),
(38,486,o),
(29,494,o),
(29,500,q),
(29,508,o),
(36,515,o),
(43,516,q),
(77,524,o),
(144,536,o),
(177,544,q),
(187,546,o),
(209,552,o),
(219,552,q),
(228,552,o),
(233,544,o),
(233,536,q),
(233,415,o),
(231,174,o),
(231,54,q),
(231,43,o),
(245,28,o),
(256,28,q),
(267,28,o),
(286,29,o),
(296,29,q),
(303,29,o),
(314,21,o),
(314,14,q)
);
}
);
userData = {
public.verticalOrigin = 880;
};
vertWidth = 1000;
width = 350;
}
);
unicode = 305;
}
{
glyphname = Lslash;
layers = (
{
layerId = m001;
shapes = (
{
closed = 1;
nodes = (
(691,207,o),
(685,169,o),
(683,150,q),
(680,118,o),
(669,54,o),
(667,22,q),
(667,12,o),
(663,5,q),
(659,-1,o),
(637,-4,o),
(630,-4,q),
(588,-4,o),
(504,-3,o),
(463,-3,q),
(405,-3,o),
(290,-4,o),
(232,-4,q),
(209,-4,o),
(163,-4,o),
(140,-5,q),
(129,-5,o),
(107,-7,o),
(96,-7,q),
(88,-7,o),
(74,2,o),
(74,12,q),
(74,31,o),
(95,31,q),
(103,31,o),
(120,30,o),
(128,30,q),
(144,30,o),
(162,39,o),
(162,57,q),
(162,301,l),
(51,236,l),
(23,272,l),
(162,355,l),
(162,529,l),
(162,566,o),
(161,640,o),
(161,677,q),
(161,688,o),
(153,696,o),
(142,696,q),
(130,696,o),
(107,695,o),
(95,695,q),
(88,695,o),
(76,705,o),
(76,712,q),
(76,732,o),
(96,732,q),
(108,732,o),
(131,730,o),
(143,729,q),
(175,727,o),
(238,726,o),
(269,726,q),
(294,726,o),
(342,732,o),
(365,732,q),
(381,732,o),
(381,714,q),
(381,707,o),
(374,695,o),
(365,695,q),
(352,695,o),
(326,696,o),
(313,696,q),
(303,696,o),
(297,688,o),
(297,677,q),
(297,640,o),
(296,566,o),
(296,529,q),
(296,436,l),
(428,514,l),
(456,473,l),
(297,380,l),
(297,310,o),
(297,170,o),
(297,99,q),
(297,63,l),
(297,43,o),
(322,29,o),
(357,29,o),
(371,29,q),
(447,29,o),
(554,58,o),
(627,139,o),
(652,217,q),
(655,225,o),
(665,240,o),
(675,240,q),
(681,240,o),
(691,232,o),
(691,226,q)
);
}
);
userData = {
public.verticalOrigin = 880;
};
vertWidth = 1000;
width = 720;
}
);
unicode = 321;
}
{
glyphname = lslash;
layers = (
{
layerId = m001;
shapes = (
{
closed = 1;
nodes = (
(241,407,l),
(241,375,l),
(241,294,o),
(242,131,o),
(242,50,q),
(242,27,o),
(266,27,q),
(277,27,o),
(299,28,o),
(309,28,q),
(317,28,o),
(326,17,o),
(326,9,q),
(326,3,o),
(318,-7,o),
(311,-7,q),
(279,-7,o),
(214,-3,o),
(182,-3,q),
(151,-3,o),
(91,-7,o),
(60,-7,q),
(54,-7,o),
(46,3,o),
(46,8,q),
(46,19,o),
(59,26,o),
(68,26,q),
(105,26,l),
(118,26,o),
(126,39,o),
(126,50,q),
(126,120,o),
(127,259,o),
(128,329,q),
(28,257,l),
(2,298,l),
(128,389,l),
(127,465,o),
(126,617,o),
(126,693,q),
(126,699,o),
(121,712,o),
(113,712,q),
(94,712,o),
(56,698,o),
(37,698,q),
(33,698,o),
(25,707,o),
(25,711,q),
(25,724,o),
(39,730,o),
(49,733,q),
(61,736,o),
(113,751,o),
(172,767,o),
(220,779,o),
(228,779,q),
(241,779,o),
(241,765,q),
(241,465,l),
(332,529,l),
(358,488,l)
);
}
);
userData = {
public.verticalOrigin = 880;
};
vertWidth = 1000;
width = 363;
}
);
unicode = 322;
}
{
glyphname = OE;
layers = (
{
layerId = m001;
shapes = (
{
closed = 1;
nodes = (
(493,691,o),
(462,702,o),
(420,709,o),
(382,712,o),
(376,712,q),
(360,712,o),
(324,701,o),
(310,694,q),
(269,675,o),
(212,599,o),
(177,505,o),
(161,407,o),
(161,365,q),
(161,308,o),
(183,190,o),
(234,89,o),
(325,27,o),
(394,27,q),
(414,27,o),
(460,36,o),
(494,62,o),
(494,87,q),
(493,683,l)
);
},
{
closed = 1;
nodes = (
(916,586,o),
(894,570,o),
(883,570,q),
(864,570,o),
(848,597,o),
(836,638,o),
(814,679,o),
(765,706,o),
(719,706,q),
(616,706,l),
(616,409,l),
(618,409,l),
(644,409,o),
(694,410,o),
(719,413,q),
(745,416,o),
(795,426,o),
(820,433,q),
(823,434,o),
(829,434,q),
(842,434,o),
(842,423,q),
(842,420,o),
(836,397,o),
(829,375,o),
(827,372,q),
(823,364,o),
(815,358,o),
(805,358,q),
(783,358,o),
(762,361,q),
(738,363,o),
(689,366,o),
(664,366,q),
(643,366,o),
(616,348,o),
(616,325,q),
(616,83,l),
(616,54,o),
(637,41,o),
(663,41,q),
(730,41,l),
(765,41,o),
(796,61,o),
(815,88,q),
(832,111,o),
(859,159,o),
(872,184,q),
(877,192,o),
(888,202,o),
(898,202,q),
(906,202,o),
(915,191,o),
(915,184,q),
(915,165,o),
(909,124,o),
(906,104,q),
(904,83,o),
(901,37,o),
(895,16,q),
(892,-1,o),
(876,-1,q),
(785,-1,o),
(605,3,o),
(514,3,q),
(502,3,o),
(478,-1,o),
(467,-3,q),
(446,-7,o),
(406,-11,o),
(385,-11,q),
(270,-11,o),
(110,84,o),
(28,254,o),
(28,365,q),
(28,444,o),
(77,583,o),
(171,689,o),
(303,749,o),
(385,749,q),
(406,749,o),
(448,745,o),
(470,745,q),
(620,745,l),
(662,745,o),
(747,748,o),
(790,748,q),
(840,748,o),
(891,751,q),
(894,720,o),
(904,659,o),
(910,628,q),
(912,621,o),
(916,606,o),
(916,599,q)
);
}
);
userData = {
public.verticalOrigin = 880;
};
vertWidth = 1000;
width = 940;
}
);
unicode = 338;
}
{
glyphname = oe;
layers = (
{
layerId = m001;
shapes = (
{
closed = 1;
nodes = (
(450,292,o),
(440,378,o),
(410,456,o),
(351,505,o),
(302,505,q),
(256,505,o),
(199,453,o),
(169,374,o),
(158,288,o),
(158,253,q),
(158,214,o),
(169,130,o),
(200,57,o),
(261,12,o),
(310,12,q),
(357,12,o),
(413,60,o),
(441,136,o),
(450,220,o),
(450,255,q)
);
},
{
closed = 1;
nodes = (
(787,388,o),
(782,443,o),
(766,492,o),
(730,524,o),
(698,524,q),
(667,524,o),
(623,492,o),
(592,442,o),
(574,386,o),
(569,362,q),
(589,361,o),
(630,360,o),
(651,360,q),
(685,360,o),
(753,363,o),
(787,364,q)
);
},
{
closed = 1;
nodes = (
(926,125,o),
(916,107,o),
(913,102,q),
(873,52,o),
(762,-4,o),
(697,-4,q),
(640,-4,o),
(536,37,o),
(499,82,q),
(468,27,o),
(366,-20,o),
(305,-20,q),
(228,-20,o),
(107,50,o),
(39,172,o),
(39,248,q),
(39,327,o),
(106,458,o),
(227,538,o),
(309,538,q),
(365,538,o),
(466,503,o),
(505,462,q),
(541,506,o),
(646,553,o),
(702,553,q),
(796,553,o),
(907,446,o),
(907,351,q),
(907,332,o),
(889,323,o),
(872,323,q),
(825,323,o),
(731,327,o),
(684,327,q),
(654,327,o),
(594,326,o),
(564,325,q),
(563,309,o),
(561,279,o),
(561,264,q),
(561,232,o),
(575,155,o),
(608,84,o),
(663,39,o),
(703,39,q),
(745,39,o),
(824,71,o),
(855,99,q),
(865,108,o),
(881,127,o),
(889,137,q),
(893,142,o),
(901,149,o),
(908,149,q),
(915,149,o),
(926,138,o),
(926,130,q)
);
}
);
userData = {
public.verticalOrigin = 880;
};
vertWidth = 1000;
width = 965;
}
);
unicode = 339;
}
{
glyphname = Scaron;
layers = (
{
layerId = m001;
shapes = (
{
closed = 1;
nodes = (
(564,127,o),
(513,51,o),
(429,7,o),
(330,-12,o),
(282,-12,q),
(245,-12,o),
(177,9,o),
(143,22,q),
(126,28,o),
(93,31,o),
(75,31,q),
(72,55,o),
(66,102,o),
(62,126,q),
(60,142,o),
(54,175,o),
(54,191,q),
(54,205,o),
(65,223,o),
(80,223,q),
(94,223,o),
(109,212,o),
(113,199,q),
(120,181,o),
(129,143,o),
(136,124,q),
(153,77,o),
(229,20,o),
(281,20,q),
(352,20,o),
(424,102,o),
(424,171,q),
(424,211,o),
(392,264,o),
(339,302,o),
(307,319,q),
(279,335,o),
(219,363,o),
(190,378,q),
(158,395,o),
(97,446,o),
(58,513,o),
(58,552,q),
(58,619,o),
(127,702,o),
(236,742,o),
(295,742,q),
(368,742,o),
(438,711,q),
(457,704,o),
(487,692,o),
(508,695,q),
(511,664,o),
(516,604,o),
(519,574,q),
(520,569,o),
(521,558,o),
(521,553,q),
(521,539,o),
(509,516,o),
(492,516,q),
(479,516,o),
(467,527,o),
(462,539,q),
(450,570,o),
(432,632,o),
(411,658,q),
(389,686,o),
(323,717,o),
(288,717,q),
(253,717,o),
(208,678,o),
(186,619,o),
(186,588,q),
(186,540,o),
(237,487,o),
(275,465,q),
(296,453,o),
(339,433,o),
(360,423,q),
(410,399,o),
(503,335,o),
(564,246,o),
(564,185,q)
);
},
{
closed = 1;
nodes = (
(299,779,l),
(144,867,l),
(153,912,l),
(297,849,l),
(439,915,l),
(448,869,l)
);
}
);
userData = {
public.verticalOrigin = 880;
};
vertWidth = 1000;
width = 594;
}
);
unicode = 352;
}
{
glyphname = scaron;
layers = (
{
layerId = m001;
shapes = (
{
closed = 1;
nodes = (
(422,100,o),
(382,41,o),
(316,9,o),
(239,-3,o),
(201,-3,q),
(176,-3,o),
(128,7,o),
(104,13,q),
(94,15,o),
(72,20,o),
(61,20,q),
(57,34,o),
(42,89,o),
(29,142,o),
(29,153,q),
(29,164,o),
(43,170,o),
(51,170,q),
(63,170,o),
(69,161,q),
(84,140,o),
(102,94,o),
(121,74,q),
(135,59,o),
(188,28,o),
(209,28,q),
(254,28,o),
(299,70,o),
(299,116,q),
(299,147,o),
(261,189,o),
(202,223,o),
(136,256,o),
(77,296,o),
(39,353,o),
(39,394,q),
(39,445,o),
(95,509,o),
(182,539,o),
(226,539,q),
(246,539,o),
(284,533,o),
(303,525,q),
(312,522,o),
(343,513,o),
(352,513,q),
(365,513,o),
(377,516,q),
(379,488,o),
(388,432,o),
(389,404,q),
(389,401,l),
(390,391,o),
(377,378,o),
(368,378,q),
(358,378,o),
(349,386,o),
(345,394,q),
(332,423,o),
(307,476,o),
(266,510,o),
(228,510,q),
(188,510,o),
(150,448,o),
(150,413,q),
(150,385,o),
(192,345,o),
(214,333,q),
(241,319,o),
(312,285,o),
(378,241,o),
(422,184,o),
(422,147,q)
);
},
{
closed = 1;
nodes = (
(219,635,l),
(73,727,l),
(82,771,l),
(222,706,l),
(363,769,l),
(373,725,l)
);
}
);
userData = {
public.verticalOrigin = 880;
};
vertWidth = 1000;
width = 446;
}
);
unicode = 353;
}
{
glyphname = Ydieresis;
layers = (
{
layerId = m001;
shapes = (
{
closed = 1;
nodes = (
(705,702,o),
(682,701,o),
(671,701,q),
(664,701,o),
(646,700,o),
(640,697,q),
(634,695,o),
(619,677,o),
(616,671,q),
(564,585,o),
(462,412,o),
(411,326,q),
(412,262,o),
(411,133,o),
(411,69,q),
(411,56,o),
(419,27,o),
(435,27,q),
(449,27,o),
(476,29,o),
(489,29,q),
(497,29,o),
(506,18,o),
(506,11,q),
(506,4,o),
(495,-5,o),
(489,-5,q),
(458,-5,o),
(396,-1,o),
(365,-1,q),
(335,-1,o),
(276,-1,o),
(247,-3,q),
(235,-4,o),
(211,-5,o),
(199,-5,q),
(180,-5,o),
(180,12,q),
(180,30,o),
(198,30,q),
(209,30,o),
(229,28,o),
(239,28,q),
(260,28,o),
(273,43,o),
(272,69,o),
(272,84,q),
(273,267,l),
(273,298,o),
(256,347,o),
(244,374,q),
(226,416,o),
(185,498,o),
(164,539,q),
(147,573,o),
(110,643,o),
(89,674,q),
(84,682,o),
(63,695,o),
(53,695,q),
(46,695,o),
(30,692,o),
(22,692,q),
(14,692,o),
(1,702,o),
(1,710,q),
(1,726,o),
(18,728,q),
(36,730,o),
(72,732,o),
(90,733,q),
(116,736,o),
(169,742,o),
(195,742,q),
(207,742,o),
(218,733,o),
(223,722,q),
(261,632,o),
(340,454,o),
(380,365,q),
(389,379,o),
(427,445,o),
(472,528,o),
(513,611,o),
(539,676,o),
(539,690,q),
(539,699,o),
(528,704,o),
(520,704,q),
(510,704,o),
(491,701,o),
(481,701,q),
(459,701,o),
(459,720,q),
(459,736,o),
(477,736,q),
(506,736,o),
(564,733,o),
(593,733,q),
(617,733,o),
(665,736,o),
(689,736,q),
(705,736,o),
(705,718,q)
);
},
{
closed = 1;
nodes = (
(301,800,o),
(259,767,o),
(236,767,q),
(214,767,o),
(172,800,o),
(172,824,q),
(172,849,o),
(214,881,o),
(236,881,q),
(259,881,o),
(301,849,o),
(301,824,q)
);
},
{
closed = 1;
nodes = (
(521,800,o),
(480,767,o),
(457,767,q),
(434,767,o),
(392,800,o),
(392,824,q),
(392,849,o),
(434,881,o),
(457,881,q),
(480,881,o),
(521,849,o),
(521,824,q)
);
}
);
userData = {
public.verticalOrigin = 880;
};
vertWidth = 1000;
width = 693;
}
);
unicode = 376;
}
{
glyphname = zcaron;
layers = (
{
layerId = m001;
shapes = (
{
closed = 1;
nodes = (
(477,151,o),
(468,109,o),
(466,89,q),
(465,73,o),
(461,29,o),
(458,14,q),
(457,2,o),
(445,2,q),
(383,2,o),
(258,4,o),
(196,4,q),
(153,4,o),
(65,1,o),
(21,1,q),
(14,1,o),
(4,11,o),
(4,18,q),
(4,21,o),
(20,44,o),
(42,72,o),
(61,96,o),
(64,101,q),
(83,130,o),
(124,186,o),
(143,215,q),
(182,275,o),
(259,399,o),
(293,462,q),
(297,468,o),
(303,481,o),
(303,488,q),
(303,502,o),
(287,504,q),
(277,506,o),
(253,506,o),
(242,506,q),
(222,506,o),
(178,504,o),
(158,501,q),
(130,497,o),
(100,470,o),
(88,446,q),
(82,433,o),
(73,406,o),
(68,392,q),
(66,385,o),
(59,373,o),
(51,373,q),
(36,373,o),
(36,391,q),
(36,394,l),
(37,417,o),
(40,462,o),
(41,484,q),
(42,495,o),
(43,517,o),
(44,527,q),
(45,537,o),
(55,537,q),
(62,537,o),
(76,532,o),
(83,532,q),
(119,532,o),
(194,531,o),
(229,531,q),
(270,531,o),
(352,532,o),
(393,533,q),
(410,534,o),
(445,536,o),
(462,536,q),
(472,536,o),
(472,523,q),
(472,516,o),
(468,511,q),
(453,487,o),
(419,439,o),
(402,415,q),
(372,372,o),
(310,284,o),
(282,239,q),
(275,228,o),
(241,177,o),
(202,117,o),
(174,68,o),
(174,59,q),
(174,40,o),
(188,32,o),
(205,32,q),
(241,32,l),
(277,31,o),
(361,43,o),
(389,69,q),
(409,89,o),
(439,141,o),
(447,166,q),
(449,171,o),
(454,182,o),
(460,182,q),
(465,182,o),
(477,178,o),
(477,171,q)
);
},
{
closed = 1;
nodes = (
(239,639,l),
(95,729,l),
(102,769,l),
(241,705,l),
(382,767,l),
(391,727,l)
);
}
);
userData = {
public.verticalOrigin = 880;
};
vertWidth = 1000;
width = 480;
}
);
unicode = 382;
}
{
glyphname = fhook;
layers = (
{
layerId = m001;
shapes = (
{
closed = 1;
nodes = (
(533,664,o),
(523,644,o),
(512,644,q),
(493,644,o),
(485,662,q),
(482,669,o),
(478,682,o),
(475,688,q),
(465,708,o),
(428,747,o),
(403,747,q),
(383,747,o),
(357,708,o),
(341,647,o),
(334,580,o),
(332,524,o),
(332,510,q),
(332,500,l),
(465,500,l),
(465,463,l),
(330,463,l),
(329,395,o),
(326,257,o),
(324,189,q),
(323,146,o),
(318,58,o),
(306,17,q),
(284,-56,o),
(182,-149,o),
(102,-149,q),
(80,-149,o),
(32,-132,o),
(-2,-98,o),
(-2,-72,q),
(-2,-43,o),
(26,-20,o),
(54,-20,q),
(66,-20,o),
(73,-36,o),
(72,-56,o),
(72,-63,q),
(72,-84,o),
(99,-116,o),
(121,-116,q),
(152,-116,o),
(191,-64,o),
(213,16,o),
(223,105,o),
(226,181,o),
(227,201,q),
(229,266,o),
(231,398,o),
(232,463,q),
(127,463,l),
(127,500,l),
(235,500,l),
(237,545,o),
(256,644,o),
(299,731,o),
(372,786,o),
(428,786,q),
(452,786,o),
(496,772,o),
(520,773,q),
(522,761,o),
(528,721,o),
(533,684,o),
(533,673,q)
);
}
);
userData = {
public.verticalOrigin = 880;
};
vertWidth = 1000;
width = 540;
}
);
unicode = 402;
}
{
glyphname = circumflexmod;
layers = (
{
layerId = m001;
shapes = (
{
closed = 1;
nodes = (
(412,641,l),
(248,696,l),
(89,643,l),
(79,689,l),
(250,771,l),
(421,687,l)
);
}
);
userData = {
public.verticalOrigin = 880;
};
vertWidth = 1000;
width = 500;
}
);
unicode = 710;
}
{
glyphname = ringmod;
layers = (
{
layerId = m001;
shapes = (
{
closed = 1;
nodes = (
(300,725,o),
(269,749,o),
(250,749,q),
(231,749,o),
(200,724,o),
(200,704,q),
(200,685,o),
(231,660,o),
(250,660,q),
(269,660,o),
(300,685,o),
(300,705,q)
);
},
{
closed = 1;
nodes = (
(337,669,o),
(285,622,o),
(250,622,q),
(215,622,o),
(163,670,o),
(163,705,q),
(163,742,o),
(216,788,o),
(251,788,q),
(286,788,o),
(337,739,o),
(337,704,q)
);
}
);
userData = {
public.verticalOrigin = 880;
};
vertWidth = 1000;
width = 500;
}
);
unicode = 730;
}
{
glyphname = tildemod;
layers = (
{
layerId = m001;
shapes = (
{
closed = 1;
nodes = (
(363,656,o),
(310,610,o),
(271,610,q),
(241,610,o),
(180,637,o),
(123,664,o),
(98,664,q),
(76,664,o),
(51,642,o),
(37,626,q),
(6,646,l),
(23,666,o),
(51,704,o),
(88,728,o),
(118,728,q),
(148,728,o),
(202,702,o),
(258,677,o),
(287,677,q),
(310,677,o),
(341,690,o),
(354,709,q),
(384,686,l)
);
}
);
userData = {
public.verticalOrigin = 880;
};
vertWidth = 1000;
width = 390;
}
);
unicode = 732;
}
{
glyphname = acutecomb;
layers = (
{
layerId = m001;
shapes = (
{
closed = 1;
nodes = (
(132,644,l),
(107,688,l),
(360,792,l),
(393,724,l)
);
}
);
userData = {
public.verticalOrigin = 880;
};
vertWidth = 1000;
width = 0;
}
);
unicode = 769;
}
{
glyphname = overlinecomb;
layers = (
{
layerId = m001;
shapes = (
{
closed = 1;
nodes = (
(0,854,l),
(0,888,l),
(500,888,l),
(500,854,l)
);
}
);
userData = {
public.verticalOrigin = 880;
};
vertWidth = 1000;
width = 0;
}
);
unicode = 773;
}
{
glyphname = brevecomb;
layers = (
{
layerId = m001;
shapes = (
{
closed = 1;
nodes = (
(403,701,o),
(367,673,o),
(316,656,o),
(265,649,o),
(250,649,q),
(235,649,o),
(184,657,o),
(133,674,o),
(97,701,o),
(97,721,q),
(97,738,o),
(125,759,o),
(141,759,q),
(156,759,o),
(183,738,o),
(183,722,q),
(183,716,o),
(179,710,q),
(195,703,o),
(229,693,o),
(247,693,q),
(266,693,o),
(303,703,o),
(320,710,q),
(319,713,o),
(317,719,o),
(317,722,q),
(317,738,o),
(343,759,o),
(358,759,q),
(374,759,o),
(403,738,o),
(403,721,q)
);
}
);
userData = {
public.verticalOrigin = 880;
};
vertWidth = 1000;
width = 0;
}
);
unicode = 774;
}
{
glyphname = dotaccentcomb;
layers = (
{
layerId = m001;
shapes = (
{
closed = 1;
nodes = (
(306,697,o),
(273,661,o),
(250,661,q),
(228,661,o),
(194,697,o),
(194,719,q),
(194,741,o),
(228,776,o),
(250,776,q),
(273,776,o),
(306,741,o),
(306,719,q)
);
}
);
userData = {
public.verticalOrigin = 880;
};
vertWidth = 1000;
width = 0;
}
);
unicode = 775;
}
{
glyphname = dieresiscomb;
layers = (
{
layerId = m001;
shapes = (
{
closed = 1;
nodes = (
(205,695,o),
(166,661,o),
(143,661,q),
(121,661,o),
(81,695,o),
(81,719,q),
(81,742,o),
(121,776,o),
(143,776,q),
(166,776,o),
(205,742,o),
(205,719,q)
);
},
{
closed = 1;
nodes = (
(419,695,o),
(380,661,o),
(357,661,q),
(335,661,o),
(295,695,o),
(295,719,q),
(295,742,o),
(335,776,o),
(357,776,q),
(380,776,o),
(419,742,o),
(419,719,q)
);
}
);
userData = {
public.verticalOrigin = 880;
};
vertWidth = 1000;
width = 0;
}
);
unicode = 776;
}
{
glyphname = doubleacutecomb;
layers = (
{
layerId = m001;
shapes = (
{
closed = 1;
nodes = (
(113,629,l),
(68,641,l),
(186,777,l),
(280,759,l)
);
},
{
closed = 1;
nodes = (
(276,629,l),
(231,641,l),
(349,777,l),
(443,759,l)
);
}
);
userData = {
public.verticalOrigin = 880;
};
vertWidth = 1000;
width = 0;
}
);
unicode = 779;
}
{
glyphname = caroncomb;
layers = (
{
layerId = m001;
shapes = (
{
closed = 1;
nodes = (
(250,649,l),
(79,731,l),
(89,777,l),
(248,724,l),
(412,779,l),
(421,733,l)
);
}
);
userData = {
public.verticalOrigin = 880;
};
vertWidth = 1000;
width = 0;
}
);
unicode = 780;
}
{
glyphname = ogonekcomb;
layers = (
{
layerId = m001;
shapes = (
{
closed = 1;
nodes = (
(386,-109,o),
(357,-135,o),
(349,-140,q),
(327,-154,o),
(270,-173,o),
(244,-173,q),
(220,-173,o),
(159,-166,o),
(115,-137,o),
(115,-104,q),
(115,-92,o),
(137,-52,o),
(169,-8,o),
(199,30,o),
(208,40,q),
(265,25,l),
(253,12,o),
(218,-34,o),
(191,-83,o),
(191,-102,q),
(191,-114,o),
(211,-126,o),
(237,-130,o),
(246,-130,q),
(286,-130,o),
(325,-116,q),
(330,-114,o),
(354,-103,o),
(376,-93,o),
(379,-93,q),
(386,-93,o),
(386,-99,q)
);
}
);
userData = {
public.verticalOrigin = 880;
};
vertWidth = 1000;
width = 0;
}
);
unicode = 808;
}
{
glyphname = "Alpha-grek";
layers = (
{
layerId = m001;
shapes = (
{
closed = 1;
nodes = (
(472,625,l),
(471,625,l),
(441,544,o),
(380,381,o),
(347,300,q),
(590,300,l)
);
},
{
closed = 1;
nodes = (
(925,10,o),
(905,-4,o),
(896,-4,q),
(866,-4,o),
(805,-2,o),
(775,-2,q),
(734,-2,o),
(651,-4,o),
(610,-4,q),
(604,-4,o),
(586,11,o),
(586,17,q),
(586,29,o),
(603,36,o),
(625,36,o),
(633,36,q),
(647,36,o),
(674,44,o),
(674,63,q),
(674,74,o),
(657,127,o),
(632,191,o),
(609,247,o),
(604,261,q),
(336,261,l),
(332,252,o),
(316,208,o),
(295,153,o),
(276,99,o),
(263,60,o),
(263,54,q),
(263,42,o),
(294,35,o),
(331,36,o),
(338,36,q),
(346,36,o),
(364,25,o),
(364,16,q),
(364,6,o),
(343,-3,o),
(335,-3,q),
(125,-3,l),
(117,-3,o),
(98,5,o),
(98,15,q),
(98,34,o),
(117,37,o),
(130,37,q),
(161,37,o),
(189,67,o),
(201,92,q),
(207,103,o),
(217,127,o),
(221,139,q),
(280,288,o),
(390,588,o),
(444,739,q),
(464,743,o),
(511,753,o),
(530,753,q),
(533,753,o),
(549,751,o),
(550,747,q),
(781,162,l),
(789,142,o),
(803,100,o),
(814,81,q),
(828,56,o),
(866,42,o),
(902,41,o),
(925,36,o),
(925,20,q)
);
}
);
userData = {
public.verticalOrigin = 880;
};
vertWidth = 1000;
width = 1000;
}
);
unicode = 913;
}
{
glyphname = "Beta-grek";
layers = (
{
layerId = m001;
shapes = (
{
closed = 1;
nodes = (
(694,284,o),
(626,374,o),
(547,374,q),
(534,374,o),
(506,375,o),
(492,375,q),
(461,375,o),
(399,373,o),
(368,371,q),
(368,67,l),
(368,44,o),
(398,32,o),
(417,32,q),
(439,32,o),
(482,32,o),
(504,33,q),
(558,37,o),
(644,76,o),
(694,152,o),
(694,210,q)
);
},
{
closed = 1;
nodes = (
(641,627,o),
(587,688,o),
(500,709,o),
(448,709,q),
(440,709,o),
(401,707,o),
(368,697,o),
(368,685,q),
(368,410,l),
(438,410,l),
(478,410,o),
(559,420,o),
(590,448,q),
(614,469,o),
(641,534,o),
(641,565,q)
);
},
{
closed = 1;
nodes = (
(830,151,o),
(755,46,o),
(687,20,q),
(641,3,o),
(544,-2,o),
(496,-2,q),
(446,-2,o),
(344,1,o),
(294,1,q),
(264,1,o),
(203,-3,o),
(173,-3,q),
(166,-3,o),
(144,6,o),
(144,16,q),
(144,29,o),
(171,36,o),
(203,36,o),
(211,38,q),
(233,43,o),
(244,65,o),
(245,86,q),
(247,103,o),
(247,138,o),
(247,154,q),
(247,279,o),
(246,529,o),
(246,653,q),
(246,689,o),
(209,700,o),
(180,700,q),
(171,700,o),
(148,709,o),
(148,721,q),
(148,727,o),
(167,741,o),
(172,741,q),
(185,741,o),
(211,739,o),
(224,739,q),
(251,739,o),
(306,738,o),
(333,738,q),
(377,738,o),
(464,749,o),
(507,749,q),
(554,749,o),
(649,740,o),
(727,708,o),
(774,638,o),
(774,578,q),
(774,535,o),
(730,468,o),
(662,421,o),
(625,407,q),
(674,399,o),
(768,356,o),
(830,281,o),
(830,224,q)
);
}
);
userData = {
public.verticalOrigin = 880;
};
vertWidth = 1000;
width = 1000;
}
);
unicode = 914;
}
{
glyphname = "Gamma-grek";
layers = (
{
layerId = m001;
shapes = (
{
closed = 1;
nodes = (
(818,540,o),
(793,535,o),
(782,535,q),
(766,535,o),
(749,563,o),
(740,599,o),
(736,610,q),
(721,659,o),
(670,706,o),
(616,706,q),
(585,706,o),
(525,708,o),
(494,708,q),
(465,708,o),
(428,692,o),
(428,657,q),
(428,520,o),
(430,245,o),
(430,108,q),
(430,95,o),
(439,63,o),
(459,40,o),
(476,40,q),
(486,40,o),
(506,43,o),
(516,43,q),
(527,43,o),
(545,37,o),
(545,23,q),
(545,7,o),
(525,0,o),
(512,0,q),
(475,0,o),
(400,2,o),
(362,2,q),
(326,2,o),
(253,-1,o),
(217,-1,q),
(207,-1,o),
(185,9,o),
(185,21,q),
(185,33,o),
(200,39,o),
(221,37,o),
(228,37,q),
(267,37,o),
(297,73,o),
(297,110,q),
(297,242,o),
(298,506,o),
(298,638,q),
(298,661,o),
(284,705,o),
(255,705,q),
(244,705,o),
(221,704,o),
(210,704,q),
(203,704,o),
(184,717,o),
(184,724,q),
(184,733,o),
(204,748,o),
(212,748,q),
(226,748,o),
(253,746,o),
(266,746,q),
(329,746,o),
(455,746,o),
(518,746,q),
(563,746,o),
(653,746,o),
(698,748,q),
(718,749,o),
(759,753,o),
(780,753,q),
(792,753,o),
(803,748,o),
(810,738,q),
(811,737,o),
(813,703,o),
(815,653,o),
(817,600,o),
(818,561,o),
(818,555,q)
);
}
);
userData = {
public.verticalOrigin = 880;
};
vertWidth = 1000;
width = 1000;
}
);
unicode = 915;
}
{
glyphname = "Delta-grek";
layers = (
{
layerId = m001;
shapes = (
{
closed = 1;
nodes = (
(484,664,l),
(252,111,l),
(701,111,l)
);
},
{
closed = 1;
nodes = (
(152,27,l),
(451,757,l),
(546,810,l),
(849,27,l)
);
}
);
userData = {
public.verticalOrigin = 880;
};
vertWidth = 1000;
width = 1000;
}
);
unicode = 916;
}
{
glyphname = "Epsilon-grek";
layers = (
{
layerId = m001;
shapes = (
{
closed = 1;
nodes = (
(808,184,o),
(804,134,o),
(798,75,o),
(791,29,o),
(789,24,q),
(783,13,o),
(769,6,o),
(756,6,q),
(666,6,o),
(487,9,o),
(397,9,q),
(346,9,o),
(245,2,o),
(194,2,q),
(186,2,o),
(162,16,o),
(162,25,q),
(162,43,o),
(192,51,o),
(205,51,q),
(214,51,o),
(232,50,o),
(241,50,q),
(264,50,o),
(280,87,o),
(280,135,o),
(280,149,q),
(280,206,o),
(282,321,o),
(282,378,q),
(282,583,l),
(282,603,o),
(282,641,o),
(280,660,q),
(279,674,o),
(272,689,o),
(257,693,q),
(244,696,o),
(216,695,o),
(202,695,q),
(195,695,o),
(171,711,o),
(171,719,q),
(171,727,o),
(193,743,o),
(200,743,q),
(216,743,o),
(248,741,o),
(264,741,q),
(308,741,o),
(396,741,o),
(440,741,q),
(490,741,o),
(590,742,o),
(640,743,q),
(665,744,o),
(714,747,o),
(739,747,q),
(744,747,o),
(755,745,o),
(759,741,q),
(761,740,o),
(761,735,o),
(761,733,q),
(763,705,o),
(775,649,o),
(781,621,q),
(783,614,o),
(786,600,o),
(786,592,q),
(786,582,o),
(761,571,o),
(753,571,q),
(747,571,o),
(733,573,o),
(728,577,q),
(726,579,o),
(724,588,o),
(723,590,q),
(711,627,o),
(661,680,o),
(623,691,q),
(599,699,o),
(549,701,o),
(524,701,q),
(498,701,o),
(445,700,o),
(419,700,q),
(400,700,o),
(400,681,q),
(400,413,l),
(418,413,o),
(454,412,o),
(472,412,q),
(557,412,o),
(639,427,q),
(653,429,o),
(683,435,o),
(697,435,q),
(710,435,o),
(710,424,q),
(710,419,o),
(695,389,o),
(677,363,o),
(672,363,q),
(658,363,l),
(625,363,o),
(560,370,o),
(527,370,q),
(517,370,o),
(475,369,o),
(431,362,o),
(400,345,o),
(400,329,q),
(400,89,l),
(400,61,o),
(426,49,o),
(450,49,q),
(580,49,l),
(654,49,o),
(734,128,o),
(759,192,q),
(760,194,o),
(762,200,o),
(764,202,q),
(769,205,o),
(780,207,o),
(785,207,q),
(793,207,o),
(808,202,o),
(808,192,q)
);
}
);
userData = {
public.verticalOrigin = 880;
};
vertWidth = 1000;
width = 1000;
}
);
unicode = 917;
}
{
glyphname = "Zeta-grek";
layers = (
{
layerId = m001;
shapes = (
{
closed = 1;
nodes = (
(804,210,o),
(798,180,o),
(796,164,q),
(791,129,o),
(782,58,o),
(780,23,q),
(780,19,o),
(779,9,o),
(777,6,q),
(773,1,o),
(758,-2,o),
(751,-2,q),
(730,-2,o),
(689,1,o),
(668,1,q),
(551,1,o),
(318,-5,o),
(201,-5,q),
(189,-5,o),
(164,11,o),
(164,24,q),
(164,34,o),
(169,46,q),
(180,73,o),
(230,128,o),
(248,151,q),
(288,201,o),
(365,304,o),
(401,356,q),
(411,370,o),
(457,438,o),
(513,524,o),
(565,609,o),
(599,674,o),
(599,685,q),
(599,696,o),
(571,702,o),
(539,701,o),
(532,701,q),
(509,701,o),
(446,700,o),
(385,694,o),
(363,687,q),
(322,674,o),
(271,604,o),
(261,563,q),
(260,557,o),
(255,539,o),
(252,534,q),
(247,527,o),
(233,523,o),
(225,523,q),
(218,523,o),
(197,531,o),
(197,540,q),
(197,545,o),
(199,586,o),
(201,641,o),
(204,693,o),
(206,728,o),
(206,729,q),
(212,736,o),
(219,740,o),
(229,740,q),
(264,740,o),
(336,738,o),
(371,738,q),
(463,738,o),
(647,742,o),
(739,744,q),
(743,744,o),
(750,744,o),
(753,744,q),
(764,744,o),
(780,735,o),
(780,722,q),
(780,712,o),
(772,692,o),
(767,684,q),
(354,110,l),
(347,101,o),
(323,69,o),
(323,57,q),
(323,47,o),
(345,38,o),
(371,36,o),
(378,36,q),
(444,36,l),
(477,36,o),
(544,40,o),
(577,45,q),
(650,56,o),
(694,115,q),
(714,141,o),
(741,198,o),
(752,227,q),
(753,229,o),
(755,235,o),
(757,236,q),
(763,239,o),
(779,239,o),
(786,239,q),
(792,239,o),
(804,234,o),
(804,226,q)
);
}
);
userData = {
public.verticalOrigin = 880;
};
vertWidth = 1000;
width = 1000;
}
);
unicode = 918;
}
{
glyphname = "Eta-grek";
layers = (
{
layerId = m001;
shapes = (
{
closed = 1;
nodes = (
(912,5,o),
(886,-1,o),
(872,-1,q),
(844,-1,o),
(789,2,o),
(761,2,q),
(730,2,o),
(668,-2,o),
(636,-2,q),
(626,-2,o),
(608,5,o),
(608,18,q),
(608,39,o),
(636,40,o),
(650,40,q),
(672,40,o),
(691,62,o),
(696,95,o),
(696,112,q),
(696,173,o),
(695,295,o),
(695,356,q),
(309,356,l),
(309,95,l),
(309,76,o),
(319,43,o),
(344,43,q),
(352,43,o),
(370,44,o),
(378,44,q),
(387,44,o),
(405,33,o),
(405,23,q),
(405,9,o),
(391,-1,o),
(378,-1,q),
(347,-1,o),
(285,2,o),
(254,2,q),
(222,2,o),
(156,-2,o),
(124,-2,q),
(114,-2,o),
(96,5,o),
(96,18,q),
(96,35,o),
(115,41,o),
(143,40,o),
(170,46,o),
(189,77,o),
(189,114,q),
(189,244,o),
(188,503,o),
(188,633,q),
(188,646,o),
(181,678,o),
(164,703,o),
(147,703,q),
(140,703,o),
(124,701,o),
(116,701,q),
(108,701,o),
(87,711,o),
(87,721,q),
(87,737,o),
(104,746,o),
(117,746,q),
(149,746,o),
(212,743,o),
(243,743,q),
(269,743,o),
(322,745,o),
(349,747,q),
(354,747,o),
(363,748,o),
(368,748,q),
(379,748,o),
(396,741,o),
(396,727,q),
(396,706,o),
(368,706,o),
(354,706,q),
(327,706,o),
(312,678,o),
(310,655,q),
(308,639,o),
(307,605,o),
(307,588,q),
(307,543,o),
(309,454,o),
(309,409,q),
(695,409,l),
(695,468,o),
(696,587,o),
(696,646,q),
(696,666,o),
(686,703,o),
(660,703,q),
(652,703,o),
(635,701,o),
(627,701,q),
(619,701,o),
(598,711,o),
(598,721,q),
(598,736,o),
(614,746,o),
(627,746,q),
(658,746,o),
(719,743,o),
(750,743,q),
(777,743,o),
(831,745,o),
(858,747,q),
(863,747,o),
(873,748,o),
(878,748,q),
(889,748,o),
(906,741,o),
(906,727,q),
(906,707,o),
(877,706,o),
(863,706,q),
(841,706,o),
(820,683,o),
(815,648,o),
(815,631,q),
(815,497,o),
(816,229,o),
(816,95,q),
(816,76,o),
(826,43,o),
(851,43,q),
(859,43,o),
(877,44,o),
(885,44,q),
(893,44,o),
(912,33,o),
(912,23,q)
);
}
);
userData = {
public.verticalOrigin = 880;
};
vertWidth = 1000;
width = 1000;
}
);
unicode = 919;
}
{
glyphname = "Theta-grek";
layers = (
{
layerId = m001;
shapes = (
{
closed = 1;
nodes = (
(661,392,o),
(657,362,o),
(642,342,o),
(624,342,q),
(620,342,o),
(612,344,o),
(608,345,q),
(582,351,o),
(528,354,o),
(502,354,q),
(471,354,o),
(407,353,o),
(380,336,q),
(372,332,o),
(356,322,o),
(346,322,q),
(330,322,o),
(330,339,q),
(330,347,o),
(341,385,o),
(358,419,o),
(367,419,q),
(378,419,o),
(400,415,o),
(410,413,q),
(443,409,o),
(509,407,o),
(542,407,q),
(561,407,o),
(598,412,o),
(614,423,q),
(622,428,o),
(635,441,o),
(645,441,q),
(650,441,o),
(661,430,o),
(661,425,q),
(661,405,l)
);
},
{
closed = 1;
nodes = (
(737,435,o),
(712,552,o),
(656,653,o),
(565,715,o),
(498,715,q),
(434,715,o),
(342,649,o),
(283,545,o),
(256,426,o),
(256,372,q),
(256,316,o),
(282,200,o),
(339,101,o),
(432,40,o),
(498,40,q),
(566,40,o),
(657,103,o),
(713,204,o),
(737,323,o),
(737,379,q)
);
},
{
closed = 1;
nodes = (
(875,262,o),
(787,90,o),
(619,-1,o),
(498,-1,q),
(382,-1,o),
(214,88,o),
(125,255,o),
(125,372,q),
(125,455,o),
(178,595,o),
(277,699,o),
(414,757,o),
(498,757,q),
(616,757,o),
(785,667,o),
(875,499,o),
(875,381,q)
);
}
);
userData = {
public.verticalOrigin = 880;
};
vertWidth = 1000;
width = 1000;
}
);
unicode = 920;
}
{
glyphname = "Iota-grek";
layers = (
{
layerId = m001;
shapes = (
{
closed = 1;
nodes = (
(674,4,o),
(649,4,q),
(611,4,o),
(533,7,o),
(495,7,q),
(467,7,o),
(411,6,o),
(382,3,q),
(376,3,o),
(365,2,o),
(359,2,q),
(349,2,o),
(333,12,o),
(333,24,q),
(333,42,o),
(350,42,q),
(355,42,o),
(365,41,o),
(369,41,q),
(388,41,o),
(404,47,q),
(430,57,o),
(439,88,o),
(439,112,q),
(439,243,o),
(438,505,o),
(438,636,q),
(438,649,o),
(432,680,o),
(415,703,o),
(398,703,q),
(389,703,o),
(370,700,o),
(361,700,q),
(351,700,o),
(332,706,o),
(332,719,q),
(332,733,o),
(345,742,o),
(358,742,q),
(397,742,o),
(475,739,o),
(514,739,q),
(541,739,o),
(595,741,o),
(622,743,q),
(629,743,o),
(641,744,o),
(648,744,q),
(658,744,o),
(673,737,o),
(673,725,q),
(673,708,o),
(651,704,o),
(638,704,q),
(599,704,o),
(565,674,o),
(565,634,q),
(565,503,o),
(566,241,o),
(566,110,q),
(566,97,o),
(573,66,o),
(591,43,o),
(608,43,q),
(618,43,o),
(636,46,o),
(646,46,q),
(654,46,o),
(674,37,o),
(674,27,q)
);
}
);
userData = {
public.verticalOrigin = 880;
};
vertWidth = 1000;
width = 1000;
}
);
unicode = 921;
}
{
glyphname = "Kappa-grek";
layers = (
{
layerId = m001;
shapes = (
{
closed = 1;
nodes = (
(892,18,o),
(891,12,o),
(888,9,q),
(885,6,o),
(852,2,o),
(808,0,o),
(770,0,o),
(764,0,q),
(742,0,o),
(685,2,o),
(666,12,q),
(659,16,o),
(631,49,o),
(598,93,o),
(570,131,o),
(564,140,q),
(398,367,l),
(363,340,l),
(363,280,o),
(362,161,o),
(362,102,q),
(362,83,o),
(372,46,o),
(397,46,q),
(405,46,o),
(423,47,o),
(431,47,q),
(440,47,o),
(462,38,o),
(462,27,q),
(462,13,o),
(445,3,o),
(432,3,q),
(401,3,o),
(339,6,o),
(308,6,q),
(271,6,o),
(199,0,o),
(162,0,q),
(139,0,o),
(139,24,q),
(139,38,o),
(160,43,o),
(190,43,o),
(220,50,o),
(241,82,o),
(241,118,q),
(241,249,o),
(240,510,o),
(240,640,q),
(240,653,o),
(238,683,o),
(224,706,o),
(206,706,q),
(195,706,o),
(172,705,o),
(161,705,q),
(152,705,o),
(140,718,o),
(140,727,q),
(140,750,o),
(166,750,q),
(198,750,o),
(264,747,o),
(296,747,q),
(331,747,o),
(400,752,o),
(434,752,q),
(444,752,o),
(460,744,o),
(460,733,q),
(460,716,o),
(440,707,o),
(412,709,o),
(400,709,q),
(382,709,o),
(365,684,o),
(361,650,o),
(361,636,q),
(361,578,o),
(362,463,o),
(361,405,q),
(448,485,o),
(611,645,o),
(684,737,q),
(690,745,o),
(702,748,o),
(711,748,q),
(735,748,o),
(782,748,o),
(806,748,q),
(814,748,o),
(834,743,o),
(834,732,q),
(834,723,o),
(830,718,q),
(829,717,o),
(804,711,o),
(777,705,o),
(772,703,q),
(762,698,o),
(744,683,o),
(736,675,q),
(483,440,l),
(546,363,o),
(669,206,o),
(735,131,q),
(749,114,o),
(779,81,o),
(797,67,q),
(810,57,o),
(838,45,o),
(854,42,q),
(864,41,o),
(892,36,o),
(892,22,q)
);
}
);
userData = {
public.verticalOrigin = 880;
};
vertWidth = 1000;
width = 1000;
}
);
unicode = 922;
}
{
glyphname = "Lamda-grek";
layers = (
{
layerId = m001;
shapes = (
{
closed = 1;
nodes = (
(926,14,o),
(906,-1,o),
(898,-1,q),
(867,-1,o),
(807,1,o),
(776,1,q),
(735,1,o),
(652,-1,o),
(611,-1,q),
(606,-1,o),
(588,14,o),
(588,20,q),
(588,33,o),
(605,40,o),
(627,40,o),
(635,40,q),
(649,40,o),
(676,47,o),
(676,66,q),
(676,78,o),
(658,131,o),
(633,193,o),
(610,249,o),
(605,264,q),
(473,628,l),
(472,628,l),
(466,612,o),
(438,538,o),
(400,438,o),
(357,326,o),
(317,216,o),
(284,124,o),
(264,63,o),
(264,56,q),
(264,44,o),
(295,38,o),
(332,39,o),
(339,39,q),
(347,39,o),
(365,27,o),
(365,19,q),
(365,9,o),
(344,0,o),
(336,0,q),
(309,1,o),
(253,4,o),
(226,4,q),
(200,4,o),
(146,1,o),
(120,0,q),
(113,0,o),
(99,13,o),
(99,20,q),
(99,34,o),
(119,38,o),
(150,41,o),
(186,63,o),
(202,95,q),
(208,106,o),
(218,130,o),
(222,142,q),
(281,291,o),
(392,591,o),
(445,742,q),
(457,744,o),
(492,750,o),
(527,756,o),
(536,756,q),
(539,756,o),
(550,754,o),
(551,750,q),
(782,165,l),
(790,145,o),
(804,102,o),
(815,84,q),
(830,59,o),
(868,44,o),
(903,44,o),
(926,39,o),
(926,23,q)
);
}
);
userData = {
public.verticalOrigin = 880;
};
vertWidth = 1000;
width = 1000;
}
);
unicode = 923;
}
{
glyphname = "Mu-grek";
layers = (
{
layerId = m001;
shapes = (
{
closed = 1;
nodes = (
(984,713,o),
(962,703,o),
(953,703,q),
(940,703,o),
(912,705,o),
(898,705,q),
(881,705,o),
(877,689,q),
(877,687,o),
(876,653,o),
(876,618,o),
(876,612,q),
(876,350,l),
(876,286,o),
(877,159,o),
(877,95,q),
(877,77,o),
(887,45,o),
(910,45,q),
(920,45,o),
(940,46,o),
(950,46,q),
(958,46,o),
(980,36,o),
(980,26,q),
(980,11,o),
(964,1,o),
(950,1,q),
(917,1,o),
(851,4,o),
(818,4,q),
(781,4,o),
(709,0,o),
(672,0,q),
(662,0,o),
(650,13,o),
(650,23,q),
(650,37,o),
(671,43,o),
(701,43,o),
(731,51,o),
(752,82,o),
(752,118,q),
(752,631,l),
(699,501,o),
(592,243,o),
(542,112,q),
(535,92,o),
(520,52,o),
(511,32,q),
(490,24,o),
(471,24,q),
(465,24,o),
(453,26,o),
(448,30,q),
(443,36,o),
(429,74,o),
(425,83,q),
(369,220,o),
(245,491,o),
(186,628,q),
(186,498,o),
(185,238,o),
(185,108,q),
(185,78,o),
(199,52,o),
(231,46,o),
(258,46,q),
(267,46,o),
(288,36,o),
(288,25,q),
(288,10,o),
(268,3,o),
(256,3,q),
(239,3,o),
(204,4,o),
(187,4,q),
(154,4,o),
(87,-1,o),
(54,-1,q),
(44,-1,o),
(22,9,o),
(22,22,q),
(22,34,o),
(39,42,o),
(61,42,o),
(69,42,q),
(104,42,o),
(119,81,o),
(119,110,q),
(119,252,o),
(122,537,o),
(122,679,q),
(122,696,o),
(107,703,o),
(92,703,q),
(79,703,o),
(55,703,o),
(42,703,q),
(32,703,o),
(18,713,o),
(18,723,q),
(18,731,o),
(36,747,o),
(43,747,q),
(76,747,o),
(143,744,o),
(176,744,q),
(223,744,o),
(269,747,q),
(509,198,l),
(510,198,l),
(566,334,o),
(678,607,o),
(730,744,q),
(788,744,o),
(902,747,o),
(960,747,q),
(984,747,o),
(984,723,q)
);
}
);
userData = {
public.verticalOrigin = 880;
};
vertWidth = 1000;
width = 1000;
}
);
unicode = 924;
}
{
glyphname = "Nu-grek";
layers = (
{
layerId = m001;
shapes = (
{
closed = 1;
nodes = (
(915,711,o),
(893,703,o),
(882,703,q),
(876,703,o),
(863,704,o),
(857,704,q),
(829,704,o),
(812,660,o),
(812,637,q),
(812,13,l),
(812,9,o),
(802,-1,o),
(799,-1,q),
(747,-1,l),
(736,22,o),
(705,62,o),
(690,82,q),
(587,222,o),
(372,495,o),
(262,630,q),
(262,102,l),
(262,83,o),
(272,43,o),
(297,43,q),
(306,43,o),
(325,44,o),
(334,44,q),
(343,44,o),
(365,34,o),
(365,23,q),
(365,6,o),
(341,0,o),
(328,0,q),
(311,0,o),
(275,2,o),
(258,2,q),
(225,2,o),
(159,-3,o),
(126,-3,q),
(116,-3,o),
(94,8,o),
(94,21,q),
(94,33,o),
(110,41,o),
(131,40,o),
(138,40,q),
(173,40,o),
(196,77,o),
(196,108,q),
(196,248,o),
(199,526,o),
(199,665,q),
(199,680,o),
(186,702,o),
(169,702,q),
(156,702,o),
(132,700,o),
(119,700,q),
(110,700,o),
(88,710,o),
(88,721,q),
(88,729,o),
(102,745,o),
(110,745,q),
(133,745,o),
(181,742,o),
(204,742,q),
(233,742,o),
(291,746,o),
(319,746,q),
(746,225,l),
(746,641,l),
(746,654,o),
(740,683,o),
(723,704,o),
(707,704,q),
(699,704,o),
(681,702,o),
(673,702,q),
(665,702,o),
(643,712,o),
(643,722,q),
(643,740,o),
(667,746,o),
(680,746,q),
(703,746,o),
(750,745,o),
(773,745,q),
(801,745,o),
(857,749,o),
(885,749,q),
(896,749,o),
(915,735,o),
(915,724,q)
);
}
);
userData = {
public.verticalOrigin = 880;
};
vertWidth = 1000;
width = 1000;
}
);
unicode = 925;
}
{
glyphname = "Xi-grek";
layers = (
{
layerId = m001;
shapes = (
{
closed = 1;
nodes = (
(845,158,o),
(843,114,o),
(841,62,o),
(838,22,o),
(836,20,q),
(830,13,o),
(822,10,o),
(814,10,q),
(769,10,o),
(680,13,o),
(636,14,q),
(602,15,o),
(534,15,o),
(500,15,q),
(466,15,o),
(399,15,o),
(365,14,q),
(320,13,o),
(231,10,o),
(187,10,q),
(178,10,o),
(170,13,o),
(165,20,q),
(164,22,o),
(160,62,o),
(157,115,o),
(155,159,o),
(155,165,q),
(155,185,o),
(175,185,q),
(188,185,o),
(198,167,o),
(208,139,o),
(228,109,o),
(272,85,o),
(313,79,q),
(359,73,o),
(454,71,o),
(500,71,q),
(547,71,o),
(642,73,o),
(688,79,q),
(728,84,o),
(772,109,o),
(792,139,o),
(802,167,o),
(813,185,o),
(826,185,q),
(845,185,o),
(845,164,q)
);
},
{
closed = 1;
nodes = (
(693,429,o),
(688,391,o),
(683,372,q),
(679,356,o),
(668,340,o),
(650,340,q),
(642,340,o),
(626,344,o),
(618,345,q),
(584,351,o),
(517,354,o),
(483,354,q),
(463,354,o),
(413,355,o),
(365,348,o),
(348,336,q),
(340,331,o),
(320,313,o),
(310,313,q),
(302,313,o),
(295,318,o),
(295,326,q),
(295,332,o),
(301,364,o),
(313,400,o),
(327,426,o),
(334,426,q),
(345,426,o),
(366,422,o),
(377,420,q),
(420,416,o),
(506,414,o),
(549,414,q),
(566,414,o),
(616,417,o),
(631,424,q),
(639,428,o),
(654,447,o),
(669,464,o),
(677,464,q),
(693,464,o),
(693,448,q)
);
},
{
closed = 1;
nodes = (
(845,565,o),
(826,565,q),
(814,565,o),
(798,591,o),
(786,622,o),
(780,629,q),
(764,651,o),
(714,668,o),
(688,671,q),
(641,676,o),
(547,679,o),
(500,679,q),
(453,679,o),
(360,677,o),
(313,671,q),
(288,668,o),
(237,651,o),
(220,629,q),
(214,621,o),
(202,590,o),
(187,565,o),
(175,565,q),
(155,565,o),
(155,585,q),
(155,591,o),
(157,635,o),
(160,687,o),
(164,727,o),
(165,729,q),
(170,736,o),
(178,739,o),
(187,739,q),
(231,739,o),
(320,736,o),
(365,735,q),
(399,734,o),
(466,734,o),
(500,734,q),
(534,734,o),
(602,734,o),
(636,735,q),
(680,736,o),
(769,739,o),
(814,739,q),
(822,739,o),
(830,736,o),
(836,729,q),
(837,727,o),
(840,688,o),
(843,636,o),
(845,592,o),
(845,586,q)
);
}
);
userData = {
public.verticalOrigin = 880;
};
vertWidth = 1000;
width = 1000;
}
);
unicode = 926;
}
{
glyphname = "Omicron-grek";
layers = (
{
layerId = m001;
shapes = (
{
closed = 1;
nodes = (
(738,429,o),
(713,547,o),
(658,647,o),
(566,709,o),
(499,709,q),
(435,709,o),
(342,644,o),
(284,540,o),
(256,421,o),
(256,367,q),
(256,310,o),
(282,194,o),
(339,96,o),
(432,36,o),
(499,36,q),
(566,36,o),
(658,98,o),
(713,199,o),
(738,317,o),
(738,373,q)
);
},
{
closed = 1;
nodes = (
(877,255,o),
(788,84,o),
(620,-8,o),
(499,-8,q),
(382,-8,o),
(215,82,o),
(125,250,o),
(125,367,q),
(125,478,o),
(218,651,o),
(387,751,o),
(499,751,q),
(617,751,o),
(786,661,o),
(877,493,o),
(877,375,q)
);
}
);
userData = {
public.verticalOrigin = 880;
};
vertWidth = 1000;
width = 1000;
}
);
unicode = 927;
}
{
glyphname = "Pi-grek";
layers = (
{
layerId = m001;
shapes = (
{
closed = 1;
nodes = (
(906,712,o),
(886,703,o),
(857,703,o),
(828,696,o),
(808,666,o),
(808,631,q),
(808,96,l),
(808,77,o),
(820,45,o),
(844,45,q),
(852,45,o),
(870,46,o),
(878,46,q),
(886,46,o),
(905,35,o),
(905,25,q),
(905,7,o),
(879,1,o),
(865,1,q),
(837,1,o),
(782,4,o),
(754,4,q),
(722,4,o),
(658,0,o),
(626,0,q),
(616,0,o),
(601,7,o),
(601,20,q),
(601,41,o),
(629,42,o),
(643,42,q),
(665,42,o),
(684,65,o),
(689,100,o),
(689,116,q),
(689,252,o),
(689,522,o),
(689,657,q),
(689,674,o),
(679,703,o),
(659,703,q),
(330,703,l),
(316,703,o),
(304,681,o),
(301,652,o),
(301,642,q),
(301,506,o),
(302,233,o),
(302,97,q),
(302,78,o),
(312,45,o),
(337,45,q),
(345,45,o),
(363,46,o),
(371,46,q),
(379,46,o),
(398,35,o),
(398,25,q),
(398,11,o),
(384,1,o),
(371,1,q),
(340,1,o),
(278,4,o),
(247,4,q),
(215,4,o),
(149,0,o),
(117,0,q),
(107,0,o),
(89,7,o),
(89,20,q),
(89,25,o),
(107,42,o),
(112,42,q),
(156,42,o),
(182,75,o),
(182,116,q),
(182,246,o),
(181,505,o),
(181,635,q),
(181,647,o),
(176,680,o),
(160,705,o),
(143,705,q),
(136,705,o),
(120,703,o),
(112,703,q),
(104,703,o),
(84,713,o),
(84,723,q),
(84,742,o),
(110,748,o),
(124,748,q),
(152,748,o),
(207,744,o),
(235,744,q),
(743,744,l),
(771,744,o),
(826,747,o),
(854,749,q),
(859,749,o),
(868,750,o),
(872,750,q),
(881,750,o),
(906,741,o),
(906,729,q)
);
}
);
userData = {
public.verticalOrigin = 880;
};
vertWidth = 1000;
width = 1000;
}
);
unicode = 928;
}
{
glyphname = "Rho-grek";
layers = (
{
layerId = m001;
shapes = (
{
closed = 1;
nodes = (
(686,609,o),
(636,675,o),
(556,708,o),
(509,708,q),
(500,708,o),
(482,709,o),
(473,709,q),
(466,709,o),
(428,707,o),
(395,698,o),
(395,686,q),
(395,408,l),
(420,394,o),
(477,385,o),
(505,385,q),
(586,385,o),
(686,475,o),
(686,558,q)
);
},
{
closed = 1;
nodes = (
(821,488,o),
(765,402,o),
(672,358,o),
(559,344,o),
(502,344,q),
(475,344,o),
(422,350,o),
(396,354,q),
(396,290,o),
(397,163,o),
(397,100,q),
(397,81,o),
(407,47,o),
(431,47,q),
(439,47,o),
(457,48,o),
(465,48,q),
(473,48,o),
(497,39,o),
(497,28,q),
(497,12,o),
(477,3,o),
(464,3,q),
(433,3,o),
(373,6,o),
(342,6,q),
(308,6,o),
(238,2,o),
(203,2,q),
(193,2,o),
(174,14,o),
(174,25,q),
(174,40,o),
(194,45,o),
(225,44,o),
(255,52,o),
(275,83,o),
(275,120,q),
(275,235,o),
(276,465,o),
(276,580,q),
(276,603,o),
(275,649,o),
(275,672,q),
(275,687,o),
(266,701,o),
(249,701,q),
(237,701,o),
(212,702,o),
(200,702,q),
(189,702,o),
(162,707,o),
(162,722,q),
(162,730,o),
(180,747,o),
(188,747,q),
(226,747,o),
(302,743,o),
(340,743,q),
(396,743,o),
(508,747,o),
(564,747,q),
(610,747,o),
(701,729,o),
(776,687,o),
(821,614,o),
(821,559,q)
);
}
);
userData = {
public.verticalOrigin = 880;
};
vertWidth = 1000;
width = 1000;
}
);
unicode = 929;
}
{
glyphname = "Sigma-grek";
layers = (
{
layerId = m001;
shapes = (
{
closed = 1;
nodes = (
(826,205,o),
(820,167,o),
(810,115,o),
(799,63,o),
(791,23,o),
(789,17,q),
(787,9,o),
(781,0,o),
(771,0,q),
(744,0,o),
(691,3,o),
(664,3,q),
(606,4,o),
(488,3,o),
(429,3,q),
(200,3,l),
(192,3,o),
(176,16,o),
(176,25,q),
(176,35,o),
(192,56,o),
(198,63,q),
(279,156,o),
(357,252,q),
(381,281,o),
(429,341,o),
(449,373,q),
(442,383,o),
(398,440,o),
(339,518,o),
(276,602,o),
(222,675,o),
(188,723,o),
(188,725,q),
(188,744,o),
(205,744,q),
(275,744,o),
(415,743,o),
(485,743,q),
(524,743,o),
(602,744,o),
(641,745,q),
(667,746,o),
(720,749,o),
(745,749,q),
(755,749,o),
(759,743,q),
(761,742,o),
(761,734,o),
(761,732,q),
(764,704,o),
(775,648,o),
(781,621,q),
(783,615,o),
(786,603,o),
(786,596,q),
(786,570,o),
(760,570,q),
(744,570,o),
(737,581,o),
(732,594,q),
(717,635,o),
(668,686,o),
(624,696,q),
(598,702,o),
(544,704,o),
(518,704,q),
(480,704,o),
(405,702,o),
(367,702,q),
(364,702,o),
(357,700,o),
(357,696,q),
(357,691,o),
(363,683,o),
(365,680,q),
(400,635,o),
(466,542,o),
(499,496,q),
(544,434,l),
(549,428,o),
(558,416,o),
(562,409,q),
(564,405,o),
(564,402,q),
(564,398,o),
(559,391,o),
(556,388,q),
(310,122,l),
(306,118,o),
(298,106,o),
(298,101,q),
(298,93,o),
(316,85,o),
(338,84,o),
(343,84,q),
(414,84,o),
(556,83,o),
(626,83,q),
(673,83,o),
(752,135,o),
(777,173,q),
(783,182,o),
(793,201,o),
(798,211,q),
(802,218,o),
(807,223,o),
(815,223,q),
(820,223,o),
(826,213,o),
(826,209,q)
);
}
);
userData = {
public.verticalOrigin = 880;
};
vertWidth = 1000;
width = 1000;
}
);
unicode = 931;
}
{
glyphname = "Tau-grek";
layers = (
{
layerId = m001;
shapes = (
{
closed = 1;
nodes = (
(861,544,o),
(840,540,o),
(832,540,q),
(823,540,o),
(809,543,o),
(803,550,q),
(801,553,o),
(795,582,o),
(789,613,o),
(787,618,q),
(776,660,o),
(729,695,o),
(666,702,o),
(629,702,q),
(601,702,o),
(570,696,o),
(557,670,o),
(557,639,q),
(557,506,o),
(560,238,o),
(560,104,q),
(560,83,o),
(581,38,o),
(606,38,q),
(616,38,o),
(635,40,o),
(645,40,q),
(654,40,o),
(675,31,o),
(675,20,q),
(675,4,o),
(657,-3,o),
(644,-3,q),
(606,-3,o),
(530,-1,o),
(492,-1,q),
(455,-1,o),
(382,-4,o),
(345,-4,q),
(334,-4,o),
(316,4,o),
(316,17,q),
(316,35,o),
(347,34,o),
(359,34,q),
(398,34,o),
(428,69,o),
(428,106,q),
(428,652,l),
(428,661,o),
(426,688,o),
(419,695,q),
(414,701,o),
(380,704,o),
(345,704,o),
(336,704,q),
(322,704,o),
(276,702,o),
(262,697,q),
(234,687,o),
(213,633,o),
(208,607,q),
(207,603,o),
(202,577,o),
(196,553,o),
(194,550,q),
(189,544,o),
(174,539,o),
(166,539,q),
(160,539,o),
(140,548,o),
(140,555,q),
(140,562,o),
(141,603,o),
(143,656,o),
(147,707,o),
(151,742,o),
(153,743,q),
(158,746,o),
(167,747,o),
(172,747,q),
(192,747,o),
(233,744,o),
(254,743,q),
(289,742,o),
(361,741,o),
(396,741,q),
(480,741,o),
(647,742,o),
(731,745,q),
(758,746,o),
(813,749,o),
(841,749,q),
(849,749,o),
(853,740,q),
(854,739,o),
(856,704,o),
(858,653,o),
(860,601,o),
(861,561,o),
(861,555,q)
);
}
);
userData = {
public.verticalOrigin = 880;
};
vertWidth = 1000;
width = 1000;
}
);
unicode = 932;
}
{
glyphname = "Upsilon-grek";
layers = (
{
layerId = m001;
shapes = (
{
closed = 1;
nodes = (
(885,711,o),
(858,706,o),
(845,706,q),
(835,706,o),
(813,704,o),
(803,699,q),
(795,695,o),
(781,681,o),
(776,673,q),
(764,658,o),
(744,626,o),
(733,609,q),
(711,576,o),
(666,510,o),
(643,477,q),
(631,460,o),
(594,403,o),
(565,343,o),
(565,323,q),
(565,270,o),
(563,164,o),
(563,111,q),
(563,97,o),
(567,66,o),
(583,44,o),
(602,44,q),
(612,44,o),
(631,46,o),
(641,46,q),
(649,46,o),
(673,36,o),
(673,26,q),
(673,7,o),
(650,0,o),
(635,0,q),
(602,0,o),
(536,3,o),
(503,3,q),
(468,3,o),
(398,-2,o),
(363,-2,q),
(353,-2,o),
(330,8,o),
(330,21,q),
(330,30,o),
(351,41,o),
(358,41,q),
(394,41,o),
(427,61,o),
(436,102,o),
(436,133,q),
(436,162,o),
(436,219,o),
(435,247,q),
(434,289,o),
(415,355,o),
(397,393,q),
(366,460,o),
(290,588,o),
(249,650,q),
(243,660,o),
(229,679,o),
(220,687,q),
(210,698,o),
(190,708,o),
(176,708,q),
(168,708,o),
(151,705,o),
(143,705,q),
(137,705,o),
(124,717,o),
(124,723,q),
(124,730,o),
(128,734,q),
(132,739,o),
(179,746,o),
(239,753,o),
(290,756,o),
(299,756,q),
(314,756,o),
(333,743,o),
(342,731,q),
(398,653,o),
(483,478,o),
(525,392,q),
(533,406,o),
(574,471,o),
(624,554,o),
(671,635,o),
(702,695,o),
(702,705,q),
(702,709,o),
(699,709,q),
(685,709,o),
(656,708,o),
(642,708,q),
(635,708,o),
(616,719,o),
(616,726,q),
(616,735,o),
(636,746,o),
(643,746,q),
(746,746,l),
(775,746,o),
(834,748,o),
(863,748,q),
(871,748,o),
(885,736,o),
(885,728,q)
);
}
);
userData = {
public.verticalOrigin = 880;
};
vertWidth = 1000;
width = 1000;
}
);
unicode = 933;
}
{
glyphname = "Phi-grek";
layers = (
{
layerId = m001;
shapes = (
{
closed = 1;
nodes = (
(349,576,o),
(234,457,o),
(234,356,q),
(234,255,o),
(349,140,o),
(446,128,q),
(446,590,l)
);
},
{
closed = 1;
nodes = (
(766,457,o),
(657,577,o),
(564,593,q),
(564,458,l),
(564,377,o),
(564,215,o),
(565,134,q),
(660,148,o),
(766,264,o),
(766,361,q)
);
},
{
closed = 1;
nodes = (
(903,290,o),
(844,191,o),
(746,128,o),
(626,97,o),
(565,92,q),
(565,61,l),
(565,42,o),
(577,10,o),
(601,10,q),
(609,10,o),
(627,13,o),
(635,13,q),
(643,13,o),
(661,4,o),
(661,-5,q),
(661,-28,o),
(638,-28,q),
(599,-28,o),
(521,-25,o),
(482,-25,q),
(439,-25,o),
(397,-28,q),
(393,-29,o),
(385,-29,o),
(380,-29,q),
(369,-29,o),
(352,-22,o),
(352,-9,q),
(352,9,o),
(375,8,o),
(385,8,q),
(420,8,o),
(448,42,o),
(448,74,q),
(448,92,l),
(385,93,o),
(261,123,o),
(159,186,o),
(98,289,o),
(98,362,q),
(98,433,o),
(160,535,o),
(263,600,o),
(386,633,o),
(447,634,q),
(447,663,l),
(447,683,o),
(437,714,o),
(412,714,q),
(404,714,o),
(386,711,o),
(378,711,q),
(371,711,o),
(351,720,o),
(351,729,q),
(351,753,o),
(375,753,q),
(421,753,o),
(511,751,o),
(557,751,q),
(577,751,o),
(616,754,o),
(635,754,q),
(646,754,o),
(663,748,o),
(663,735,q),
(663,717,o),
(636,715,o),
(624,715,q),
(583,715,o),
(564,673,o),
(564,638,q),
(564,633,l),
(623,628,o),
(742,593,o),
(842,529,o),
(903,431,o),
(903,362,q)
);
}
);
userData = {
public.verticalOrigin = 880;
};
vertWidth = 1000;
width = 1000;
}
);
unicode = 934;
}
